if (_typeface_js && _typeface_js.loadFace) _typeface_js.loadFace({"glyphs":{"0":{"ha":358,"x_min":19,"x_max":411,"o":"m 317 553 q 343 549 324 553 q 359 547 353 547 q 371 546 365 546 q 397 513 393 546 q 400 489 400 501 q 401 464 400 476 l 408 453 q 411 428 411 442 q 409 406 411 418 q 404 379 407 394 q 399 350 401 364 q 397 324 397 336 q 392 286 397 297 q 381 271 386 279 q 371 256 376 263 q 354 215 357 226 q 342 204 347 208 q 335 197 338 200 q 328 174 331 183 q 324 157 325 164 q 303 133 313 143 q 288 118 294 124 q 125 -10 200 -11 q 60 25 100 -10 q 19 79 19 58 q 29 126 19 86 q 38 160 35 149 q 42 175 40 172 q 51 186 47 182 q 57 193 54 190 q 61 224 61 214 q 72 240 67 233 q 79 253 76 247 q 83 273 82 264 q 86 288 85 282 q 99 309 93 300 q 108 324 104 318 q 113 340 111 333 q 115 353 114 347 q 133 372 125 364 q 146 383 140 379 q 181 426 165 407 q 208 461 197 446 q 242 486 231 478 q 260 517 254 506 q 268 529 267 528 q 317 553 288 553 m 296 408 q 244 390 257 408 q 232 368 238 379 q 221 346 226 357 q 186 307 201 324 q 160 279 171 290 l 153 275 q 144 238 147 256 q 139 204 142 219 q 128 183 133 193 q 115 161 122 172 q 99 121 99 129 q 118 86 99 110 q 150 64 136 64 q 214 90 200 64 q 221 111 217 101 q 228 131 225 121 q 250 143 243 142 q 276 194 269 157 q 283 234 281 219 q 288 253 286 249 q 310 288 294 268 q 324 349 318 297 l 321 354 l 319 353 q 321 376 321 368 q 321 389 321 386 q 296 408 317 408 z "},"1":{"ha":222,"x_min":29,"x_max":294,"o":"m 147 521 q 131 506 131 513 q 156 483 131 500 q 179 451 179 468 q 176 436 179 447 q 167 407 167 406 q 163 374 168 386 q 156 358 158 364 q 151 349 153 351 q 149 332 150 339 q 150 319 149 325 q 129 282 147 304 q 100 249 101 253 q 80 217 89 231 q 64 194 71 204 q 47 153 51 167 q 32 142 35 143 q 30 101 31 115 q 31 81 29 86 q 54 28 32 64 q 75 11 60 17 q 89 7 82 8 q 103 3 96 6 q 113 -6 107 -1 q 126 -11 118 -11 q 161 8 144 -11 q 192 38 186 36 q 201 42 194 39 q 222 49 208 44 q 247 65 240 54 q 253 100 253 86 q 240 104 244 104 q 229 94 235 104 q 224 83 225 85 q 178 72 208 72 q 133 106 138 72 q 156 175 133 114 q 182 246 178 238 q 197 273 189 260 q 214 300 206 286 q 232 336 226 321 q 239 361 238 351 l 253 392 q 268 439 263 413 q 285 476 269 444 q 293 508 294 499 q 240 533 285 533 q 216 531 229 533 q 185 526 203 529 q 159 522 168 524 q 149 521 150 521 l 147 521 z "},"2":{"ha":417,"x_min":-143,"x_max":649,"o":"m 189 -14 q 160 7 179 -3 q 111 28 140 17 q 61 61 61 44 q 76 83 61 71 q 97 100 90 96 l 101 108 q 146 146 122 129 q 160 162 154 156 q 169 174 167 168 q 189 190 181 183 q 204 201 197 197 q 224 210 215 207 q 238 217 232 214 q 265 244 257 233 q 272 247 268 246 q 282 249 276 249 q 297 254 289 251 q 331 292 317 275 q 353 324 344 310 q 383 347 356 328 q 407 375 404 363 q 411 404 411 393 q 419 449 419 439 q 411 461 419 457 q 388 478 390 475 q 360 521 365 507 q 339 532 353 526 q 304 543 325 538 q 265 550 282 547 q 238 553 249 553 q 174 535 200 553 q 158 521 163 528 l 158 499 q 219 493 182 493 q 235 493 226 493 q 257 496 244 493 q 278 497 269 496 q 293 497 288 497 q 304 494 300 497 q 309 494 307 494 q 314 493 311 493 q 324 492 317 492 q 332 479 329 492 q 332 454 333 468 q 326 431 329 439 q 317 408 322 417 q 310 394 313 400 q 299 384 304 389 q 290 376 294 379 q 249 333 267 350 q 221 310 232 317 q 201 298 210 303 q 186 290 193 293 q 139 251 158 268 q 106 221 119 233 q 81 206 92 213 q 64 197 71 200 q 51 183 57 189 q 42 171 44 176 q -15 122 3 136 q -28 102 -22 111 q -37 86 -35 93 q -62 57 -53 65 q -90 17 -76 38 q -115 -26 -103 -4 q -143 -82 -143 -69 q -132 -92 -143 -92 q -82 -76 -119 -92 q -56 -67 -65 -69 q -43 -53 -46 -57 q 24 -33 -7 -33 q 103 -57 58 -33 q 156 -83 129 -71 q 185 -112 174 -94 l 193 -121 q 210 -124 201 -124 q 225 -126 218 -125 q 247 -140 239 -133 q 261 -153 256 -147 q 328 -168 299 -168 q 333 -167 331 -168 q 342 -165 336 -167 q 350 -163 347 -164 q 356 -162 353 -162 q 369 -163 358 -162 q 399 -164 379 -164 l 451 -164 l 517 -164 q 565 -142 544 -157 q 613 -121 588 -128 q 636 -96 624 -118 q 649 -61 649 -75 q 640 -49 649 -49 q 596 -74 626 -49 q 553 -96 560 -97 q 474 -101 510 -99 q 408 -107 438 -104 q 308 -85 342 -100 q 300 -71 303 -79 q 281 -67 288 -69 q 258 -47 276 -65 q 235 -35 246 -35 q 217 -36 215 -35 q 215 -28 215 -35 q 210 -22 214 -22 q 189 -12 193 -18 l 189 -14 z "},"3":{"ha":478,"x_min":-42,"x_max":457,"o":"m 169 542 q 147 528 160 539 q 129 511 131 513 q 122 482 124 499 q 117 469 119 478 q 122 456 115 460 q 135 444 129 451 q 146 438 139 438 q 162 456 156 449 q 172 467 168 463 q 214 490 182 476 q 263 506 249 506 q 268 499 272 506 l 251 463 q 235 450 249 460 q 221 435 222 440 q 203 414 218 429 q 190 393 192 403 q 179 378 188 386 q 169 360 169 369 q 165 346 169 350 q 151 325 156 336 q 136 303 136 318 l 136 297 l 135 296 q 131 285 131 292 l 135 272 q 171 256 140 256 q 210 268 194 256 l 213 272 q 225 290 222 278 q 249 307 239 299 q 265 322 258 315 l 272 322 l 274 319 q 292 314 289 314 q 299 313 299 317 q 299 301 299 307 q 301 288 300 294 l 301 272 q 299 264 301 268 q 298 259 299 261 q 297 254 297 257 q 299 249 297 251 l 299 242 l 290 225 q 282 218 286 222 q 275 211 278 214 q 258 185 260 199 q 253 173 256 178 q 249 165 250 168 q 226 139 232 156 q 206 113 222 124 q 183 96 190 104 l 178 90 q 153 74 164 81 q 135 65 142 68 l 135 64 q 108 56 121 65 l 107 51 q 94 53 100 51 q 82 54 89 54 q 54 54 65 57 q 38 56 39 54 q 33 69 35 58 q -8 124 25 124 q -32 114 -26 124 q -42 89 -33 113 l -40 86 l -40 75 q -42 67 -42 71 q -31 39 -39 46 l -31 38 q -10 7 -29 24 q 22 -10 7 -7 q 38 -15 28 -15 q 53 -18 39 -15 q 62 -20 58 -19 q 68 -21 65 -21 q 79 -18 71 -21 l 88 -18 q 100 -17 92 -21 q 106 -16 103 -17 q 111 -15 108 -15 q 143 -6 125 -15 q 147 -4 143 -6 q 161 0 151 -3 q 181 18 174 1 l 190 26 q 214 46 210 38 q 235 61 225 50 q 253 72 235 61 q 274 97 269 82 l 275 99 q 284 111 281 106 q 290 119 288 117 l 293 121 q 318 150 311 139 l 319 151 q 342 193 333 161 q 355 213 349 204 q 367 228 361 221 q 374 239 367 229 q 379 256 379 246 q 376 271 379 263 l 374 275 l 374 276 q 378 294 378 293 q 374 333 378 321 q 363 346 364 343 q 340 367 349 364 l 340 368 q 331 378 336 374 q 279 392 304 392 q 247 388 281 392 l 247 386 q 249 389 247 389 l 264 397 q 329 475 303 438 q 368 492 367 490 q 371 493 369 493 q 375 494 372 493 l 382 494 l 389 494 q 394 493 392 493 q 386 494 385 493 q 405 497 397 496 q 418 497 413 497 q 454 529 451 506 q 457 540 457 538 q 413 572 457 569 q 402 572 408 572 q 386 571 396 571 q 369 568 376 568 q 360 568 364 568 q 313 574 339 568 q 251 568 288 578 q 243 554 246 554 q 226 547 231 551 q 215 540 218 542 l 215 542 q 213 542 217 542 q 201 544 208 543 q 190 539 194 544 q 169 540 175 539 l 169 542 z "},"4":{"ha":385,"x_min":-61,"x_max":438,"o":"m 189 -136 q 181 -147 185 -142 q 174 -160 176 -153 l 85 -107 q 111 -51 97 -82 q 138 12 125 -21 q 163 76 151 44 q 181 133 174 107 q 160 127 171 131 q 139 119 149 124 q 122 107 129 114 q 111 88 114 100 q 88 83 96 83 q 72 81 79 82 q 58 74 65 79 q 39 60 51 69 q 11 47 28 51 q -21 44 -6 42 q -48 56 -36 46 q -61 83 -60 65 q -44 109 -61 89 q -7 154 -28 129 q 31 205 14 179 q 51 247 49 231 q 77 295 63 267 q 107 338 92 324 l 108 350 q 99 402 83 371 q 147 467 114 433 q 217 530 179 500 q 276 575 256 560 l 296 578 q 313 524 319 554 q 271 472 306 493 q 244 450 251 461 q 234 427 238 439 q 227 403 231 415 q 214 379 224 392 q 189 340 197 358 q 167 301 181 321 q 144 281 160 290 q 121 261 128 272 q 117 240 118 256 q 113 218 115 225 q 92 203 103 210 q 74 190 82 197 q 60 176 65 183 q 58 158 56 168 q 63 158 61 160 q 68 156 65 157 q 101 156 88 160 q 129 156 114 153 q 164 192 144 174 q 206 222 183 211 q 227 256 217 244 q 257 288 238 268 q 276 353 264 322 q 292 400 289 385 q 291 433 294 415 q 292 468 288 450 q 313 498 303 482 q 332 531 322 514 q 353 562 342 547 q 378 586 364 576 q 415 563 396 579 q 438 526 435 546 q 385 419 413 468 q 340 310 357 369 q 288 213 294 274 l 271 196 q 251 151 264 172 q 228 107 238 131 q 211 50 217 82 q 201 -15 206 18 q 193 -78 197 -47 q 181 -136 189 -110 l 189 -136 z "},"5":{"ha":424,"x_min":-61,"x_max":438,"o":"m 238 557 q 208 510 218 519 l 188 463 q 161 393 169 439 q 158 388 160 390 q 154 379 157 385 q 150 360 150 371 q 146 346 150 350 q 132 325 136 336 q 117 303 117 318 l 117 297 l 115 296 q 111 285 111 292 l 115 272 q 151 256 121 256 q 190 268 175 256 l 193 272 q 206 290 203 278 q 229 307 219 299 q 246 322 239 315 l 253 322 l 254 319 q 272 314 269 314 q 279 313 279 317 q 280 301 279 307 q 282 288 281 294 l 282 272 q 279 264 282 268 q 278 259 279 261 q 278 254 278 257 q 279 249 278 251 l 279 242 q 272 226 274 231 q 256 218 269 219 q 247 192 247 215 l 249 189 l 249 188 q 239 169 240 179 q 232 164 235 167 q 228 160 229 161 q 194 136 197 146 q 158 99 193 124 q 137 82 147 90 q 115 67 126 74 l 115 64 q 89 56 101 65 l 88 51 q 75 53 81 51 q 63 54 69 54 q 35 54 46 57 q 18 56 19 54 q 14 69 15 58 q -28 124 6 124 q -51 114 -46 124 q -61 89 -53 113 l -60 86 l -60 75 q -61 67 -61 71 q -50 39 -58 46 l -50 38 q -29 7 -49 24 q 3 -10 -12 -7 q 18 -15 8 -15 q 33 -18 19 -15 q 42 -20 39 -19 q 49 -21 46 -21 q 60 -18 51 -21 l 68 -18 q 81 -17 72 -21 q 86 -16 83 -17 q 92 -15 89 -15 q 124 -6 106 -15 q 128 -4 124 -6 q 142 0 132 -3 q 161 18 154 1 l 171 26 q 194 46 190 38 q 217 63 206 50 q 231 77 221 68 q 256 97 240 86 q 281 118 271 108 q 299 136 292 128 l 300 138 q 322 179 314 147 q 329 186 325 186 q 335 197 332 188 q 342 216 340 208 q 346 229 344 224 q 348 231 346 229 q 353 238 350 233 q 360 256 360 247 q 357 271 360 263 l 354 275 l 354 276 q 358 294 358 293 q 354 333 358 321 q 343 346 344 343 q 321 367 329 364 l 321 368 q 311 378 317 374 q 260 392 285 392 q 228 388 261 392 l 228 386 q 229 390 228 389 l 232 392 q 238 414 238 401 l 238 419 q 256 438 238 421 q 276 463 274 451 q 283 471 281 468 q 285 474 285 474 q 324 490 318 485 q 331 492 328 490 l 338 492 l 344 492 q 350 490 347 490 q 365 494 357 490 q 385 497 376 496 q 399 497 393 497 q 435 529 432 506 q 438 540 438 538 q 393 572 438 569 q 383 572 389 572 q 367 571 376 571 q 350 568 357 568 q 340 568 344 568 q 293 574 319 568 q 271 569 285 575 q 236 557 247 558 l 238 557 z "},"6":{"ha":394,"x_min":26,"x_max":861,"o":"m 49 113 l 40 111 q 33 125 40 114 q 31 139 26 132 q 63 217 31 157 l 63 218 q 68 256 63 246 q 73 263 71 258 q 78 271 75 267 q 83 279 81 275 q 89 286 86 283 q 106 328 93 300 l 113 335 q 118 340 115 338 q 125 346 121 343 q 129 363 125 351 q 132 374 131 368 q 136 386 133 379 q 139 390 139 389 q 147 432 140 408 q 153 456 150 443 q 161 485 157 469 q 190 553 175 508 q 191 559 190 556 q 192 565 192 563 q 193 582 192 575 q 214 636 197 600 q 215 644 214 643 l 208 644 l 213 653 q 215 656 214 654 q 218 658 215 657 q 254 733 224 697 q 285 766 269 750 q 317 799 301 782 q 344 828 329 813 q 379 863 360 844 q 422 901 399 881 q 472 946 444 922 q 513 963 483 949 q 588 1024 540 990 q 710 1053 642 1053 q 788 1035 757 1053 q 794 1028 790 1032 q 801 1018 797 1024 l 824 996 q 829 994 826 994 q 836 992 832 994 q 853 985 842 992 q 858 967 858 976 q 859 959 858 963 q 860 953 860 956 q 861 946 860 947 q 823 971 842 958 q 785 994 804 983 q 699 1018 746 1018 q 601 990 642 1018 q 592 979 597 985 q 581 967 588 974 l 553 953 q 536 944 544 949 q 517 933 528 939 q 479 896 504 918 q 399 832 451 878 q 374 786 390 817 q 353 767 364 779 q 331 738 343 754 q 325 725 328 733 l 321 713 l 325 713 q 322 704 322 707 q 319 697 319 701 q 304 656 308 674 q 299 626 300 638 q 296 603 297 615 q 293 581 294 592 q 289 540 289 560 q 335 550 314 550 q 399 517 357 550 q 440 463 440 483 q 438 447 440 460 q 431 415 435 435 q 417 367 421 372 q 404 350 413 360 q 400 318 404 340 q 381 290 388 306 q 376 275 378 282 q 372 256 375 269 q 351 219 363 243 q 343 190 347 208 l 314 161 q 301 145 307 154 q 288 125 294 136 q 271 104 279 115 q 251 81 263 93 q 218 56 239 74 q 206 38 211 46 q 199 25 201 31 q 192 13 192 14 q 142 -11 171 -11 q 115 -7 132 -11 q 100 -5 107 -6 q 89 -4 93 -4 q 63 29 67 -4 q 61 40 61 35 q 60 53 61 46 q 59 65 60 60 q 58 78 58 71 l 50 89 q 49 113 49 93 m 167 129 q 218 147 206 129 q 224 158 221 153 q 231 171 228 164 q 242 193 235 182 q 253 205 247 199 q 267 219 260 211 q 282 237 274 226 q 301 258 290 247 l 310 263 q 313 277 311 269 q 315 294 314 285 q 320 313 318 303 q 325 333 322 322 q 336 356 329 344 q 342 366 339 361 q 347 376 344 371 q 364 417 364 407 q 344 451 364 428 q 313 474 326 474 q 249 447 261 474 q 245 438 246 442 q 242 428 244 433 q 238 418 239 422 q 235 408 236 414 q 214 396 226 406 q 188 343 192 381 q 181 305 183 319 q 176 285 179 290 q 172 278 174 282 q 167 268 169 274 q 160 259 164 264 q 153 249 157 254 q 139 189 143 239 l 142 183 l 142 149 q 167 129 146 129 z "},"7":{"ha":533,"x_min":15,"x_max":601,"o":"m 314 -54 l 314 -56 q 310 -81 314 -64 q 304 -90 307 -85 q 299 -101 301 -94 q 286 -131 292 -114 q 283 -143 285 -136 q 279 -157 282 -150 q 271 -190 276 -172 q 253 -219 263 -199 l 151 -219 q 160 -201 157 -208 q 165 -192 163 -197 q 171 -182 168 -187 q 204 -117 199 -137 q 214 -69 211 -89 q 217 -33 217 -49 q 215 -18 217 -22 l 215 -8 q 238 29 215 -1 q 264 75 253 49 q 266 96 264 82 q 271 129 268 110 q 279 163 279 147 q 282 172 279 164 q 285 183 285 181 q 301 213 285 189 q 306 224 303 215 q 308 230 307 226 q 311 238 310 233 q 318 244 314 240 q 325 253 322 249 q 332 261 328 257 q 339 269 336 265 q 350 315 350 285 q 365 336 350 325 q 382 350 379 344 q 399 386 385 361 q 415 405 406 396 q 435 424 424 414 q 458 442 446 433 q 483 460 469 450 l 483 465 q 514 508 515 497 q 513 514 514 513 l 513 521 q 508 525 511 522 q 497 535 504 528 q 479 547 485 547 q 439 532 458 547 q 404 508 413 511 q 399 507 401 507 q 393 506 396 507 q 376 501 386 503 q 372 497 375 499 q 367 492 369 494 q 353 479 358 483 q 344 474 349 476 q 332 468 339 471 q 318 462 325 465 q 304 453 311 458 q 261 403 293 444 q 235 397 256 393 q 196 408 219 399 q 158 425 175 417 q 138 431 140 432 q 135 422 136 428 q 132 410 133 417 q 125 389 131 396 q 85 324 85 357 q 85 311 85 318 q 88 293 86 304 q 90 274 89 282 q 90 261 90 267 l 90 249 q 83 238 85 242 q 79 232 81 235 l 79 200 q 53 168 79 168 q 26 181 51 168 q 22 214 22 186 q 18 251 22 226 q 16 273 17 264 q 15 288 15 282 q 28 340 15 321 q 53 378 49 369 q 74 422 60 399 q 81 430 76 425 q 90 440 85 435 q 99 453 94 446 q 110 467 104 460 q 112 474 111 469 q 115 483 113 478 q 124 504 117 493 q 144 499 128 507 q 160 490 151 494 q 178 479 168 485 q 211 463 196 468 q 228 461 226 456 q 239 496 235 489 q 258 507 242 500 q 279 522 274 514 q 292 556 279 535 q 297 553 294 561 q 300 534 299 544 q 302 516 301 524 q 303 513 303 508 q 312 551 303 543 q 339 558 321 558 q 353 572 346 558 q 370 599 361 585 q 388 622 379 613 q 408 622 397 631 q 440 599 418 625 l 446 599 q 458 603 450 599 q 471 604 468 606 q 486 599 481 604 l 493 597 q 514 603 501 597 q 533 607 526 607 q 574 599 558 607 l 578 592 q 594 567 594 579 q 599 521 594 543 q 601 504 600 510 q 601 497 601 499 q 582 468 601 485 q 562 445 572 457 q 540 419 551 433 q 518 391 529 406 q 496 361 507 376 q 474 330 486 349 q 447 285 463 311 q 432 251 433 278 q 429 224 431 235 q 426 211 428 214 q 389 146 411 200 q 376 113 382 128 q 365 85 371 99 q 356 60 360 71 q 350 39 353 49 q 333 -3 343 19 q 324 -27 329 -14 q 314 -54 319 -40 z "},"8":{"ha":446,"x_min":29,"x_max":514,"o":"m 514 510 q 513 525 514 521 l 504 532 q 502 547 503 539 q 499 564 501 554 q 474 581 494 581 q 461 581 468 581 q 446 583 456 581 q 431 584 438 583 q 421 585 425 585 q 372 571 390 585 q 358 558 365 564 q 344 544 351 551 q 326 535 333 539 q 311 529 318 532 q 276 503 292 515 q 249 482 260 492 q 219 465 229 471 q 215 455 217 460 q 213 447 214 450 q 200 434 206 440 q 190 425 194 428 q 186 413 188 418 q 183 404 185 407 q 163 388 171 393 q 161 375 161 381 q 160 368 161 371 q 151 363 154 365 q 146 358 149 360 q 132 329 142 354 q 122 300 122 304 q 186 258 124 282 q 157 236 161 240 q 150 231 154 233 q 140 225 146 228 q 131 220 135 222 q 126 217 128 218 q 118 199 119 203 q 97 178 106 183 q 93 165 94 171 q 90 157 92 160 q 69 139 81 147 q 68 128 68 133 q 67 121 68 124 q 58 115 61 118 q 53 111 56 113 q 39 82 49 107 q 29 53 29 57 q 71 19 29 40 q 135 0 113 0 q 297 76 213 0 q 333 100 322 94 q 344 124 343 117 q 355 129 350 126 q 364 133 360 132 q 382 158 376 149 q 392 168 388 164 q 403 176 397 172 q 408 200 408 183 q 415 233 408 213 q 419 249 418 243 q 421 261 421 256 q 419 278 421 274 l 411 283 q 397 329 404 324 q 428 347 426 346 q 438 371 435 360 q 458 382 456 381 q 475 407 471 399 q 485 417 481 413 q 496 425 490 421 q 501 447 501 432 q 508 479 501 458 q 513 496 511 489 q 514 508 514 503 l 514 510 m 415 454 q 403 422 408 426 q 391 412 396 417 q 383 404 386 407 q 375 375 379 400 q 354 350 372 358 q 350 347 353 349 q 342 343 347 346 q 329 335 331 336 l 317 314 q 260 300 304 300 q 231 313 249 300 q 214 332 214 325 q 250 376 214 332 q 263 414 260 399 l 269 417 q 322 451 306 442 q 346 475 333 464 q 390 486 357 486 q 413 475 410 486 l 413 456 l 413 457 l 415 454 m 329 215 q 317 183 322 188 q 304 172 310 176 q 296 165 299 168 q 285 132 290 157 q 264 106 281 111 q 251 101 257 103 q 242 97 244 99 q 236 87 239 92 q 231 76 233 82 q 174 63 218 63 q 144 74 164 61 q 128 93 128 86 q 163 138 128 97 q 172 158 168 149 q 176 175 175 168 l 182 178 q 213 200 200 192 q 235 214 225 208 q 258 238 246 226 q 303 249 269 249 q 325 238 322 249 l 325 217 l 326 219 l 329 215 z "},"9":{"ha":376,"x_min":47,"x_max":460,"o":"m 439 533 l 447 535 q 453 522 447 532 q 457 507 460 514 q 432 432 454 492 q 422 406 426 417 q 413 385 417 394 q 400 360 406 365 q 382 319 396 346 q 374 313 378 315 l 363 301 q 360 283 360 293 q 356 272 357 278 q 353 260 356 267 l 349 256 q 344 235 347 246 q 339 214 342 225 q 333 190 336 203 q 326 161 329 176 q 313 133 319 150 q 299 93 306 115 q 293 65 299 82 q 285 42 290 56 q 274 10 281 29 q 271 -5 272 4 q 267 -25 269 -14 q 263 -44 264 -36 q 260 -58 261 -53 q 238 -110 250 -72 q 232 -140 238 -124 q 224 -162 229 -150 q 214 -194 219 -175 q 210 -207 211 -200 q 206 -222 208 -214 q 200 -239 203 -229 q 194 -260 197 -249 q 176 -250 185 -254 q 157 -240 167 -246 l 119 -219 q 125 -206 122 -212 q 131 -192 128 -199 q 137 -176 133 -185 q 143 -157 140 -167 l 143 -140 q 144 -131 144 -136 q 146 -118 144 -125 q 167 -51 147 -100 q 176 -30 172 -40 q 182 -10 179 -19 q 186 7 185 0 q 189 19 188 14 q 192 42 190 31 q 194 65 193 54 q 199 107 196 88 q 153 96 169 96 q 88 129 129 96 q 47 183 47 163 q 57 231 47 193 q 71 279 67 274 q 76 287 74 282 q 85 297 79 292 q 86 310 86 301 q 88 328 86 321 q 107 356 96 336 q 108 361 108 358 q 111 371 108 365 q 113 380 111 375 q 115 390 114 385 q 120 397 118 393 q 125 407 122 401 q 131 416 128 411 q 136 426 133 421 q 144 456 138 436 q 158 468 153 464 l 175 485 q 188 501 181 492 q 201 521 194 510 q 217 528 208 531 q 236 538 226 526 q 269 563 249 543 q 275 565 272 567 q 281 559 278 563 q 285 552 283 556 q 289 551 288 549 q 293 560 292 557 q 296 564 294 563 q 346 588 317 588 q 372 583 353 588 q 387 581 381 582 q 399 581 393 581 q 425 547 418 581 q 426 553 425 544 q 426 571 426 561 q 426 588 426 581 q 426 593 426 596 q 428 581 428 586 q 429 568 428 575 l 438 558 q 439 533 439 554 m 324 513 q 272 494 285 513 q 266 483 269 489 q 260 471 263 478 q 254 460 257 465 q 249 449 251 454 q 236 437 243 443 q 222 422 229 431 q 207 405 215 415 q 189 383 199 394 l 181 379 q 178 365 179 372 q 174 347 176 357 q 165 308 172 332 q 160 297 163 303 q 154 286 157 292 q 149 276 151 281 q 143 265 146 271 q 126 225 126 233 q 146 190 126 214 q 178 168 164 168 q 242 194 228 168 q 244 204 243 200 q 249 214 246 208 q 253 224 251 219 q 256 233 254 228 q 265 239 258 236 q 278 246 269 240 q 303 299 299 261 q 308 337 306 322 q 314 357 311 351 q 338 392 321 372 q 351 453 346 401 l 349 458 l 349 493 q 324 513 344 513 z "},"\u0007":{"ha":1389,"x_min":0,"x_max":0,"o":""},"\u0005":{"ha":2218,"x_min":-28,"x_max":4413,"o":"m 3793 2929 q 3994 2917 3908 2929 q 4085 2900 4022 2908 q 4136 2885 4097 2900 q 4190 2863 4189 2864 q 4211 2860 4201 2860 q 4225 2857 4218 2858 q 4242 2853 4232 2856 q 4276 2829 4258 2846 q 4293 2814 4286 2819 q 4304 2806 4300 2808 q 4342 2785 4318 2801 l 4407 2676 q 4410 2651 4413 2665 q 4406 2640 4407 2644 q 4403 2629 4404 2635 q 4338 2531 4390 2571 q 4303 2511 4332 2526 q 4270 2494 4289 2504 q 4228 2472 4251 2485 q 4207 2458 4219 2464 q 4193 2451 4200 2456 q 4176 2442 4186 2447 q 4155 2440 4167 2440 q 4129 2438 4143 2439 q 4099 2435 4115 2436 q 4064 2431 4083 2433 q 4049 2428 4057 2429 q 4032 2424 4040 2426 q 4001 2417 4014 2418 q 3966 2412 3982 2414 q 3938 2410 3950 2410 l 3928 2436 q 4046 2457 3929 2436 q 4063 2464 4053 2460 q 4086 2472 4074 2468 q 4133 2481 4113 2478 q 4169 2488 4154 2485 q 4193 2492 4185 2490 q 4204 2494 4201 2493 q 4289 2565 4235 2507 q 4322 2614 4322 2600 q 4313 2657 4322 2632 q 4282 2719 4294 2707 q 4269 2729 4275 2725 q 4257 2738 4264 2733 q 4244 2746 4250 2742 q 4233 2754 4239 2750 q 4169 2817 4211 2781 q 4142 2826 4168 2817 q 4110 2835 4129 2829 q 4068 2849 4092 2842 q 3965 2878 3972 2878 l 3911 2878 q 3903 2878 3908 2878 q 3892 2879 3899 2879 q 3880 2882 3886 2881 q 3867 2886 3874 2883 q 3853 2889 3860 2888 q 3840 2890 3847 2890 q 3828 2893 3833 2893 q 3819 2893 3824 2893 q 3744 2889 3792 2893 q 3672 2885 3696 2885 q 3660 2885 3667 2885 q 3644 2888 3654 2886 q 3628 2890 3635 2889 q 3618 2890 3622 2890 l 3608 2890 q 3571 2874 3596 2883 q 3558 2874 3565 2874 q 3544 2872 3551 2874 q 3511 2868 3529 2869 q 3502 2863 3507 2865 q 3490 2858 3497 2861 q 3461 2846 3478 2851 q 3431 2840 3447 2843 q 3396 2832 3415 2838 q 3308 2807 3358 2821 q 3295 2794 3303 2801 q 3276 2781 3288 2788 q 3264 2776 3271 2779 q 3247 2771 3257 2774 q 3229 2764 3239 2768 q 3208 2754 3219 2760 q 3202 2748 3206 2751 q 3193 2740 3199 2744 q 3183 2733 3189 2738 q 3171 2724 3178 2729 q 3140 2711 3161 2721 q 3120 2702 3131 2707 q 3099 2692 3110 2697 q 3063 2657 3083 2682 q 3029 2625 3039 2629 q 3022 2622 3026 2622 q 3013 2618 3018 2621 q 3003 2613 3008 2615 q 2992 2607 2999 2610 q 2975 2589 2985 2600 q 2951 2563 2965 2578 l 2922 2546 q 2904 2521 2906 2536 q 2895 2517 2901 2519 q 2881 2510 2889 2515 q 2860 2479 2874 2496 q 2826 2440 2846 2463 q 2788 2421 2815 2438 q 2779 2400 2785 2413 q 2744 2379 2771 2396 q 2738 2368 2742 2374 q 2729 2356 2735 2363 q 2718 2342 2724 2349 q 2706 2326 2713 2335 q 2658 2296 2686 2318 q 2621 2249 2640 2278 q 2588 2203 2600 2217 q 2577 2197 2582 2200 q 2565 2188 2572 2193 q 2553 2178 2560 2183 q 2539 2167 2546 2174 q 2519 2133 2533 2156 q 2505 2113 2513 2124 q 2488 2088 2497 2101 q 2408 2029 2458 2072 q 2406 2013 2406 2021 q 2401 2001 2403 2007 q 2397 1989 2400 1996 l 2383 1983 q 2372 1963 2378 1981 q 2367 1944 2368 1950 q 2364 1936 2365 1938 q 2357 1930 2361 1933 q 2347 1922 2353 1926 q 2338 1913 2343 1918 q 2328 1900 2333 1907 q 2315 1863 2325 1885 q 2304 1854 2311 1861 l 2292 1842 q 2261 1781 2283 1819 q 2231 1749 2247 1769 q 2225 1735 2228 1743 q 2219 1717 2222 1728 q 2211 1686 2215 1697 q 2200 1673 2206 1681 q 2188 1656 2194 1665 q 2160 1608 2175 1638 q 2147 1557 2158 1590 q 2126 1525 2142 1546 q 2112 1505 2119 1515 q 2094 1483 2104 1494 q 2076 1461 2085 1472 q 2061 1440 2068 1450 q 2050 1422 2054 1431 q 2043 1406 2046 1413 q 2043 1379 2044 1397 q 2032 1366 2039 1375 q 2014 1343 2025 1357 q 2013 1329 2013 1339 q 2008 1311 2011 1325 q 1999 1296 2007 1307 q 1992 1289 1996 1293 q 1985 1279 1989 1285 q 1978 1271 1982 1275 q 1971 1263 1974 1267 q 1963 1247 1965 1254 q 1954 1186 1963 1224 q 1949 1184 1951 1185 q 1942 1181 1946 1183 q 1929 1160 1933 1176 q 1928 1151 1928 1156 q 1926 1146 1928 1149 q 1925 1142 1925 1143 q 1924 1139 1925 1140 q 1899 1118 1913 1135 l 1899 1101 q 1897 1092 1897 1097 q 1896 1081 1897 1088 q 1890 1073 1893 1078 q 1882 1063 1886 1068 q 1875 1050 1879 1057 q 1865 1036 1871 1043 q 1849 978 1861 1017 q 1829 950 1839 965 q 1817 933 1824 943 q 1804 911 1811 922 q 1801 899 1803 906 q 1797 882 1800 892 q 1792 864 1794 874 q 1786 843 1790 854 q 1779 828 1783 836 q 1768 811 1775 821 q 1739 772 1760 797 q 1708 733 1722 751 q 1692 703 1697 715 q 1686 669 1692 688 q 1664 628 1678 657 q 1652 600 1658 615 q 1639 567 1646 585 l 1663 546 q 1697 542 1672 542 q 1736 546 1724 542 q 1781 594 1747 565 q 1836 629 1811 618 q 1839 623 1838 626 q 1843 615 1840 619 q 1848 608 1846 613 q 1853 597 1850 603 q 1851 578 1851 593 q 1853 565 1853 572 q 1854 551 1853 558 q 1922 521 1863 526 q 1942 519 1932 519 q 1963 518 1951 519 q 1982 517 1972 517 q 2001 515 1992 517 q 2119 478 2038 507 q 2157 465 2139 471 q 2190 454 2175 460 q 2240 442 2221 446 q 2243 429 2240 435 l 2253 404 l 2218 406 l 2201 404 l 2204 396 l 2172 396 l 2163 394 l 2167 383 l 2146 383 q 2093 394 2113 383 q 2079 405 2086 400 q 2067 413 2072 410 q 2057 417 2061 415 q 2050 421 2053 419 q 1978 439 2018 432 q 1889 447 1938 446 q 1804 403 1804 449 l 1804 389 q 1806 374 1806 385 q 1783 322 1806 340 q 1782 301 1782 318 q 1779 281 1783 288 q 1767 258 1772 271 q 1768 242 1768 254 q 1768 232 1768 238 q 1769 221 1768 228 q 1767 213 1768 218 q 1763 201 1765 208 q 1758 189 1760 196 q 1754 175 1757 182 q 1754 169 1754 174 q 1756 160 1754 167 q 1760 124 1757 149 q 1768 72 1767 78 q 1793 43 1774 53 q 1813 25 1811 32 q 1817 14 1813 24 q 1778 0 1790 0 l 1729 0 q 1696 -14 1710 0 q 1675 -26 1683 -26 l 1660 -26 l 1644 -17 q 1644 -6 1644 -12 q 1642 11 1643 1 q 1640 28 1640 21 q 1640 40 1639 35 q 1648 56 1643 46 q 1658 82 1653 67 q 1656 99 1657 89 q 1654 119 1654 108 q 1652 143 1653 131 q 1653 169 1651 156 q 1660 189 1653 175 q 1681 226 1668 203 q 1699 290 1701 263 q 1696 306 1699 292 q 1694 315 1694 311 q 1693 321 1693 318 l 1706 332 q 1704 347 1704 336 q 1703 368 1704 361 q 1710 392 1703 375 q 1717 417 1717 408 q 1704 450 1717 426 q 1681 458 1693 454 q 1654 468 1668 463 q 1610 478 1629 478 q 1561 460 1582 478 q 1547 446 1553 451 q 1536 436 1540 440 l 1526 426 q 1504 414 1518 424 q 1494 375 1508 388 q 1476 347 1478 357 q 1476 332 1478 342 q 1450 308 1468 321 q 1438 300 1443 304 q 1429 293 1433 296 q 1424 288 1426 290 q 1419 285 1421 286 q 1400 249 1415 276 q 1393 244 1397 247 q 1383 239 1389 242 q 1363 222 1372 232 q 1332 181 1351 201 q 1313 176 1325 181 q 1308 169 1311 174 q 1303 160 1306 165 q 1297 151 1300 156 q 1289 140 1293 146 q 1269 132 1279 138 q 1257 126 1264 129 q 1243 118 1250 122 q 1222 76 1236 103 q 1143 26 1194 49 q 1121 17 1132 21 q 1099 7 1110 13 q 1054 -11 1075 -1 q 1014 -43 1043 -24 q 963 -49 1003 -49 q 735 8 860 -49 l 732 18 l 725 35 q 751 51 731 38 q 769 88 756 56 q 801 110 779 110 q 844 96 822 110 q 872 79 863 85 q 885 72 882 74 q 1046 43 956 46 q 1174 82 1111 42 q 1186 97 1179 89 q 1204 114 1193 106 q 1242 122 1218 115 q 1257 149 1250 129 q 1271 175 1263 167 q 1306 196 1279 178 q 1311 203 1308 199 q 1317 214 1314 208 q 1323 225 1319 219 q 1332 238 1326 231 q 1340 244 1335 240 q 1350 253 1344 247 q 1363 263 1356 257 q 1376 275 1369 268 q 1396 310 1379 286 q 1404 313 1399 311 q 1418 321 1410 315 q 1426 335 1422 325 q 1435 353 1432 346 q 1443 371 1438 360 q 1451 383 1447 379 q 1466 394 1458 389 q 1482 406 1474 399 q 1494 431 1496 415 l 1493 438 l 1483 447 q 1477 453 1481 450 q 1471 463 1474 457 q 1118 446 1278 463 q 1090 447 1106 447 q 1057 444 1075 446 q 976 436 1022 443 q 951 419 969 429 q 886 415 929 419 q 863 407 875 413 q 849 401 856 404 q 835 396 842 399 q 817 387 825 390 q 803 381 810 383 q 791 376 796 378 q 783 374 786 375 q 708 353 756 367 q 695 345 703 350 q 678 335 688 340 q 658 324 668 329 q 635 311 647 318 q 600 307 622 311 q 568 274 594 299 q 539 269 557 274 q 515 251 532 268 q 496 232 503 236 q 474 224 486 231 q 460 218 467 221 q 444 213 453 215 q 435 201 440 207 q 422 188 429 194 l 389 154 q 347 133 374 147 q 332 103 343 122 q 269 61 308 90 q 186 -35 249 42 q 138 -97 156 -72 q 114 -135 119 -122 q 99 -178 107 -153 q 83 -235 90 -203 q 78 -261 81 -249 q 72 -287 75 -274 q 67 -312 69 -300 q 61 -339 64 -325 q 67 -349 63 -340 q 75 -396 74 -364 l 64 -396 q 72 -417 65 -403 q 79 -437 79 -433 q 74 -446 79 -440 q 69 -458 69 -453 q 74 -479 69 -467 q 76 -518 72 -492 q 82 -544 79 -529 q 88 -578 85 -560 q 138 -661 101 -622 q 144 -682 139 -668 q 147 -694 146 -687 q 151 -707 149 -700 q 161 -722 154 -715 q 168 -729 164 -725 q 175 -739 172 -733 q 182 -747 178 -743 q 189 -756 186 -751 q 194 -771 194 -767 q 188 -792 194 -781 q 171 -810 182 -801 q 149 -824 161 -817 q 128 -828 138 -828 q 124 -826 126 -826 q 118 -825 121 -826 q 111 -824 115 -824 q 104 -822 108 -824 q 46 -746 74 -789 q 46 -733 46 -740 q 43 -721 46 -728 q 42 -706 43 -714 q 39 -687 40 -697 q 31 -673 36 -681 q 21 -656 26 -665 q 11 -635 17 -646 q 0 -610 6 -624 q -6 -587 -4 -599 q -7 -561 -7 -575 q -8 -511 -7 -515 q -10 -506 -10 -508 q -12 -499 -10 -503 q -15 -489 -12 -494 q -19 -476 -17 -483 q -26 -443 -28 -453 l -17 -443 q -17 -442 -17 -443 q -18 -439 -17 -442 q -22 -426 -21 -435 l -24 -422 l -3 -407 q 0 -354 -4 -394 l 7 -349 q 6 -329 6 -344 l 6 -303 l 14 -297 q 16 -285 15 -292 q 19 -268 17 -278 q 28 -229 21 -253 q 49 -199 39 -215 q 54 -157 49 -178 q 108 -75 61 -139 q 130 -45 119 -58 q 147 -22 140 -32 q 169 4 161 -4 q 175 7 172 6 q 182 11 178 8 q 196 19 188 13 q 203 32 199 25 q 215 49 208 39 q 244 88 224 63 q 282 113 263 97 l 286 129 q 292 132 289 131 q 301 133 296 133 q 310 137 307 136 q 315 139 313 138 q 317 146 317 142 q 321 154 318 150 q 329 171 322 160 q 336 174 332 172 q 346 176 340 175 q 367 185 356 178 q 396 222 375 199 q 408 226 401 224 q 426 233 415 228 l 440 247 q 460 264 451 256 q 481 272 468 265 q 493 278 486 275 q 507 285 500 282 q 672 383 564 324 q 694 390 682 386 q 721 399 706 393 q 753 408 736 403 q 789 419 769 413 q 815 438 796 422 q 849 450 828 447 q 863 449 853 449 q 871 450 867 450 q 882 451 876 450 q 899 458 889 454 q 922 468 910 463 q 949 477 935 472 q 979 488 964 482 q 993 489 986 489 q 1010 490 1000 489 q 1028 492 1018 492 q 1050 494 1039 492 q 1110 505 1078 500 q 1182 514 1143 510 q 1263 522 1219 518 q 1356 529 1307 526 q 1382 531 1369 531 q 1408 531 1394 531 l 1463 531 q 1557 551 1529 532 q 1582 585 1565 557 q 1596 608 1590 599 q 1603 622 1601 617 q 1601 635 1601 626 q 1603 640 1603 638 q 1604 649 1603 644 q 1609 651 1607 650 q 1614 656 1611 653 q 1626 665 1622 661 q 1636 693 1632 672 q 1640 708 1639 703 q 1643 717 1642 714 q 1676 760 1658 732 q 1685 811 1676 778 q 1711 836 1696 818 q 1713 853 1711 843 q 1718 879 1715 864 l 1735 896 q 1744 907 1739 901 q 1754 919 1749 913 q 1760 936 1757 926 q 1768 957 1764 946 q 1777 980 1772 968 q 1789 1006 1782 992 q 1801 1019 1794 1011 q 1817 1040 1807 1028 q 1819 1067 1819 1054 q 1828 1103 1822 1082 q 1840 1117 1835 1110 q 1851 1133 1846 1124 q 1849 1154 1849 1147 q 1857 1165 1851 1160 l 1869 1178 q 1882 1192 1878 1186 q 1890 1201 1889 1199 q 1907 1275 1893 1228 q 1940 1311 1924 1286 q 1939 1331 1939 1314 q 1944 1342 1939 1336 q 1951 1349 1947 1344 q 1957 1356 1954 1353 q 1969 1368 1963 1360 q 1975 1378 1975 1374 q 1974 1388 1974 1381 q 1972 1400 1974 1396 q 1990 1424 1974 1407 q 2008 1447 2004 1438 l 2008 1463 q 2010 1471 2010 1467 q 2011 1482 2010 1476 q 2019 1496 2013 1488 q 2026 1504 2022 1500 q 2035 1514 2031 1508 q 2042 1522 2038 1518 q 2049 1531 2046 1526 q 2057 1546 2054 1539 q 2061 1593 2056 1563 q 2069 1603 2063 1596 q 2085 1615 2074 1607 q 2100 1628 2096 1624 q 2108 1639 2107 1635 q 2107 1651 2107 1643 q 2106 1669 2107 1663 q 2117 1679 2108 1671 q 2131 1692 2119 1683 q 2142 1710 2136 1699 q 2154 1736 2147 1721 q 2179 1781 2167 1768 q 2221 1821 2200 1792 q 2224 1849 2219 1829 q 2251 1892 2228 1865 q 2263 1904 2258 1899 q 2271 1915 2267 1910 q 2282 1931 2279 1924 q 2332 2024 2296 1965 q 2341 2030 2336 2026 q 2351 2036 2346 2033 q 2364 2044 2357 2039 q 2378 2054 2371 2049 q 2413 2108 2386 2078 q 2463 2129 2431 2110 q 2469 2165 2463 2138 q 2476 2172 2472 2168 q 2483 2182 2479 2176 q 2506 2203 2493 2193 q 2518 2213 2513 2208 q 2529 2224 2524 2218 q 2537 2232 2533 2228 q 2543 2239 2540 2236 q 2545 2246 2544 2242 q 2549 2254 2546 2250 q 2557 2274 2551 2264 q 2593 2300 2569 2288 q 2606 2307 2600 2304 q 2617 2313 2611 2310 q 2629 2322 2628 2321 q 2637 2333 2632 2328 q 2647 2346 2642 2339 q 2658 2361 2651 2353 q 2672 2379 2665 2369 q 2687 2387 2679 2382 q 2704 2399 2694 2392 q 2724 2413 2714 2406 q 2746 2429 2735 2419 q 2752 2440 2749 2435 q 2760 2453 2756 2446 q 2769 2467 2764 2460 q 2781 2483 2774 2474 q 2817 2507 2793 2490 q 2838 2522 2826 2514 q 2861 2540 2849 2531 q 2869 2561 2863 2546 q 2893 2575 2875 2567 q 2911 2603 2904 2579 q 2947 2619 2922 2606 q 2999 2682 2965 2647 q 3019 2696 3007 2690 q 3050 2708 3029 2699 q 3099 2733 3086 2724 q 3128 2758 3107 2743 q 3141 2762 3133 2760 q 3160 2769 3149 2764 l 3161 2779 q 3228 2800 3183 2785 q 3253 2817 3239 2807 q 3288 2838 3268 2826 q 3379 2858 3318 2843 q 3385 2863 3382 2861 q 3394 2868 3389 2865 q 3403 2874 3399 2871 q 3414 2879 3408 2876 q 3446 2883 3425 2881 q 3466 2886 3456 2885 q 3488 2890 3476 2888 q 3561 2915 3513 2901 q 3658 2926 3600 2922 q 3793 2929 3715 2929 m 3826 2421 l 3828 2421 q 3868 2413 3864 2421 q 3774 2385 3865 2394 q 3746 2381 3760 2382 q 3717 2379 3732 2381 q 3688 2376 3701 2378 q 3658 2374 3674 2375 l 3650 2394 l 3738 2411 q 3788 2418 3768 2418 q 3808 2420 3799 2419 q 3826 2421 3817 2421 m 3496 2374 l 3497 2375 q 3522 2367 3518 2375 q 3527 2358 3525 2361 q 3531 2353 3529 2354 q 3428 2326 3503 2335 q 3319 2306 3346 2315 q 3196 2256 3283 2288 q 3103 2222 3161 2246 l 3094 2214 q 3083 2201 3092 2210 q 3053 2189 3069 2194 q 3033 2181 3043 2186 q 3011 2171 3022 2176 q 2971 2139 3000 2158 q 2935 2135 2957 2139 q 2842 2078 2908 2125 q 2832 2067 2838 2072 q 2819 2054 2826 2061 q 2805 2040 2813 2047 q 2788 2025 2797 2033 q 2751 2006 2775 2019 q 2704 1978 2731 1993 q 2688 1961 2696 1971 q 2668 1938 2679 1951 q 2633 1894 2643 1904 q 2609 1877 2622 1888 q 2581 1853 2596 1867 q 2556 1807 2574 1836 q 2545 1795 2550 1801 q 2533 1782 2540 1789 q 2519 1767 2526 1775 q 2503 1749 2513 1758 q 2496 1732 2503 1749 q 2488 1718 2492 1718 l 2478 1718 q 2450 1665 2465 1699 q 2421 1613 2435 1628 q 2407 1604 2415 1611 q 2390 1592 2400 1597 q 2378 1567 2386 1581 q 2370 1552 2375 1560 q 2360 1535 2365 1544 q 2331 1498 2346 1519 q 2296 1449 2315 1476 q 2255 1388 2276 1421 q 2207 1317 2233 1356 q 2182 1268 2200 1299 q 2164 1260 2172 1267 q 2159 1243 2163 1253 q 2149 1218 2156 1233 q 2142 1212 2146 1215 q 2133 1204 2138 1208 q 2126 1197 2131 1201 q 2117 1186 2122 1192 q 2093 1135 2114 1171 q 2069 1128 2088 1135 q 2065 1138 2068 1129 q 2063 1144 2064 1140 q 2060 1150 2061 1147 q 2088 1215 2058 1160 q 2114 1263 2104 1246 q 2129 1285 2124 1279 q 2136 1292 2132 1288 q 2144 1301 2140 1296 q 2152 1310 2147 1306 q 2163 1321 2157 1315 q 2171 1350 2164 1331 q 2177 1368 2174 1358 q 2185 1389 2181 1378 q 2218 1431 2199 1401 l 2218 1442 q 2219 1447 2219 1444 q 2221 1457 2219 1451 l 2238 1474 q 2247 1485 2242 1479 q 2257 1497 2251 1490 q 2261 1509 2258 1503 q 2267 1522 2264 1515 q 2283 1556 2272 1536 q 2346 1618 2306 1574 q 2354 1639 2347 1626 q 2360 1651 2357 1644 q 2365 1665 2363 1658 q 2386 1682 2374 1671 q 2399 1694 2392 1688 q 2413 1707 2406 1700 q 2419 1726 2415 1715 q 2431 1749 2424 1736 q 2481 1811 2449 1767 q 2482 1818 2482 1814 q 2485 1826 2482 1822 q 2492 1843 2485 1832 q 2501 1847 2497 1846 q 2508 1850 2504 1849 q 2514 1853 2511 1851 q 2520 1860 2517 1856 q 2528 1871 2524 1865 q 2535 1882 2531 1876 q 2546 1894 2540 1888 q 2553 1900 2549 1897 q 2564 1906 2558 1903 q 2589 1921 2572 1908 q 2593 1928 2590 1924 q 2599 1939 2596 1933 q 2606 1950 2601 1944 q 2615 1963 2610 1956 q 2633 1971 2625 1965 q 2644 1976 2639 1974 q 2656 1982 2649 1979 q 2663 1993 2658 1988 q 2674 2006 2668 1999 q 2686 2019 2679 2013 q 2700 2035 2693 2026 q 2713 2042 2706 2038 q 2729 2053 2719 2047 q 2747 2064 2738 2057 q 2768 2078 2757 2071 q 2774 2088 2771 2083 q 2782 2097 2778 2093 q 2801 2103 2789 2100 q 2829 2114 2814 2107 q 2900 2164 2851 2132 q 2926 2174 2906 2167 q 2940 2178 2935 2176 q 2949 2181 2946 2179 q 2957 2186 2953 2185 q 2969 2194 2963 2188 q 2996 2200 2975 2200 q 3015 2214 3003 2200 q 3024 2224 3021 2221 q 3029 2228 3028 2226 q 3042 2233 3035 2231 q 3058 2239 3049 2236 q 3076 2245 3067 2242 q 3097 2254 3086 2249 q 3129 2279 3104 2261 l 3146 2279 q 3179 2294 3156 2279 q 3191 2301 3186 2299 q 3200 2307 3196 2304 q 3207 2310 3204 2310 q 3213 2313 3210 2311 q 3240 2315 3226 2315 q 3256 2318 3247 2317 q 3276 2322 3265 2319 q 3285 2329 3281 2326 q 3297 2338 3290 2331 q 3322 2340 3308 2340 q 3357 2347 3343 2340 q 3367 2352 3363 2350 q 3376 2354 3372 2354 q 3383 2357 3381 2357 q 3389 2358 3386 2357 q 3439 2357 3386 2357 q 3468 2365 3451 2357 q 3496 2374 3485 2374 z "},"\u0006":{"ha":417,"x_min":-836,"x_max":499,"o":"m 414 593 q 384 568 399 581 q 356 542 369 556 q 350 533 353 536 q 344 526 347 529 q 314 524 324 522 q 246 482 290 519 q 193 421 204 444 l 181 414 q 172 397 175 404 q 167 385 168 390 q 149 369 157 375 q 128 330 138 347 q 114 301 119 313 q 85 275 113 299 q 65 243 65 260 q 68 210 69 213 q 51 183 60 193 q 39 103 39 151 q 51 78 39 92 q 64 40 64 63 q 49 -19 64 3 q 17 -42 32 -33 q 8 -54 11 -49 q 1 -64 4 -60 q -38 -93 -21 -81 q -67 -114 -56 -106 q -74 -122 -69 -117 q -83 -133 -78 -126 q -100 -150 -94 -146 q -143 -181 -124 -167 q -179 -206 -162 -194 q -190 -225 -189 -219 q -206 -239 -192 -229 q -225 -260 -219 -246 q -299 -314 -243 -299 q -311 -349 -303 -344 q -337 -353 -331 -353 q -382 -385 -354 -357 l -424 -426 q -464 -453 -451 -446 q -522 -512 -499 -486 q -561 -556 -546 -537 q -644 -636 -639 -622 q -654 -664 -651 -653 q -678 -678 -660 -672 q -699 -690 -694 -685 q -708 -710 -706 -701 q -711 -725 -710 -718 q -747 -761 -731 -744 q -776 -789 -762 -778 q -786 -815 -783 -804 q -802 -832 -796 -825 q -814 -843 -808 -839 q -821 -879 -821 -871 l -832 -890 q -836 -921 -836 -893 q -831 -982 -836 -971 q -771 -1026 -797 -1015 q -696 -1035 -749 -1035 q -654 -1026 -675 -1035 q -633 -1018 -643 -1022 q -614 -1010 -624 -1014 q -542 -1006 -567 -1004 q -533 -1001 -539 -1004 q -518 -992 -526 -997 q -487 -981 -500 -981 q -411 -954 -478 -981 q -360 -934 -379 -942 q -336 -924 -342 -926 q -265 -869 -294 -893 q -256 -863 -262 -867 q -237 -854 -249 -860 q -208 -835 -215 -843 q -197 -810 -204 -831 q -164 -776 -192 -797 q -122 -747 -137 -758 l -107 -732 q -82 -719 -103 -728 q -58 -703 -64 -712 q -47 -665 -51 -681 q -39 -637 -42 -649 q -26 -618 -32 -626 q -15 -604 -19 -610 q 1 -549 0 -550 q 28 -515 17 -529 q 49 -492 40 -501 q 64 -440 63 -456 q 83 -424 65 -437 q 94 -403 94 -417 q 90 -389 94 -400 q 88 -375 88 -378 q 97 -356 88 -367 l 97 -349 l 97 -321 q 131 -237 110 -307 q 168 -167 149 -178 q 176 -151 171 -162 q 188 -122 181 -140 q 201 -78 201 -89 q 211 -1 201 -10 q 240 33 235 22 q 253 89 250 68 q 330 156 292 124 q 404 218 368 188 q 403 238 403 222 l 385 238 q 360 229 376 238 q 333 222 342 222 q 321 236 321 222 q 325 253 321 246 q 338 264 338 263 q 347 299 344 283 q 356 308 353 304 q 363 315 360 313 q 372 350 369 335 q 385 365 379 358 q 394 374 390 371 q 399 388 399 378 q 408 401 401 399 l 408 404 q 458 413 414 408 q 490 440 490 417 l 490 461 l 497 472 l 499 479 q 478 519 499 500 q 453 542 463 535 q 443 551 444 549 q 431 585 432 574 q 414 593 419 590 m 244 372 l 249 371 l 260 372 q 271 336 271 350 q 258 304 271 322 q 247 279 247 285 l 247 246 q 244 238 246 243 q 236 225 242 232 q 226 203 226 214 q 196 144 226 179 q 142 108 164 108 q 103 133 103 108 q 107 147 103 139 q 110 158 110 156 q 126 211 110 192 q 142 239 142 231 q 178 317 142 286 q 226 358 210 344 q 243 372 242 371 l 244 372 m -28 -146 q 44 -85 -21 -149 q 115 -24 110 -24 q 135 -49 135 -24 q 122 -97 135 -75 q 115 -110 119 -104 q 108 -121 111 -115 q 103 -162 107 -142 q 93 -206 100 -183 q 76 -233 90 -212 q 64 -262 64 -253 q 60 -285 64 -272 q 56 -303 56 -297 q 43 -343 56 -329 q 32 -372 32 -358 q 24 -415 32 -407 q 7 -437 13 -425 q 3 -476 3 -465 q -10 -493 -4 -486 q -19 -503 -15 -500 q -36 -551 -32 -533 q -58 -576 -51 -571 q -78 -619 -67 -585 q -99 -662 -89 -653 q -144 -706 -125 -689 q -175 -731 -164 -722 q -217 -772 -199 -754 q -247 -804 -236 -790 q -278 -818 -265 -812 q -301 -826 -292 -824 q -331 -849 -325 -843 q -356 -851 -346 -850 q -374 -851 -367 -851 q -415 -878 -406 -869 q -465 -890 -449 -889 q -478 -896 -468 -892 q -507 -910 -487 -900 q -551 -924 -533 -924 q -572 -924 -560 -924 q -600 -925 -585 -924 q -628 -926 -615 -926 q -647 -926 -640 -926 q -718 -842 -718 -926 q -701 -792 -718 -811 q -683 -767 -690 -772 q -630 -699 -651 -725 q -597 -664 -608 -674 q -570 -626 -582 -642 q -551 -599 -558 -610 q -493 -542 -531 -578 q -400 -457 -456 -507 q -324 -408 -357 -429 q -268 -371 -292 -386 q -256 -358 -262 -367 q -240 -337 -250 -350 q -210 -303 -224 -312 q -201 -295 -207 -300 q -187 -283 -194 -290 q -167 -265 -175 -271 q -151 -260 -157 -262 q -139 -256 -144 -257 q -82 -201 -110 -228 q -28 -146 -54 -174 z "},"\b":{"ha":682,"x_min":-40,"x_max":733,"o":"m 253 543 q 209 532 228 536 q 176 525 190 528 q 150 506 161 514 q 132 493 139 499 q 120 485 125 488 q 113 479 115 482 q 104 411 104 439 l 138 408 q 138 397 138 404 q 139 383 138 392 q 140 368 140 375 q 140 360 140 363 q 132 338 140 350 q 122 323 125 328 q 119 318 119 318 q 117 308 119 317 q 110 283 114 300 q 103 265 107 272 q 94 250 99 257 q 15 160 53 197 l 11 160 l 11 154 q -19 126 -6 147 q -40 89 -26 118 l -37 79 q 8 96 -7 92 q 22 32 18 88 q 61 -12 25 -12 q 103 6 81 -12 q 140 33 135 31 q 167 42 156 39 q 185 47 178 44 q 203 69 190 51 q 226 83 211 83 q 249 46 242 83 q 288 10 253 10 q 318 17 308 11 q 334 28 328 24 q 344 36 340 33 q 358 45 347 39 q 383 63 368 51 q 421 92 406 76 q 432 103 428 99 q 439 111 436 108 q 476 118 453 118 q 486 117 482 118 q 494 114 494 114 l 501 108 l 500 106 l 504 96 q 494 51 494 86 q 521 13 494 13 l 524 13 q 543 25 529 15 q 581 51 557 35 q 633 82 619 81 q 661 101 654 83 l 665 139 l 653 140 q 615 124 640 125 l 613 124 l 614 125 q 586 138 586 132 q 592 157 586 147 q 617 238 610 229 q 640 257 619 240 q 656 281 656 269 q 668 328 656 300 q 697 364 679 353 q 707 408 707 389 q 712 424 708 414 q 722 451 715 435 q 733 494 733 478 q 729 517 733 506 l 721 518 q 679 492 685 518 q 671 486 676 489 q 657 481 665 483 q 636 467 643 476 q 620 389 628 426 q 606 315 613 351 l 565 269 l 560 269 q 543 240 550 253 q 533 218 536 228 q 494 190 511 201 q 465 174 478 179 q 452 159 458 165 q 443 147 446 153 q 408 132 440 144 q 372 121 375 121 q 351 150 361 121 l 351 156 l 353 154 q 372 215 367 207 q 381 227 378 222 q 388 235 385 232 q 397 275 394 258 q 418 297 403 283 q 438 318 433 311 q 444 345 442 333 q 447 364 446 357 q 463 386 449 369 q 475 415 475 399 q 494 460 475 432 q 513 508 513 489 q 508 526 513 519 q 505 531 506 529 q 504 532 504 532 q 432 490 456 511 q 385 428 419 478 q 365 392 365 400 q 376 363 365 382 q 386 333 386 340 q 379 315 386 325 q 367 300 369 306 q 360 267 361 288 q 350 233 358 246 q 282 172 340 218 q 244 154 261 158 q 226 138 233 144 q 214 125 219 131 q 104 79 181 97 q 86 114 86 106 q 104 151 86 125 q 117 168 111 160 q 129 186 122 176 q 150 243 146 222 q 182 279 171 268 q 192 328 192 308 q 213 354 206 349 q 219 374 215 364 q 228 394 224 383 q 250 432 236 417 q 258 439 254 435 q 267 447 263 443 q 274 468 275 456 l 274 508 q 253 544 278 544 l 253 543 z "},"\n":{"ha":694,"x_min":0,"x_max":0,"o":""},"\u000b":{"ha":694,"x_min":0,"x_max":0,"o":""},"\f":{"ha":694,"x_min":0,"x_max":0,"o":""},"\r":{"ha":694,"x_min":0,"x_max":0,"o":""},"\u0019":{"ha":578,"x_min":0,"x_max":833,"o":"m 642 1157 q 594 1128 614 1140 q 560 1106 574 1115 q 547 1086 553 1094 q 538 1071 540 1078 q 526 1063 538 1071 q 492 1036 515 1054 q 458 985 465 1018 q 454 951 456 961 q 439 938 453 942 q 421 929 425 933 q 413 908 414 914 q 375 842 393 882 q 339 749 357 801 q 332 709 335 726 q 328 679 329 692 q 307 619 325 654 q 285 565 289 586 q 278 539 282 551 q 271 513 275 526 q 244 468 265 489 l 242 457 q 240 436 240 446 q 240 421 240 428 l 238 414 q 218 386 218 388 q 219 372 217 385 q 217 361 222 364 q 176 303 193 339 q 165 265 160 265 q 158 218 161 238 q 153 189 156 199 l 153 186 q 139 147 144 157 q 137 120 138 132 q 138 101 136 108 q 117 67 136 90 q 97 31 99 42 q 97 18 96 25 q 99 0 97 11 q 99 -33 100 -21 q 43 -147 86 -86 q 1 -203 1 -208 q 15 -250 0 -210 q 81 -237 79 -239 q 100 -217 90 -226 q 121 -196 110 -207 l 131 -192 q 136 -176 133 -185 q 147 -136 143 -150 q 151 -119 150 -122 q 190 -72 157 -106 l 200 -69 q 222 -21 210 -56 q 235 9 229 -3 q 246 28 240 21 l 243 88 q 255 121 250 104 q 267 156 260 138 q 275 185 271 168 q 282 224 279 201 q 292 242 288 235 q 299 256 296 250 l 303 256 l 306 263 q 308 325 310 307 q 344 454 313 382 q 360 476 347 461 q 375 503 372 492 q 375 524 375 515 q 374 540 375 533 q 384 566 379 556 q 392 583 389 576 q 400 664 400 635 q 426 757 411 715 q 460 832 442 799 q 481 861 474 850 q 483 874 482 868 q 486 888 485 881 q 506 910 489 894 l 508 918 q 510 937 510 929 q 510 950 511 944 q 539 994 525 978 q 549 1020 544 1010 q 556 1038 553 1031 q 600 1085 563 1051 q 658 1153 640 1121 l 642 1157 m 828 1271 q 817 1311 833 1293 q 778 1328 801 1328 q 744 1322 765 1328 q 713 1318 724 1318 q 688 1325 704 1318 q 669 1333 674 1332 l 658 1333 q 597 1304 604 1311 q 626 1289 592 1296 q 678 1279 656 1282 q 715 1275 700 1276 l 717 1260 q 690 1229 707 1258 q 671 1189 672 1201 q 669 1176 669 1186 l 676 1168 q 749 1215 738 1190 q 772 1226 760 1221 q 797 1239 783 1232 q 826 1271 822 1249 l 828 1271 z "},"\u001a":{"ha":665,"x_min":-754,"x_max":869,"o":"m 667 713 q 638 690 654 713 q 622 657 621 668 l 625 643 q 672 614 654 614 l 682 615 q 693 626 688 621 q 706 636 699 631 q 717 658 718 647 q 700 694 715 675 q 667 713 686 713 m 640 533 q 593 493 603 513 q 580 465 586 479 q 567 436 574 451 l 565 433 q 465 438 503 435 l 421 444 l 342 436 q 321 435 338 435 q 258 479 263 435 q 281 529 257 499 q 314 572 313 567 q 322 608 319 594 q 338 635 332 624 q 350 653 344 646 q 399 738 376 729 q 433 758 428 749 q 454 782 442 776 q 466 786 461 785 q 475 789 471 788 q 488 801 482 796 q 496 808 493 806 q 523 819 511 815 q 543 824 535 822 l 549 831 l 554 831 q 593 842 579 831 q 622 853 607 853 q 644 851 632 856 q 656 851 651 851 q 664 850 661 850 q 706 844 701 850 q 731 828 715 833 q 754 824 744 825 q 771 821 764 822 q 789 782 774 819 q 799 753 796 764 q 804 739 803 743 q 797 722 804 733 q 793 706 790 711 q 815 686 793 686 q 839 706 817 686 q 855 720 850 715 q 861 726 860 725 q 863 778 869 742 q 851 836 863 815 q 819 875 849 843 q 783 911 786 910 q 742 919 756 919 q 724 926 732 922 q 707 933 715 931 q 663 940 689 940 q 624 931 642 940 q 599 922 604 922 q 543 901 560 922 q 507 865 518 871 q 479 853 492 858 q 457 846 467 849 q 424 813 436 833 q 401 778 407 783 q 364 756 381 763 q 346 728 353 740 q 336 707 339 717 q 317 687 325 696 q 301 672 308 678 q 290 649 296 664 q 285 635 288 642 q 279 626 282 629 q 269 617 274 621 q 261 611 264 614 q 246 563 247 578 q 231 544 238 551 q 218 532 224 538 q 175 450 192 485 q 121 428 174 447 q 78 392 78 411 q 97 346 78 385 q 114 339 100 343 q 128 326 128 335 l 129 317 l 122 314 q 114 268 115 285 l 110 268 l 110 260 q 108 228 110 242 q 101 204 107 215 q 92 172 90 183 q 92 147 93 153 l 86 146 q 71 92 71 100 q 60 54 71 71 q 50 24 49 33 q 39 -31 51 7 q 26 -66 31 -53 q 21 -82 22 -79 q 19 -108 19 -97 q 18 -128 18 -119 q -11 -168 0 -157 q -24 -206 -18 -179 q -37 -246 -29 -232 q -58 -297 -35 -265 q -101 -342 -81 -326 q -135 -360 -121 -356 q -161 -400 -156 -387 q -199 -417 -175 -407 q -258 -439 -224 -426 q -362 -468 -340 -468 q -369 -468 -365 -468 q -381 -465 -374 -468 q -391 -465 -386 -465 q -399 -464 -396 -464 q -426 -475 -411 -464 q -453 -485 -440 -485 q -496 -456 -474 -485 q -532 -414 -524 -418 q -581 -399 -565 -400 l -585 -390 q -621 -365 -604 -378 q -653 -342 -637 -353 l -657 -336 l -664 -335 q -722 -361 -718 -357 q -729 -389 -729 -382 l -737 -393 q -740 -403 -740 -396 q -747 -425 -739 -414 q -754 -442 -754 -436 l -750 -487 q -711 -533 -750 -494 q -665 -574 -674 -571 q -636 -578 -647 -578 q -631 -580 -633 -579 q -625 -583 -628 -581 q -610 -587 -619 -587 q -597 -583 -606 -587 q -583 -581 -586 -581 q -572 -583 -583 -581 q -561 -585 -564 -586 l -556 -578 l -547 -578 q -496 -565 -524 -576 q -460 -557 -469 -557 q -439 -559 -447 -558 q -428 -558 -431 -560 l -422 -553 l -412 -551 q -392 -556 -407 -551 q -372 -560 -379 -560 q -350 -549 -361 -560 q -331 -539 -340 -539 q -304 -540 -299 -539 l -297 -533 q -226 -507 -246 -518 q -202 -489 -215 -500 q -172 -458 -189 -478 q -162 -447 -167 -451 q -156 -439 -158 -442 q -147 -433 -153 -436 q -131 -426 -140 -429 q -103 -414 -111 -419 q -94 -397 -97 -404 q -89 -385 -90 -390 q -69 -365 -78 -374 q -53 -353 -60 -357 q -29 -317 -39 -332 q -12 -290 -19 -301 q 6 -275 -3 -281 q 11 -251 11 -262 q 20 -246 17 -249 q 26 -242 24 -243 q 42 -196 40 -212 q 56 -175 51 -179 q 64 -117 61 -136 q 83 -94 65 -112 q 96 -69 97 -81 q 103 -29 93 -39 q 118 -1 117 -14 q 121 19 121 10 q 122 39 121 29 q 146 74 124 51 l 146 76 l 150 81 l 150 89 q 149 129 146 122 q 163 142 151 133 q 174 157 176 150 l 171 175 q 185 203 171 176 q 197 236 197 228 q 201 329 193 300 q 213 342 207 336 q 224 354 218 347 q 254 363 233 363 q 328 365 317 363 q 414 383 378 383 q 431 383 417 383 q 472 381 446 382 q 522 378 503 379 q 551 378 542 378 q 539 350 546 363 q 537 326 538 336 q 536 308 536 315 q 510 274 522 289 q 489 249 499 260 q 469 217 478 231 q 453 194 460 204 q 436 153 440 167 q 421 142 424 143 q 419 101 419 115 q 419 81 418 86 q 443 28 421 64 q 464 11 449 17 q 478 7 471 8 q 492 3 485 6 q 501 -6 496 -1 q 515 -11 507 -11 q 550 8 533 -11 q 581 38 575 36 q 590 42 583 39 q 611 49 597 44 q 636 65 629 54 q 642 100 642 86 q 629 104 633 104 q 618 94 624 104 q 613 83 614 85 q 567 72 597 72 q 522 106 526 72 q 544 175 522 114 q 571 246 567 238 q 586 273 578 260 q 603 300 594 286 q 621 336 615 321 q 628 361 626 351 l 638 382 q 642 413 642 403 q 664 444 643 422 q 683 475 683 467 q 669 511 683 489 q 642 533 656 533 l 640 533 z "},"\u001b":{"ha":767,"x_min":-754,"x_max":1514,"o":"m 693 465 q 678 460 683 460 q 603 459 638 460 q 540 457 569 458 l 424 451 l 342 436 q 321 435 338 435 q 258 479 263 435 q 281 529 257 499 q 314 572 313 567 q 322 608 319 594 q 338 635 332 624 q 350 653 344 646 q 399 738 376 729 q 433 758 428 749 q 454 782 442 776 q 466 786 461 785 q 475 789 471 788 q 488 801 482 796 q 496 808 493 806 q 523 819 511 815 q 543 824 535 822 l 549 831 l 554 831 q 593 842 579 831 q 622 853 607 853 q 644 851 632 856 q 656 851 651 851 q 664 850 661 850 q 706 844 701 850 q 731 828 715 833 q 754 824 744 825 q 771 821 764 822 q 799 753 779 815 q 783 731 788 742 q 782 718 782 728 q 781 711 781 714 q 779 706 781 708 q 767 676 772 689 q 756 656 761 664 q 739 582 743 608 q 732 569 735 575 q 726 560 729 563 q 718 522 719 536 q 706 506 711 513 q 699 496 701 500 q 695 478 696 485 q 693 465 694 471 m 1375 1374 q 1283 1349 1329 1374 q 1211 1285 1238 1324 l 1206 1285 q 1176 1265 1197 1267 q 1153 1262 1163 1263 q 1142 1258 1144 1261 q 1119 1232 1140 1258 q 1099 1211 1108 1219 q 1083 1197 1090 1203 q 1083 1194 1085 1196 q 1081 1194 1082 1193 q 1072 1169 1074 1178 q 1053 1160 1061 1164 q 1039 1156 1046 1157 q 1018 1111 1019 1128 q 974 1075 990 1085 q 958 1051 964 1061 q 947 1033 951 1040 q 930 1020 938 1026 q 917 1011 922 1014 q 909 984 911 996 q 906 965 907 972 q 885 943 901 958 q 865 921 868 929 q 858 874 858 886 q 844 847 850 854 q 783 911 793 906 q 742 919 756 917 q 724 926 732 922 q 707 933 715 931 q 663 940 689 940 q 624 931 642 940 q 599 922 604 922 q 543 901 560 922 q 507 865 518 871 q 479 853 492 858 q 457 846 467 849 q 424 813 436 833 q 401 778 407 783 q 364 756 381 763 q 346 728 353 740 q 336 707 339 717 q 317 687 325 696 q 301 672 308 678 q 290 649 296 664 q 285 635 288 642 q 279 626 282 629 q 269 617 274 621 q 261 611 264 614 q 246 563 247 578 q 231 544 238 551 q 218 532 224 538 q 175 450 192 485 q 121 428 174 447 q 78 392 78 411 q 97 346 78 385 q 114 339 100 343 q 128 326 128 335 l 129 317 l 122 314 q 114 268 115 285 l 110 268 l 110 260 q 108 228 110 242 q 101 204 107 215 q 92 172 90 183 q 92 147 93 153 l 86 146 q 71 92 71 100 q 60 54 71 71 q 50 24 49 33 q 39 -31 51 7 q 26 -66 31 -53 q 21 -82 22 -79 q 19 -108 19 -97 q 18 -128 18 -119 q -11 -168 0 -157 q -24 -206 -18 -179 q -37 -246 -29 -232 q -58 -297 -35 -265 q -101 -342 -81 -326 q -135 -360 -121 -356 q -161 -400 -156 -387 q -199 -417 -175 -407 q -258 -439 -224 -426 q -362 -468 -340 -468 q -369 -468 -365 -468 q -381 -465 -374 -468 q -391 -465 -386 -465 q -399 -464 -396 -464 q -426 -475 -411 -464 q -453 -485 -440 -485 q -496 -456 -474 -485 q -532 -414 -524 -418 q -581 -399 -565 -400 l -585 -390 q -621 -365 -604 -378 q -653 -342 -637 -353 l -657 -336 l -664 -335 q -722 -361 -718 -357 q -729 -389 -729 -382 l -737 -393 q -740 -403 -740 -396 q -747 -425 -739 -414 q -754 -442 -754 -436 l -750 -487 q -711 -533 -750 -494 q -665 -574 -674 -571 q -636 -578 -647 -578 q -631 -580 -633 -579 q -625 -583 -628 -581 q -610 -587 -619 -587 q -597 -583 -606 -587 q -583 -581 -586 -581 q -572 -583 -583 -581 q -561 -585 -564 -586 l -556 -578 l -547 -578 q -496 -565 -524 -576 q -460 -557 -469 -557 q -439 -559 -447 -558 q -428 -558 -431 -560 l -422 -553 l -412 -551 q -392 -556 -407 -551 q -372 -560 -379 -560 q -350 -549 -361 -560 q -331 -539 -340 -539 q -304 -540 -299 -539 l -297 -533 q -226 -507 -246 -518 q -202 -489 -215 -500 q -172 -458 -189 -478 q -162 -447 -167 -451 q -156 -439 -158 -442 q -147 -433 -153 -436 q -131 -426 -140 -429 q -103 -414 -111 -419 q -94 -397 -97 -404 q -89 -385 -90 -390 q -69 -365 -78 -374 q -53 -353 -60 -357 q -29 -317 -39 -332 q -12 -290 -19 -301 q 6 -275 -3 -281 q 11 -251 11 -262 q 20 -246 17 -249 q 26 -242 24 -243 q 42 -196 40 -212 q 56 -175 51 -179 q 64 -117 61 -136 q 83 -94 65 -112 q 96 -69 97 -81 q 103 -29 93 -39 q 118 -1 117 -14 q 121 19 121 10 q 122 39 121 29 q 146 74 124 51 l 146 76 l 150 81 l 150 89 q 149 129 146 122 q 163 142 151 133 q 174 157 176 150 l 171 175 q 185 203 171 176 q 197 236 197 228 q 201 329 193 300 q 213 342 207 336 q 224 354 218 347 q 254 363 233 363 q 331 367 319 363 q 353 372 336 368 q 397 382 369 375 q 467 393 457 393 q 560 397 474 393 q 634 401 607 400 q 669 403 661 403 q 649 365 667 383 q 631 331 631 347 l 599 233 q 579 210 588 217 q 574 181 576 193 q 572 158 572 168 q 547 131 556 138 q 518 50 525 76 q 506 32 517 44 q 496 10 496 21 l 504 -15 q 517 -17 511 -17 q 525 -18 522 -18 q 575 6 558 -6 q 599 10 589 8 q 617 13 610 11 q 629 22 618 14 q 660 46 640 31 q 704 83 701 78 q 700 104 701 97 q 678 111 682 111 q 658 107 671 111 q 640 103 646 103 q 622 131 622 103 q 635 169 622 144 q 649 210 646 190 q 650 222 650 217 q 650 233 650 229 l 657 238 q 681 313 679 292 l 688 315 q 713 372 713 353 q 719 408 713 401 q 739 431 736 425 q 743 445 742 439 q 746 457 744 451 q 754 469 747 461 q 761 489 761 479 q 765 506 761 499 q 773 515 771 511 q 776 519 775 518 q 796 588 792 567 q 807 606 803 599 q 814 618 811 613 q 816 636 815 629 q 817 649 817 643 q 840 683 832 675 q 843 711 843 694 q 863 728 858 722 q 865 756 865 736 q 882 771 881 767 q 887 794 885 785 q 889 810 889 803 q 901 822 896 817 q 910 829 906 826 q 932 881 924 858 q 946 922 940 904 q 967 944 949 931 q 986 971 983 957 q 1006 1011 989 985 q 1032 1044 1022 1039 l 1032 1050 q 1065 1068 1043 1061 q 1084 1073 1075 1071 q 1103 1078 1093 1075 q 1123 1090 1114 1085 q 1138 1100 1132 1096 q 1228 1131 1146 1107 q 1318 1153 1304 1153 q 1338 1149 1325 1153 q 1356 1144 1350 1144 l 1358 1146 q 1383 1154 1375 1154 q 1511 1189 1450 1153 q 1513 1208 1513 1200 q 1514 1219 1514 1217 q 1506 1261 1514 1249 q 1488 1292 1490 1285 q 1492 1307 1492 1300 q 1475 1322 1492 1318 q 1450 1329 1450 1329 q 1375 1375 1418 1375 l 1375 1374 z "},"\u001c":{"ha":694,"x_min":0,"x_max":0,"o":""},"\u001d":{"ha":694,"x_min":0,"x_max":0,"o":""},"\u001e":{"ha":694,"x_min":0,"x_max":0,"o":""},"\u001f":{"ha":694,"x_min":0,"x_max":0,"o":""}," ":{"ha":572,"x_min":0,"x_max":0,"o":""},"!":{"ha":653,"x_min":110,"x_max":675,"o":"m 675 1104 q 650 1131 674 1131 q 600 1113 628 1131 q 567 1086 571 1093 q 553 1036 564 1081 q 528 990 546 1007 l 524 979 q 524 961 522 974 q 522 942 524 946 l 519 936 q 500 908 500 910 q 501 894 499 907 q 499 883 504 886 q 458 824 474 858 q 447 786 442 786 q 440 739 443 758 q 435 710 438 719 l 435 707 q 427 685 431 694 q 421 669 424 676 q 419 642 419 654 q 419 624 418 631 q 399 588 417 610 q 379 551 381 563 q 378 540 378 547 q 381 522 379 533 q 381 489 382 503 q 326 374 369 436 q 285 318 285 313 q 297 272 282 307 q 363 285 361 283 q 382 306 372 296 q 403 326 392 315 l 413 329 q 416 339 415 335 q 418 346 417 343 q 428 386 425 372 q 433 403 432 400 q 472 450 439 417 l 482 453 q 504 501 492 467 q 517 530 511 518 q 528 549 522 542 l 526 610 q 564 744 560 718 l 581 778 l 585 776 l 588 785 q 592 851 593 828 q 626 976 599 914 q 642 999 629 983 q 657 1025 654 1014 q 657 1046 657 1038 q 656 1063 657 1056 q 659 1071 657 1065 q 667 1083 661 1076 q 674 1104 675 1097 l 675 1104 m 232 165 q 249 169 242 169 q 283 143 274 169 l 282 146 l 286 143 q 285 110 289 115 q 269 85 272 93 q 271 53 267 78 q 257 19 272 35 q 238 4 244 11 q 233 -3 235 1 q 228 -10 231 -7 q 168 -39 218 -19 q 160 -40 165 -40 q 119 -22 125 -40 q 114 8 110 -4 q 116 29 115 19 q 115 46 117 39 l 121 50 q 163 104 147 88 q 173 119 168 111 q 185 135 178 128 q 232 164 194 149 l 232 165 z "},"\"":{"ha":586,"x_min":85,"x_max":557,"o":"m 163 953 q 118 881 146 908 q 89 844 92 854 l 85 832 l 96 826 q 140 851 121 835 q 165 869 160 868 q 185 869 178 872 q 220 885 204 876 q 250 904 236 894 q 272 931 263 919 q 286 951 281 942 q 298 960 293 957 q 306 965 303 963 q 319 999 321 981 q 319 1031 318 1025 q 335 1057 321 1036 q 335 1090 336 1063 l 331 1092 l 331 1090 q 297 1114 319 1114 q 281 1111 286 1114 q 232 1081 243 1097 q 221 1065 226 1074 q 211 1050 215 1057 q 189 1010 194 1024 l 190 983 q 161 954 174 964 l 163 953 m 383 954 q 339 882 367 910 q 310 846 313 856 l 306 833 l 317 828 q 361 853 342 836 q 386 871 381 869 q 406 871 399 874 q 441 887 425 878 q 471 906 457 896 q 492 932 483 921 q 507 953 501 943 q 519 961 514 958 q 526 967 524 964 q 540 1000 542 982 q 540 1032 539 1026 q 556 1058 542 1038 q 556 1092 557 1064 l 551 1093 l 551 1092 q 518 1115 540 1115 q 501 1113 507 1115 q 453 1082 464 1099 q 442 1067 447 1075 q 432 1051 436 1058 q 410 1011 415 1025 l 411 985 q 382 956 394 965 l 383 954 z "},"#":{"ha":556,"x_min":29,"x_max":658,"o":"m 354 456 l 349 456 q 333 465 343 464 q 283 450 308 451 q 285 472 285 461 q 286 493 286 483 l 285 494 q 289 503 282 500 l 292 504 q 301 526 308 515 l 303 528 l 306 529 q 321 560 318 547 q 326 576 324 571 q 328 581 328 581 l 340 585 l 342 583 q 360 579 351 579 q 381 586 369 579 q 389 582 385 582 l 389 557 q 378 536 386 543 l 375 535 q 369 522 372 531 q 367 514 369 524 q 363 485 365 504 l 351 474 q 353 460 349 465 l 353 458 q 354 454 354 457 l 354 456 m 468 632 q 464 644 472 638 l 464 647 l 463 647 l 461 649 l 465 653 l 467 653 q 469 674 476 658 l 468 676 q 472 685 465 682 l 475 685 q 486 707 492 696 l 486 708 l 489 711 q 504 742 501 729 q 526 779 519 774 q 521 806 531 790 q 503 822 513 822 q 479 806 496 822 q 463 783 464 789 q 463 771 460 779 q 457 763 463 767 l 454 760 q 440 736 436 750 l 442 733 q 443 728 443 731 q 440 724 442 726 q 436 718 439 721 q 431 708 433 714 q 432 697 431 704 q 428 689 432 690 l 425 686 q 413 669 418 679 q 381 625 421 625 l 381 628 q 378 629 379 629 l 375 631 q 363 636 371 636 q 346 631 358 632 q 367 692 356 658 q 394 764 379 725 q 389 789 399 772 q 371 806 381 806 q 347 789 364 806 q 331 767 332 772 q 331 754 328 763 q 325 746 331 750 l 322 743 q 278 632 313 738 q 274 633 276 633 q 261 631 267 633 q 254 630 257 631 q 249 629 251 629 q 247 631 247 631 q 247 632 247 632 l 246 632 q 235 635 240 635 l 217 618 q 217 581 213 603 q 235 554 222 554 q 257 561 246 554 l 257 553 l 258 550 q 260 544 260 547 q 257 540 258 543 q 253 535 256 538 q 247 525 250 531 q 247 514 244 522 q 243 506 247 507 l 240 504 q 229 488 233 497 q 197 443 238 443 l 193 447 l 192 449 q 178 454 186 454 q 157 449 167 451 q 139 444 147 446 l 131 451 q 115 446 122 451 q 107 442 108 442 l 104 444 q 90 450 99 450 q 85 451 88 451 q 76 450 82 450 q 65 447 71 447 l 64 449 l 61 450 q 51 451 60 451 l 33 436 q 33 397 29 419 q 51 371 39 371 q 92 389 68 374 l 96 392 l 99 392 q 124 394 115 392 l 128 397 l 133 397 q 138 396 135 396 l 176 396 q 197 403 186 396 q 206 399 201 399 q 204 379 204 394 q 193 353 204 361 l 192 350 q 185 339 188 349 q 183 330 185 340 q 178 300 181 319 l 167 289 q 168 276 164 282 l 169 275 q 168 269 171 272 q 151 238 154 256 q 144 222 149 226 q 140 217 142 219 q 138 211 139 214 l 153 196 q 228 233 217 206 q 222 268 232 249 l 222 272 q 226 301 228 293 l 228 303 q 233 328 233 313 l 233 331 l 238 332 q 246 368 253 356 q 256 381 254 376 l 257 390 q 263 399 261 394 q 269 403 264 403 q 296 407 281 399 l 297 407 l 297 404 q 306 400 301 400 q 319 406 313 400 q 329 411 326 411 l 331 411 l 331 408 l 335 404 q 310 304 314 335 q 288 238 294 247 q 263 168 274 204 l 276 151 q 350 188 353 161 q 361 238 349 199 q 374 290 374 275 q 371 304 374 296 l 392 397 l 400 397 q 410 393 403 397 q 422 389 415 389 q 451 403 432 389 q 474 426 472 419 q 460 443 475 429 q 440 454 444 454 q 431 451 439 454 q 424 449 422 449 l 422 450 l 421 451 q 408 463 414 463 q 410 483 413 472 l 411 485 q 417 511 417 494 l 417 514 l 421 515 q 429 550 435 538 q 440 564 439 560 l 440 572 q 446 581 444 576 q 453 585 447 585 q 479 589 464 581 l 481 589 l 482 586 q 489 583 485 583 q 503 588 494 582 q 513 593 510 593 l 514 593 l 515 590 q 526 579 518 579 l 535 583 l 539 586 l 539 585 q 554 578 546 578 q 568 581 561 578 q 577 581 574 581 q 583 581 581 582 q 593 576 586 581 q 606 572 599 572 q 635 585 614 569 q 657 608 656 601 q 643 625 658 611 q 624 636 628 636 q 614 633 622 636 q 607 631 606 631 l 606 632 l 604 635 q 593 646 601 646 q 579 639 585 643 q 569 635 572 635 q 551 639 556 638 q 550 640 546 640 q 547 640 549 640 q 542 639 544 639 q 532 636 538 636 l 532 638 q 517 646 526 643 q 490 637 503 640 q 467 632 478 633 l 468 632 z "},"$":{"ha":694,"x_min":0,"x_max":0,"o":""},"%":{"ha":669,"x_min":32,"x_max":618,"o":"m 544 963 q 506 938 522 949 q 479 921 490 928 q 463 892 468 901 q 443 878 453 885 q 424 864 433 871 q 399 824 404 849 q 397 808 397 815 q 397 799 397 803 q 369 781 383 783 q 361 763 364 772 q 303 636 329 722 q 294 581 297 603 q 288 559 293 571 q 276 533 283 547 q 265 508 269 519 q 258 489 261 497 q 228 411 243 426 l 225 403 q 223 386 224 393 q 224 374 222 379 l 222 368 q 206 346 206 351 q 206 326 203 333 q 174 278 185 306 q 165 249 161 249 q 160 210 163 225 q 154 186 157 194 l 154 185 q 142 154 147 163 q 142 133 142 143 q 143 118 142 125 q 125 85 133 99 q 110 61 117 71 q 110 32 110 44 q 113 10 111 19 q 68 -82 101 -35 q 33 -126 33 -129 q 43 -162 32 -131 q 96 -154 94 -156 q 113 -136 104 -144 q 128 -119 121 -128 l 136 -117 q 140 -106 138 -115 q 148 -72 146 -83 q 151 -58 150 -61 q 183 -21 158 -43 l 192 -18 q 200 -3 196 -12 q 210 21 204 7 q 228 58 218 49 l 226 107 q 258 215 257 194 q 267 233 264 226 q 272 242 271 239 l 275 242 l 276 247 q 281 283 279 267 q 282 310 282 299 q 297 366 290 343 q 308 400 303 389 q 322 423 315 414 q 332 439 328 432 q 331 469 332 463 q 339 486 332 475 q 343 496 342 492 q 346 503 344 500 q 350 541 349 525 q 353 568 351 557 q 400 703 369 650 q 410 716 406 710 q 417 726 414 722 q 436 764 422 750 l 438 771 q 439 797 442 788 q 451 819 446 810 q 463 833 457 828 q 475 867 472 854 q 513 903 483 876 q 560 958 544 931 l 544 963 m 313 1085 q 275 1067 289 1085 q 269 1058 275 1067 q 253 1032 264 1050 q 226 1011 235 1017 q 175 947 194 974 l 153 925 q 147 900 147 910 q 137 883 142 890 q 129 871 132 876 q 126 856 126 863 q 124 844 125 850 q 115 831 118 838 q 108 821 111 825 q 107 810 107 819 q 106 799 107 801 q 94 783 99 788 q 83 744 90 776 q 75 707 75 708 q 108 661 75 688 q 158 635 139 635 q 289 738 218 635 q 306 756 299 749 q 319 768 314 763 q 328 800 325 788 q 342 815 338 813 q 351 834 347 826 q 357 847 354 842 q 378 900 378 878 q 383 946 378 924 q 389 983 389 967 q 388 1006 389 1001 l 381 1014 q 378 1033 379 1024 q 376 1053 378 1043 q 356 1079 372 1079 q 346 1080 351 1079 q 333 1082 340 1081 q 321 1084 326 1083 q 313 1085 315 1085 m 296 969 q 315 954 313 969 l 315 925 l 317 926 l 318 922 q 307 874 311 878 q 290 847 294 856 q 279 799 285 838 q 258 757 275 769 q 250 751 254 753 q 242 746 246 750 q 236 731 239 739 q 229 715 233 722 q 179 694 218 694 q 154 711 168 692 q 139 739 139 729 q 169 806 139 739 q 182 863 179 840 l 188 865 q 215 899 203 885 q 235 919 228 913 q 244 938 240 929 q 254 956 249 946 q 296 969 264 969 m 543 506 q 506 488 519 506 q 493 469 499 478 q 481 453 488 461 q 457 431 469 438 q 428 396 440 411 q 406 368 415 381 q 393 355 399 361 q 383 344 388 349 q 380 331 381 338 q 378 321 379 325 q 366 303 371 310 q 358 290 361 296 q 354 265 356 274 q 340 242 344 249 q 338 229 338 236 q 336 218 338 221 q 325 203 329 207 q 314 164 321 196 q 306 126 306 128 q 339 82 306 108 q 389 56 369 56 q 519 158 446 56 q 537 176 529 169 q 550 188 544 183 q 558 221 556 210 q 572 235 567 231 q 581 253 578 246 q 588 267 585 261 q 608 322 608 300 q 614 365 608 343 q 618 403 618 388 q 617 425 618 421 l 611 433 q 609 453 610 443 q 607 474 608 463 q 586 500 603 500 q 576 501 582 500 q 564 503 571 501 q 551 505 557 504 q 543 506 546 506 m 526 389 q 546 374 543 389 l 546 344 l 546 347 l 549 342 q 538 293 542 297 q 521 267 525 275 q 510 218 515 257 q 489 176 506 189 q 479 171 483 174 q 472 167 475 168 q 466 151 469 160 q 460 135 463 143 q 410 114 449 114 q 385 132 399 114 q 369 160 369 150 q 383 192 369 164 q 395 216 392 207 q 400 226 399 225 q 413 282 411 263 l 418 286 q 446 319 433 306 q 465 339 458 332 q 475 357 471 349 q 485 375 479 365 q 526 389 494 389 z "},"&":{"ha":672,"x_min":36,"x_max":654,"o":"m 647 263 q 622 288 636 288 q 604 272 607 288 q 608 251 604 269 q 606 219 613 235 l 603 218 q 592 201 596 208 q 585 188 588 193 l 582 185 q 571 174 574 181 q 561 163 569 171 q 556 158 558 160 q 551 153 553 156 l 549 149 q 524 132 538 132 q 517 115 517 122 q 538 99 517 99 q 550 103 546 99 l 556 107 q 589 133 576 122 q 604 146 601 143 q 615 162 611 156 q 622 174 619 168 l 625 176 q 654 244 654 206 q 647 263 654 256 m 351 557 q 336 529 336 539 q 342 518 336 524 q 347 513 347 514 q 328 500 347 508 q 313 489 317 493 l 311 489 q 288 475 301 488 q 250 454 264 460 l 246 451 q 228 440 235 444 q 215 432 221 435 q 203 422 208 426 q 196 414 199 417 l 194 413 q 181 401 183 410 l 181 399 q 151 374 161 382 l 149 369 q 135 352 142 358 q 125 342 129 346 l 122 338 q 121 335 121 336 l 118 333 q 101 314 108 328 l 100 308 q 89 299 99 306 q 61 257 72 286 q 48 224 53 235 q 43 213 43 214 q 36 189 36 199 q 40 171 36 181 q 43 154 43 157 l 43 151 q 44 136 43 140 q 47 138 46 138 l 46 133 q 61 89 43 107 q 74 76 68 82 q 83 67 79 69 l 85 64 q 103 49 93 50 l 103 46 q 139 22 110 33 q 182 11 168 11 q 191 10 186 11 q 203 8 196 10 q 221 6 217 6 q 230 7 214 6 q 285 11 246 8 q 333 18 324 13 l 336 19 q 369 28 354 25 q 394 33 383 31 q 406 40 403 38 q 444 51 419 40 q 469 62 460 58 q 482 67 478 65 q 472 99 486 81 l 467 99 q 450 92 461 99 l 449 92 q 433 88 439 92 q 421 79 422 81 q 396 74 411 79 q 374 68 383 68 q 347 63 357 68 l 342 63 q 319 61 338 61 l 278 61 l 251 61 q 217 69 238 61 q 189 78 200 75 l 183 79 q 142 119 157 99 l 138 122 q 125 153 128 128 q 124 165 124 157 q 122 186 124 174 q 122 194 122 189 q 119 208 122 200 q 119 235 118 221 q 124 249 122 243 q 129 261 126 256 q 171 325 146 301 l 175 328 q 194 349 186 339 q 207 367 201 360 l 210 369 q 219 381 213 371 l 221 383 q 263 417 247 406 q 267 418 265 417 l 269 419 q 292 433 283 426 q 306 442 300 439 l 313 444 q 332 456 326 450 l 335 457 q 356 466 346 463 q 374 472 365 469 q 396 478 392 475 l 401 481 q 456 486 424 486 l 481 486 q 494 492 496 492 l 503 492 q 510 490 506 490 q 528 496 521 490 l 533 499 q 556 504 544 504 q 563 524 563 515 q 536 542 563 542 q 529 542 533 542 q 521 540 526 542 q 506 539 514 539 l 493 539 q 472 536 486 539 q 463 534 467 535 q 457 533 460 533 q 417 546 421 533 q 429 572 415 556 q 451 594 442 589 q 468 604 460 597 l 475 610 q 506 622 489 622 q 533 615 513 622 q 565 608 554 608 q 624 631 593 608 l 624 658 q 551 672 574 672 q 458 644 483 669 l 456 642 q 451 639 453 639 l 449 638 q 417 615 424 624 l 413 614 q 396 601 404 611 q 389 596 394 600 q 374 585 383 592 q 356 564 363 575 l 354 561 l 350 557 l 351 557 z "},"'":{"ha":364,"x_min":85,"x_max":336,"o":"m 163 953 q 118 881 146 908 q 89 844 92 854 l 85 832 l 96 826 q 140 851 121 835 q 165 869 160 868 q 185 869 178 872 q 220 885 204 876 q 250 904 236 894 q 272 931 263 919 q 286 951 281 942 q 298 960 293 957 q 306 965 303 963 q 319 999 321 981 q 319 1031 318 1025 q 335 1057 321 1036 q 335 1090 336 1063 l 331 1092 l 331 1090 q 297 1114 319 1114 q 281 1111 286 1114 q 232 1081 243 1097 q 221 1065 226 1074 q 211 1050 215 1057 q 189 1010 194 1024 l 190 983 q 161 954 174 964 l 163 953 z "},"(":{"ha":582,"x_min":51,"x_max":1247,"o":"m 654 1190 q 738 1236 700 1217 q 804 1268 775 1256 q 1056 1367 1025 1365 q 1072 1367 1064 1367 q 1090 1364 1081 1367 q 1104 1362 1099 1363 q 1113 1361 1110 1361 q 1157 1374 1129 1361 l 1176 1382 l 1169 1389 l 1176 1394 q 1194 1401 1188 1399 q 1207 1407 1201 1404 l 1200 1414 l 1214 1422 l 1247 1436 l 1228 1454 q 1221 1463 1224 1457 q 1092 1446 1181 1454 q 1015 1439 1047 1443 q 963 1431 982 1435 q 697 1272 801 1343 q 663 1253 678 1261 q 636 1239 647 1244 q 591 1197 610 1215 q 561 1167 572 1179 q 517 1142 535 1149 q 489 1101 497 1115 q 435 1054 458 1074 q 397 1021 413 1035 q 289 863 319 917 q 267 840 276 849 q 251 824 258 831 q 235 781 239 793 q 208 760 217 765 q 201 733 203 744 q 197 714 199 722 q 183 697 189 704 q 171 686 176 690 q 172 668 168 679 q 171 650 172 654 q 161 639 168 644 q 150 629 151 632 l 151 614 q 139 593 151 610 q 126 574 129 581 q 115 527 119 547 q 108 493 111 507 q 92 468 97 476 q 83 434 89 458 q 68 369 76 410 q 51 274 51 290 q 64 232 57 246 q 61 213 65 226 q 58 196 58 199 q 64 163 58 181 l 72 129 l 68 121 q 80 95 75 106 q 88 78 85 85 l 82 69 q 101 21 92 40 l 89 -1 l 92 -6 l 104 -18 l 94 -22 q 140 -76 121 -60 q 147 -90 142 -79 q 160 -121 151 -101 q 172 -145 165 -135 q 186 -164 179 -156 q 254 -219 228 -200 q 273 -247 265 -235 q 285 -267 281 -260 q 371 -315 338 -300 q 393 -311 379 -311 q 421 -283 406 -306 q 433 -244 433 -262 q 425 -222 433 -233 q 397 -207 418 -214 q 365 -190 374 -200 q 335 -156 349 -172 q 290 -131 301 -140 q 274 -117 283 -125 q 254 -96 265 -108 q 201 -14 211 -36 q 188 10 188 0 q 190 18 188 15 q 191 22 190 21 q 192 24 192 22 q 176 42 192 29 q 160 58 161 54 l 169 63 q 143 103 156 90 q 133 110 136 110 q 122 161 128 136 q 111 213 117 186 q 99 315 99 272 q 125 439 99 343 q 147 516 138 486 q 161 560 156 546 q 201 625 185 601 q 203 644 203 636 q 203 658 204 653 q 229 693 217 681 q 248 738 240 719 q 260 769 256 757 q 297 808 281 794 q 310 836 303 814 q 322 863 317 857 q 337 872 331 868 q 347 878 343 875 q 397 942 374 911 q 442 1000 421 972 q 476 1031 461 1018 q 503 1056 492 1044 q 548 1100 529 1081 q 579 1133 567 1119 q 638 1167 617 1156 q 647 1180 643 1174 q 654 1190 651 1186 z "},")":{"ha":704,"x_min":-287,"x_max":667,"o":"m 247 15 q 174 -46 207 -19 q 114 -92 142 -72 q 60 -128 86 -110 q 6 -167 33 -147 q -112 -235 -82 -228 q -143 -239 -128 -239 q -180 -244 -162 -239 q -211 -260 -197 -250 l -229 -272 l -219 -279 l -226 -285 q -245 -296 -237 -292 q -256 -303 -253 -300 l -246 -308 l -258 -319 l -287 -339 l -265 -353 l -257 -361 q -207 -344 -237 -354 q -132 -321 -176 -333 q -8 -279 -44 -296 q 122 -168 65 -219 q 221 -75 178 -117 q 251 -48 238 -58 q 275 -31 265 -37 q 333 57 317 25 q 356 76 346 68 q 372 89 365 83 q 393 135 386 119 q 435 192 417 167 q 468 232 454 217 q 544 406 521 344 q 561 433 554 421 q 574 453 568 446 q 582 496 581 483 q 594 512 589 506 q 603 524 599 518 q 605 551 604 539 q 604 571 606 564 q 616 590 611 582 q 625 603 621 597 q 619 638 622 629 q 636 663 629 656 l 632 678 q 639 699 631 679 q 647 719 647 715 q 649 770 649 749 q 649 806 650 792 q 660 832 656 826 q 665 931 663 847 q 666 996 667 971 q 664 1029 665 1021 q 643 1067 651 1056 q 643 1106 642 1093 q 615 1167 628 1146 l 618 1178 q 603 1199 610 1190 q 590 1215 596 1208 l 594 1225 q 581 1251 588 1240 q 568 1269 574 1263 l 575 1293 l 571 1296 q 563 1301 567 1299 q 557 1306 560 1304 l 565 1313 q 537 1338 550 1328 q 513 1356 524 1349 q 485 1396 507 1360 q 450 1433 468 1422 q 410 1454 439 1440 q 371 1475 379 1468 q 347 1499 357 1489 q 332 1517 338 1510 q 281 1535 304 1528 q 239 1547 258 1542 q 217 1539 231 1540 q 189 1475 189 1515 q 200 1446 189 1454 q 214 1440 206 1443 q 233 1438 222 1438 q 268 1425 258 1433 q 288 1410 279 1417 q 304 1397 297 1403 q 393 1357 358 1382 q 461 1283 447 1304 q 481 1258 481 1268 l 481 1254 q 479 1250 479 1253 q 488 1239 479 1243 q 517 1221 517 1221 l 508 1214 q 543 1181 531 1189 q 554 1176 551 1176 q 593 1078 557 1168 q 625 979 619 1017 q 624 853 629 951 q 618 774 621 804 q 613 728 615 743 q 597 692 611 717 q 583 657 586 671 q 590 624 585 636 q 568 583 576 593 q 559 537 563 557 q 554 503 556 517 q 539 476 546 488 q 526 457 532 464 q 524 447 525 454 q 519 429 522 440 q 510 401 515 408 l 489 381 q 453 308 469 342 q 421 242 436 274 q 392 203 406 219 q 369 175 379 186 q 343 129 363 167 q 313 85 325 97 q 283 59 296 69 q 260 42 269 49 q 247 15 249 25 z "},"*":{"ha":328,"x_min":39,"x_max":315,"o":"m 210 779 l 208 779 l 208 781 l 210 782 q 219 800 217 793 q 228 815 221 803 q 235 828 235 825 q 218 850 235 850 q 203 839 214 850 q 193 825 193 829 q 194 821 193 822 l 194 817 q 186 811 194 815 q 178 803 178 807 q 178 801 178 803 q 182 793 179 799 q 174 776 174 772 q 169 765 174 767 q 163 758 165 763 l 160 758 q 156 767 156 764 l 157 767 q 158 769 157 768 l 158 772 q 151 782 158 779 q 149 794 150 789 q 144 804 147 799 q 140 819 140 814 q 117 842 140 842 q 106 826 106 842 q 107 806 106 808 q 113 801 111 801 q 115 796 115 796 l 115 790 q 114 783 114 789 q 119 774 114 775 q 123 772 122 772 q 124 771 124 771 q 128 757 128 763 q 133 746 132 744 l 135 746 l 135 744 q 133 742 133 743 q 135 739 133 740 l 135 735 l 132 735 q 119 731 125 732 q 107 729 113 731 l 101 735 q 93 731 96 732 q 88 728 90 729 l 86 729 l 85 729 q 76 735 83 735 q 73 734 75 735 q 68 733 71 733 q 60 731 64 731 l 60 732 q 51 735 57 735 l 40 724 q 39 713 39 721 q 50 685 39 685 q 76 696 51 685 q 100 700 88 696 q 118 701 108 697 q 131 699 129 699 q 143 703 136 699 l 143 701 l 140 699 q 129 694 133 699 q 121 683 125 688 q 114 674 117 678 l 108 674 q 104 665 106 671 q 101 658 101 658 q 97 660 99 658 q 89 653 96 660 q 84 644 86 647 q 82 642 82 642 q 74 639 76 642 l 72 624 q 103 601 86 601 q 119 632 119 601 q 131 649 129 642 l 133 650 q 131 639 131 639 l 124 632 q 126 622 124 636 q 125 621 126 621 q 110 592 111 599 q 107 582 107 583 l 115 574 q 163 603 163 578 q 157 619 163 610 l 158 621 q 163 635 163 633 l 163 638 q 161 640 161 639 l 163 640 q 165 649 165 649 l 165 658 l 168 660 q 172 667 171 664 q 175 672 174 669 q 182 658 182 665 l 181 656 q 182 647 181 649 q 196 628 192 638 l 196 618 q 201 613 197 614 l 204 613 q 208 599 207 606 q 211 588 210 593 q 218 569 221 576 l 232 569 q 250 614 250 593 q 229 632 250 625 l 229 633 l 228 635 q 218 649 222 647 q 208 665 219 654 l 207 665 l 208 668 q 197 688 206 683 q 196 699 197 696 l 192 701 l 192 703 q 206 706 197 701 l 206 704 q 211 701 208 701 q 219 706 213 701 q 225 708 225 708 l 226 708 l 226 707 q 233 701 228 701 l 236 701 q 242 703 240 701 q 251 699 246 699 q 258 700 254 699 l 265 700 l 268 700 q 272 699 269 700 q 276 699 274 699 q 285 696 279 696 q 303 704 288 696 q 315 717 315 713 q 307 729 315 721 q 294 736 297 736 q 289 733 294 736 q 283 731 283 731 l 283 733 q 275 740 276 740 q 265 738 274 740 q 260 735 260 735 q 256 736 257 735 q 250 738 254 738 q 244 736 247 738 q 238 735 242 735 l 238 736 q 228 742 236 742 q 222 739 225 740 q 213 736 218 738 q 214 743 213 742 l 217 743 q 221 742 219 743 q 228 750 228 742 l 229 751 q 242 757 235 750 q 251 768 249 764 q 260 772 257 771 q 267 775 264 774 q 274 806 274 782 q 264 815 274 815 q 246 810 246 815 q 240 801 243 807 l 239 801 q 235 803 236 801 l 231 803 q 224 796 226 803 q 221 788 221 788 q 210 781 213 782 l 210 779 z "},"+":{"ha":514,"x_min":14,"x_max":568,"o":"m 329 350 q 326 365 335 360 l 322 369 l 322 371 q 325 375 322 372 l 328 375 q 333 403 342 385 l 331 406 q 335 415 329 410 l 339 417 q 354 444 361 426 l 353 446 l 356 449 q 378 486 374 461 q 404 533 392 524 q 397 567 408 544 q 372 588 386 588 q 344 567 363 588 q 322 539 324 544 q 324 524 321 536 q 317 513 324 515 l 313 510 q 294 479 288 494 l 297 476 q 297 469 299 471 q 283 444 288 450 l 283 432 q 278 421 283 422 l 276 418 q 260 400 265 411 q 262 387 261 393 q 263 375 263 381 q 221 343 263 343 q 215 346 218 343 l 214 349 q 199 354 208 354 q 171 349 183 351 q 147 344 158 346 l 138 353 q 119 347 129 353 q 108 342 113 342 l 107 342 l 106 344 q 86 351 94 351 q 80 351 83 351 q 71 350 76 350 q 56 347 64 347 q 54 349 54 347 l 53 349 l 51 350 q 40 353 46 353 l 17 333 q 14 310 14 322 q 17 285 14 299 q 38 253 24 253 q 89 275 54 253 l 94 278 l 97 278 q 128 281 119 278 l 133 285 q 147 282 144 282 q 172 289 149 282 l 172 288 q 194 283 186 283 q 222 292 206 283 q 246 289 231 282 l 247 288 q 240 290 244 292 q 239 297 243 296 l 232 289 q 229 257 229 283 q 218 229 229 240 l 214 226 q 204 211 208 221 q 197 163 208 203 l 183 150 q 185 135 181 140 l 186 132 q 185 124 188 126 q 164 86 165 104 q 147 53 153 58 l 165 32 q 217 49 190 36 q 258 79 253 65 q 251 122 264 94 l 251 129 q 257 165 260 151 l 260 167 q 267 199 267 181 l 267 201 l 271 204 q 281 249 288 231 q 296 265 289 254 l 296 276 q 301 286 299 279 q 310 292 303 292 q 344 297 322 286 q 346 294 346 296 l 347 293 q 357 289 349 289 q 375 296 364 289 q 388 303 386 303 l 388 301 l 389 299 q 438 282 390 282 q 444 283 440 282 q 456 285 449 283 q 474 286 471 288 q 486 279 475 286 q 501 274 492 274 q 538 292 514 274 q 567 319 563 308 q 550 340 568 325 q 525 356 531 356 q 513 351 518 356 q 503 349 504 349 l 503 351 l 500 353 q 483 367 494 367 q 468 361 478 367 q 456 356 458 356 q 444 357 453 354 q 433 360 436 360 q 421 357 432 360 q 410 354 413 354 l 410 357 q 390 367 404 365 q 329 350 358 351 z "},",":{"ha":244,"x_min":-37,"x_max":213,"o":"m 39 7 q -4 -65 24 -37 q -33 -101 -31 -92 l -37 -114 l -26 -119 q 17 -96 -1 -114 q 44 -79 36 -79 q 61 -76 58 -76 q 97 -60 81 -69 q 126 -42 113 -51 q 148 -15 139 -26 q 163 6 157 -4 q 174 14 169 11 q 182 19 179 17 q 196 53 197 35 q 196 85 194 79 q 211 110 197 89 q 211 143 213 115 l 208 146 l 207 144 q 174 169 196 169 q 157 165 165 169 q 110 135 119 150 q 99 119 104 128 q 89 104 93 111 q 67 64 72 78 l 67 38 q 39 8 53 21 l 39 7 z "},"-":{"ha":460,"x_min":21,"x_max":440,"o":"m 393 269 q 422 288 404 269 q 440 315 440 306 q 418 333 440 321 q 390 344 396 344 q 381 340 386 344 q 369 336 374 336 q 356 347 364 336 q 340 357 347 357 q 328 350 338 357 q 315 344 322 344 q 310 345 313 344 q 301 347 307 346 q 288 350 290 350 l 275 350 q 261 349 268 349 q 201 343 228 349 q 180 339 182 340 q 178 337 178 338 q 176 335 179 336 q 154 333 174 335 l 139 342 q 126 335 136 342 q 114 329 121 329 q 103 335 110 329 q 88 340 96 340 q 69 339 85 342 q 54 336 56 336 q 46 340 51 336 q 36 343 38 343 l 21 324 q 36 278 22 304 q 65 246 51 246 q 111 269 83 246 q 124 274 119 274 q 165 285 153 276 l 167 281 l 171 281 q 175 279 172 279 q 193 285 182 279 q 199 287 200 288 q 206 285 197 286 q 251 281 244 281 q 264 282 260 281 l 276 282 q 286 286 279 282 q 294 290 292 290 q 318 278 308 278 q 326 278 321 278 q 338 281 331 279 q 358 282 356 283 q 375 276 365 282 q 393 271 385 271 l 393 269 z "},".":{"ha":322,"x_min":32,"x_max":214,"o":"m 157 165 q 174 169 165 169 q 208 143 199 169 l 208 146 l 211 143 q 210 110 214 115 q 200 97 203 103 q 194 85 197 90 q 196 53 192 81 q 182 19 197 35 q 163 4 169 11 q 158 -3 160 1 q 153 -10 156 -7 q 93 -39 140 -21 q 85 -40 90 -40 q 49 -25 64 -40 q 40 8 32 -11 l 40 46 l 46 50 q 89 104 75 90 q 98 119 93 111 q 110 135 103 128 q 157 164 121 150 l 157 165 z "},"/":{"ha":578,"x_min":0,"x_max":833,"o":"m 642 1157 q 594 1128 614 1140 q 560 1106 574 1115 q 547 1086 553 1094 q 538 1071 540 1078 q 526 1063 538 1071 q 492 1036 515 1054 q 458 985 465 1018 q 454 951 456 961 q 439 938 453 942 q 421 929 425 933 q 413 908 414 914 q 375 842 393 882 q 339 749 357 801 q 332 709 335 726 q 328 679 329 692 q 307 619 325 654 q 285 565 289 586 q 278 539 282 551 q 271 513 275 526 q 244 468 265 489 l 242 457 q 240 436 240 446 q 240 421 240 428 l 238 414 q 218 386 218 388 q 219 372 217 385 q 217 361 222 364 q 176 303 193 339 q 165 265 160 265 q 158 218 161 238 q 153 189 156 199 l 153 186 q 139 147 144 157 q 137 120 138 132 q 138 101 136 108 q 117 67 136 90 q 97 31 99 42 q 97 18 96 25 q 99 0 97 11 q 99 -33 100 -21 q 43 -147 86 -86 q 1 -203 1 -208 q 15 -250 0 -210 q 81 -237 79 -239 q 100 -217 90 -226 q 121 -196 110 -207 l 131 -192 q 136 -176 133 -185 q 147 -136 143 -150 q 151 -119 150 -122 q 190 -72 157 -106 l 200 -69 q 222 -21 210 -56 q 235 9 229 -3 q 246 28 240 21 l 243 88 q 255 121 250 104 q 267 156 260 138 q 275 185 271 168 q 282 224 279 201 q 292 242 288 235 q 299 256 296 250 l 303 256 l 306 263 q 308 325 310 307 q 344 454 313 382 q 360 476 347 461 q 375 503 372 492 q 375 524 375 515 q 374 540 375 533 q 384 566 379 556 q 392 583 389 576 q 400 664 400 635 q 426 757 411 715 q 460 832 442 799 q 481 861 474 850 q 483 874 482 868 q 486 888 485 881 q 506 910 489 894 l 508 918 q 510 937 510 929 q 510 950 511 944 q 539 994 525 978 q 549 1020 544 1010 q 556 1038 553 1031 q 600 1085 563 1051 q 658 1153 640 1121 l 642 1157 m 828 1271 q 817 1311 833 1293 q 778 1328 801 1328 q 744 1322 765 1328 q 713 1318 724 1318 q 688 1325 704 1318 q 669 1333 674 1332 l 658 1333 q 597 1304 604 1311 q 626 1289 592 1296 q 678 1279 656 1282 q 715 1275 700 1276 l 717 1260 q 690 1229 707 1258 q 671 1189 672 1201 q 669 1176 669 1186 l 676 1168 q 749 1215 738 1190 q 772 1226 760 1221 q 797 1239 783 1232 q 826 1271 822 1249 l 828 1271 z "},":":{"ha":446,"x_min":33,"x_max":406,"o":"m 157 165 q 174 169 167 169 q 208 143 199 169 l 208 146 l 211 143 q 210 110 214 115 q 194 85 197 93 q 196 53 192 78 q 182 19 197 35 q 163 4 169 11 q 158 -3 160 1 q 153 -10 156 -7 q 93 -39 143 -19 q 85 -40 90 -40 q 49 -25 64 -40 q 40 8 33 -11 q 40 46 42 31 l 46 50 q 71 83 60 69 q 89 104 82 96 q 99 119 94 111 q 110 135 104 128 q 157 164 119 149 l 157 165 m 349 535 q 367 539 358 539 q 399 514 388 539 l 399 515 l 403 514 q 401 481 406 486 q 386 454 388 460 q 388 424 385 451 q 374 390 389 406 q 362 381 367 385 q 354 374 357 376 q 349 367 351 371 q 343 360 346 363 q 283 331 333 350 q 256 333 275 326 q 236 347 239 340 q 231 379 228 369 q 231 415 232 401 l 238 419 q 279 474 264 457 q 290 489 285 481 q 300 506 294 497 q 347 535 310 519 l 349 535 z "},";":{"ha":446,"x_min":-37,"x_max":406,"o":"m 39 7 q -4 -65 24 -37 q -33 -101 -31 -92 l -37 -114 l -26 -119 q 17 -96 -1 -114 q 44 -79 36 -79 q 61 -76 58 -76 q 97 -60 81 -69 q 126 -42 113 -51 q 148 -15 139 -26 q 163 6 157 -4 q 174 14 169 11 q 182 19 179 17 q 196 53 197 35 q 196 85 194 79 q 211 110 197 89 q 211 143 213 115 l 208 146 l 207 144 q 174 169 196 169 q 157 165 165 169 q 110 135 119 150 q 99 119 104 128 q 89 104 93 111 q 67 64 72 78 l 67 38 q 39 8 53 21 l 39 7 m 349 538 q 367 542 358 542 q 399 517 388 542 l 399 518 l 403 517 q 401 483 406 489 q 386 457 388 463 q 388 426 385 454 q 374 393 389 408 q 362 383 367 388 q 354 376 357 379 q 349 369 351 374 q 343 363 346 365 q 283 333 333 353 q 256 336 275 329 q 236 350 239 343 q 231 382 228 372 q 231 418 232 404 l 238 422 q 279 476 264 460 q 290 492 285 483 q 300 508 294 500 q 347 538 310 522 l 349 538 z "},"<":{"ha":665,"x_min":61,"x_max":694,"o":"m 89 482 q 164 503 118 500 q 208 507 190 504 q 236 513 226 510 q 316 554 282 536 q 374 586 350 572 l 390 588 q 422 602 408 596 q 443 614 435 608 q 504 622 482 622 q 532 631 519 628 q 551 638 544 635 q 610 642 585 640 q 651 643 635 644 q 656 644 651 643 q 669 647 660 644 q 685 647 682 650 q 690 640 688 642 q 694 636 693 638 q 686 618 690 632 q 678 600 685 604 q 607 578 665 590 q 561 569 579 572 q 533 567 543 567 q 490 558 519 567 q 460 550 471 553 q 446 546 449 547 q 306 504 338 528 q 294 499 300 501 q 282 493 289 496 q 269 488 269 490 q 293 457 269 483 q 347 431 308 439 q 390 415 383 422 q 401 403 397 408 q 408 394 406 399 q 460 378 442 378 q 511 339 481 367 q 560 301 539 313 q 567 299 563 300 q 578 296 571 297 q 610 281 590 294 q 628 217 628 271 q 594 169 628 169 q 579 172 590 169 q 550 183 565 176 q 519 201 535 190 q 479 228 493 219 q 464 239 465 238 q 449 246 460 242 q 419 257 438 250 q 382 276 392 267 l 363 296 q 324 314 340 307 q 294 324 307 321 q 271 342 281 335 q 254 357 261 350 q 192 374 214 369 q 126 410 165 383 q 94 428 108 422 q 72 436 79 435 q 68 446 68 440 q 65 451 65 449 q 63 456 64 454 l 61 456 q 89 482 86 481 z "},"=":{"ha":629,"x_min":21,"x_max":621,"o":"m 504 228 q 533 246 515 228 q 551 274 551 264 q 529 292 551 279 q 501 304 508 304 q 492 299 497 304 q 481 294 485 294 q 467 306 475 294 q 451 315 458 315 q 439 308 449 315 q 426 303 433 303 q 421 303 424 303 q 413 306 418 304 q 399 308 401 308 l 386 308 q 372 307 379 307 q 313 301 339 307 q 249 297 285 297 q 242 297 246 297 q 231 300 238 297 q 219 301 224 300 q 213 301 215 301 q 181 296 196 299 q 154 292 167 293 l 139 300 q 126 293 136 300 q 114 288 121 288 q 103 293 110 288 q 88 299 96 299 q 69 297 85 300 q 54 294 56 294 q 46 299 51 294 q 36 301 38 301 l 21 282 q 36 236 22 263 q 65 204 51 204 q 111 228 83 204 q 124 232 119 232 q 165 243 153 235 l 167 239 l 171 239 q 175 238 172 238 q 193 243 183 238 q 207 247 203 247 l 210 242 q 229 239 224 239 q 256 251 243 239 q 272 240 261 243 q 293 244 282 243 q 317 243 304 244 q 363 239 356 239 q 375 240 371 239 l 388 240 q 397 244 390 240 q 406 249 403 249 q 429 236 419 236 q 437 237 432 236 q 449 239 442 238 q 469 240 467 242 q 486 235 476 240 q 504 229 496 229 l 504 228 m 572 419 q 603 438 585 419 q 621 465 621 456 q 599 483 621 471 q 571 494 576 494 q 560 490 565 494 q 549 486 553 486 q 535 497 543 486 q 521 507 529 507 q 508 500 518 507 q 494 494 501 494 q 482 497 493 494 q 468 500 471 500 l 454 500 q 440 499 447 499 q 381 493 407 499 q 317 489 353 489 q 310 489 314 489 q 299 492 306 489 q 288 492 292 492 q 281 493 283 493 q 249 488 264 490 q 222 483 235 485 l 208 492 q 194 485 204 492 q 182 479 189 479 q 172 485 178 479 q 157 490 167 490 q 139 488 153 490 q 122 485 125 485 q 114 489 119 485 q 104 493 107 493 l 90 474 q 106 428 92 454 q 135 396 121 396 q 181 419 153 396 q 192 424 185 424 q 233 435 221 426 l 236 431 l 240 431 q 244 429 242 429 q 260 435 250 429 q 275 439 269 439 l 278 433 q 299 429 288 429 q 324 442 311 429 q 340 432 331 435 q 361 435 350 435 q 385 435 372 436 q 431 431 424 431 q 444 432 440 431 l 457 432 q 467 436 460 432 q 475 440 472 440 q 499 428 489 428 q 506 428 501 428 q 517 431 510 429 q 538 432 532 433 q 544 429 540 431 q 554 425 549 428 q 572 419 564 419 z "},">":{"ha":665,"x_min":-36,"x_max":721,"o":"m 711 482 q 653 504 697 501 q 586 513 600 506 q 566 527 576 518 q 542 550 556 536 q 519 572 529 564 q 501 586 508 581 l 486 588 q 466 602 475 596 q 451 614 457 608 q 399 622 418 622 q 377 631 386 628 q 363 638 368 635 q 307 642 331 640 q 265 643 283 644 q 262 644 265 643 q 251 647 258 644 q 236 647 242 649 q 222 639 226 642 q 217 636 217 636 q 211 618 218 633 q 207 600 206 604 q 263 578 217 588 q 329 567 311 567 q 367 558 343 567 q 391 550 382 553 q 403 546 400 547 q 460 528 422 542 q 510 504 503 514 q 525 494 515 496 q 536 490 536 492 q 489 457 536 483 q 417 431 458 439 q 363 415 378 422 q 342 403 351 408 q 326 394 333 399 q 265 378 282 378 q 185 339 235 367 q 140 315 158 325 q 108 301 121 306 l 46 281 q -4 238 28 274 q -36 182 -36 199 q -21 169 -36 169 q -4 172 -11 169 q 92 208 51 192 q 160 239 132 225 q 223 260 196 251 q 269 276 250 269 q 300 296 294 294 q 353 313 331 306 q 390 324 375 319 q 454 357 431 343 q 528 374 501 369 q 570 388 547 379 q 621 410 593 397 q 646 421 635 417 q 667 428 657 425 q 694 436 683 433 q 718 456 711 449 l 721 456 q 715 472 718 465 q 710 482 713 478 l 711 482 z "},"?":{"ha":838,"x_min":101,"x_max":817,"o":"m 101 889 q 105 850 104 874 q 103 796 106 826 q 114 756 103 774 q 126 728 126 735 q 160 639 126 668 q 178 631 171 633 q 192 625 186 628 q 215 597 211 608 q 250 581 225 581 q 279 576 260 581 q 310 572 297 572 q 335 583 324 572 q 351 591 344 589 q 364 594 358 593 q 389 607 374 597 q 424 635 404 617 q 463 688 463 669 q 475 714 463 694 q 486 747 486 733 q 481 783 486 761 q 476 819 476 806 q 372 918 476 919 q 307 890 324 918 q 282 858 293 869 l 281 850 q 275 824 281 836 q 271 800 271 808 q 282 775 271 790 l 288 768 q 300 733 300 753 q 338 724 340 724 q 372 738 353 724 q 404 751 392 751 q 428 718 428 751 l 426 710 l 421 704 q 399 656 407 664 q 374 644 385 649 q 353 636 363 639 q 328 624 350 633 q 297 618 318 618 q 258 622 268 618 q 238 642 244 632 q 213 654 231 647 q 194 667 194 658 q 189 675 192 669 q 181 688 186 681 q 178 697 178 696 q 169 731 178 718 q 172 747 168 733 l 172 801 q 160 836 172 817 q 149 865 149 856 q 164 894 149 879 l 169 900 q 182 925 182 913 l 182 932 q 181 938 181 935 q 188 953 181 942 q 224 1011 219 1000 q 232 1056 229 1039 q 240 1064 233 1057 q 263 1082 247 1071 q 287 1100 278 1093 q 301 1110 296 1107 l 301 1113 q 314 1115 308 1114 q 322 1115 319 1115 q 349 1128 339 1118 q 363 1142 358 1138 q 369 1147 368 1146 q 415 1169 375 1151 q 456 1186 453 1186 q 479 1179 468 1186 q 536 1165 511 1165 q 574 1157 565 1165 l 579 1151 q 586 1147 582 1149 q 615 1129 601 1138 q 644 1111 629 1121 q 689 1063 678 1088 q 694 1040 692 1049 q 699 1024 697 1031 q 703 1017 700 1022 q 711 1006 706 1013 q 718 986 718 997 q 724 946 718 968 q 729 908 729 924 q 725 868 729 894 q 721 828 721 840 q 719 810 721 821 q 714 783 717 799 q 707 738 707 749 q 708 727 707 733 q 710 711 708 721 q 712 695 711 701 q 713 683 713 689 q 700 656 713 668 q 697 639 697 647 q 690 622 697 629 q 676 596 679 613 q 675 581 675 589 q 675 565 675 572 q 658 536 667 540 q 631 481 643 504 q 613 442 619 457 q 592 413 593 422 q 588 393 589 400 q 585 383 586 386 q 543 314 575 363 q 497 253 508 263 q 478 240 488 246 q 457 228 468 235 q 432 196 429 211 l 433 178 l 454 172 q 503 222 479 186 q 531 238 522 238 q 589 289 561 254 q 598 310 594 301 q 604 326 601 319 q 661 392 639 374 q 675 426 669 411 q 683 453 681 442 q 704 469 696 465 q 735 529 707 472 q 761 589 761 583 q 760 601 761 593 q 758 619 760 608 q 763 647 756 640 q 769 654 765 650 q 776 663 774 658 q 789 694 778 664 q 799 725 799 719 q 806 764 799 740 q 813 796 813 788 q 808 821 813 804 q 806 834 807 828 q 806 843 806 840 q 806 849 806 844 q 808 864 806 854 q 808 896 810 878 l 803 906 l 803 910 q 803 926 800 918 q 817 990 817 976 q 792 1029 801 1013 q 776 1057 782 1046 l 771 1063 q 761 1085 763 1074 q 729 1142 753 1128 q 699 1174 707 1156 q 663 1200 689 1193 q 639 1204 651 1203 q 615 1208 626 1206 q 611 1211 614 1210 q 603 1215 608 1213 q 586 1221 596 1221 q 579 1220 583 1221 q 569 1219 575 1219 q 553 1217 563 1217 q 528 1222 543 1217 q 504 1226 513 1226 q 473 1217 486 1221 q 453 1211 460 1214 q 422 1209 438 1210 q 392 1206 407 1208 q 339 1175 361 1201 q 297 1144 317 1151 q 274 1133 278 1138 q 265 1123 269 1128 q 256 1113 261 1118 q 224 1090 249 1104 q 192 1067 200 1079 q 176 1039 182 1051 q 164 1019 169 1026 q 153 1005 158 1013 q 142 990 149 997 q 129 961 129 975 q 115 917 129 931 q 101 889 101 903 m 419 126 q 382 153 407 153 q 363 149 372 153 q 310 115 326 133 q 282 72 292 89 q 259 47 268 57 q 247 31 250 36 l 242 26 q 240 -14 238 3 q 246 -49 236 -25 q 292 -72 254 -72 q 303 -71 300 -72 q 382 -17 371 -32 l 388 -14 q 393 -10 390 -12 q 410 26 413 7 q 408 57 407 56 q 417 75 414 68 q 424 85 421 82 q 425 124 429 90 l 419 126 z "},"@":{"ha":786,"x_min":29,"x_max":775,"o":"m 75 385 q 36 274 63 376 q 33 256 33 263 q 39 226 33 243 q 43 200 44 208 q 56 107 29 140 q 69 94 63 100 q 81 85 75 88 q 97 53 94 64 q 126 28 103 32 q 159 15 146 21 q 182 6 172 10 q 210 10 196 1 q 242 13 228 15 q 306 38 261 14 q 358 79 354 63 q 369 96 361 88 l 375 101 q 396 132 394 121 q 404 204 404 179 q 408 235 408 218 q 325 325 408 304 q 257 315 279 336 q 240 301 247 307 q 225 290 232 294 l 222 282 q 213 262 217 271 q 206 247 208 253 q 200 228 200 238 q 210 200 200 219 q 214 164 218 181 q 231 154 225 160 q 257 144 242 144 q 282 150 267 144 q 295 154 289 153 q 304 157 301 156 q 329 149 321 158 q 332 118 336 138 l 331 111 l 324 107 q 290 64 297 68 q 242 56 263 58 q 225 53 232 54 q 213 50 218 51 q 146 67 181 42 q 137 79 140 74 q 132 89 133 85 q 108 108 125 100 q 89 122 90 117 q 86 149 93 132 q 86 157 83 153 q 85 194 90 179 q 90 203 88 200 q 93 210 92 207 q 100 241 97 228 q 106 263 103 254 q 103 294 108 278 q 97 321 97 311 q 119 353 97 339 l 126 357 q 147 392 143 368 q 152 401 150 397 q 156 406 154 404 q 206 453 196 440 q 217 476 213 467 q 225 493 222 486 q 263 511 229 497 q 306 529 294 526 l 306 532 l 317 532 q 326 531 321 531 q 356 535 340 528 q 368 542 363 538 q 381 549 374 546 q 397 553 385 550 q 429 558 410 556 q 472 565 471 567 q 496 554 485 564 q 547 526 522 532 q 581 508 571 521 l 585 503 q 631 454 592 490 q 669 389 664 424 q 669 349 671 363 q 671 344 669 349 q 676 329 672 339 q 679 308 681 315 q 675 272 676 288 q 674 247 674 257 q 658 193 665 215 q 643 156 650 171 q 624 105 633 126 q 608 69 615 83 q 600 18 601 32 q 581 -8 599 3 q 578 -14 579 -11 q 575 -22 576 -17 q 563 -37 574 -31 q 544 -61 549 -46 l 536 -90 q 513 -114 522 -111 q 472 -160 489 -140 q 444 -194 456 -181 l 436 -199 q 404 -246 411 -228 q 347 -303 392 -262 q 288 -350 301 -344 q 266 -356 276 -353 q 244 -364 256 -360 q 213 -390 215 -375 l 207 -407 l 226 -418 q 285 -381 274 -396 q 317 -372 308 -369 q 385 -337 354 -364 q 401 -319 394 -326 q 411 -304 408 -311 q 482 -254 454 -267 q 504 -223 496 -236 q 518 -200 513 -210 q 531 -194 525 -197 q 539 -190 536 -192 q 554 -175 542 -187 q 586 -139 567 -162 q 615 -102 606 -115 q 626 -86 625 -89 q 628 -70 628 -76 q 629 -58 629 -64 q 640 -32 631 -39 q 654 -24 650 -26 q 658 -21 658 -21 q 677 8 668 -6 q 694 35 686 22 q 701 55 697 46 q 710 72 704 64 q 722 99 717 86 q 726 126 726 113 q 729 147 726 136 q 746 200 740 186 l 742 210 l 743 214 q 747 231 743 224 q 775 289 774 278 q 769 303 772 294 q 764 326 767 313 q 753 364 760 351 l 749 371 q 746 393 746 376 q 728 457 747 435 q 706 493 713 472 q 683 525 700 513 q 672 531 681 528 q 649 542 663 535 q 624 558 633 547 q 600 569 614 567 q 587 572 593 571 q 574 574 581 572 q 564 577 571 575 q 544 586 557 579 q 510 593 524 594 q 476 590 483 589 q 428 599 444 596 q 410 601 411 601 q 356 583 382 601 q 310 564 331 567 q 283 558 290 561 q 261 543 274 550 q 226 531 250 536 q 189 514 201 524 l 150 475 q 136 464 143 469 q 121 451 129 458 q 101 426 106 442 q 75 385 93 394 z "},"A":{"ha":808,"x_min":-612,"x_max":1140,"o":"m 590 471 q 635 496 618 489 q 681 544 643 503 q 724 586 713 581 q 754 592 744 592 q 774 561 774 564 q 772 549 774 553 q 706 424 732 463 l 701 419 q 682 429 694 422 q 650 447 669 436 q 590 471 622 464 m -62 350 q -11 314 -50 319 q 13 317 8 311 q 21 315 18 322 q 44 301 25 313 q 88 289 64 289 l 85 293 l 97 299 q 121 328 106 319 q 153 344 146 338 q 165 369 158 349 q 188 403 171 386 l 186 407 q 194 411 192 410 q 197 413 197 413 q 229 415 206 418 q 260 417 251 413 q 303 443 290 435 q 313 445 308 444 q 322 446 317 446 q 349 440 333 446 q 375 435 364 435 q 388 436 382 435 q 400 440 393 438 q 440 453 431 453 q 464 438 449 453 q 488 422 479 422 l 486 418 q 426 372 451 392 q 381 342 400 353 q 361 325 378 339 q 313 283 344 311 q 274 251 292 265 q 240 229 256 238 q 201 213 214 217 q 139 163 160 181 q 71 135 93 140 q 42 117 65 131 q -6 88 19 103 q -51 58 -31 72 q -75 43 -72 44 q -142 26 -119 31 q -171 11 -158 18 q -192 -1 -183 4 q -325 -15 -233 -15 q -422 -7 -393 -15 q -462 6 -467 6 q -475 4 -472 6 q -507 -18 -489 3 q -526 -40 -519 -33 q -535 -49 -533 -47 q -544 -56 -536 -50 q -571 -72 -553 -61 q -600 -100 -596 -87 q -492 -147 -612 -147 q -424 -140 -451 -147 q -331 -94 -364 -114 q -289 -90 -304 -93 q -278 -85 -286 -89 q -260 -75 -271 -82 q -228 -62 -237 -62 q -221 -64 -225 -62 l -215 -64 q -161 -37 -185 -50 q -118 -11 -137 -25 q -94 -6 -104 -8 q -76 -1 -83 -3 q -47 19 -69 4 q 2 52 -24 35 q 49 84 28 69 q 72 101 69 99 q 123 126 101 117 q 160 142 144 136 q 183 163 174 153 q 199 179 193 172 q 247 204 226 194 q 282 219 267 214 q 316 247 301 235 q 340 268 331 258 l 519 397 q 538 415 531 407 q 550 428 544 422 q 619 407 603 421 q 628 397 624 401 q 651 393 631 394 q 672 392 663 392 q 689 390 682 392 l 660 303 q 631 257 644 276 q 607 224 618 238 q 561 131 579 171 q 533 63 543 90 q 516 30 524 43 q 503 7 508 17 q 503 -18 500 -4 q 505 -35 504 -29 q 506 -43 506 -40 l 525 -43 l 529 -43 l 538 -32 q 596 1 576 -10 q 615 13 615 13 q 651 44 639 26 q 669 79 664 61 q 678 101 675 93 q 683 113 682 110 q 742 314 693 133 q 747 356 739 321 q 828 522 763 418 q 851 560 843 546 q 863 581 860 574 q 881 626 874 607 q 894 657 889 644 q 911 682 896 663 q 925 708 921 696 q 929 728 928 719 q 932 742 931 736 q 963 797 939 761 q 990 851 989 836 q 994 874 994 865 q 1024 907 1013 896 q 1058 978 1043 947 q 1079 1031 1072 1010 q 1092 1051 1086 1042 q 1104 1065 1099 1060 q 1126 1122 1118 1097 q 1140 1164 1135 1146 q 1127 1174 1133 1169 q 1117 1181 1121 1178 q 1086 1168 1100 1174 q 1061 1157 1072 1163 q 1051 1143 1054 1146 q 1010 1107 1050 1139 q 980 1084 990 1092 q 967 1075 969 1076 l 963 1075 q 938 1007 943 1032 q 919 978 932 994 q 901 938 908 961 q 881 874 888 882 q 828 825 849 840 q 799 783 811 801 q 779 753 786 765 q 742 714 758 728 q 735 698 738 704 q 729 686 732 692 q 690 643 707 661 q 660 614 672 625 q 633 574 644 592 q 615 546 622 557 q 565 508 583 518 q 547 489 554 497 q 535 475 540 481 q 514 478 522 476 q 501 481 506 479 q 451 510 465 497 q 401 510 418 511 q 378 520 388 515 q 361 528 368 525 q 343 528 354 529 q 317 525 332 528 q 272 521 288 518 q 231 538 244 531 q 201 533 219 539 q 172 525 178 526 q 150 524 161 524 q 128 526 139 525 q 103 529 113 529 q 89 529 94 529 q 31 517 61 529 q -71 393 -71 475 q -62 350 -71 372 z "},"B":{"ha":1544,"x_min":-360,"x_max":1557,"o":"m -19 1036 q -12 1044 -17 1039 q -3 1056 -8 1049 q 15 1075 7 1069 l 22 1086 q 47 1092 33 1089 q 74 1097 60 1094 q 117 1118 103 1104 q 219 1139 153 1122 q 233 1151 222 1140 q 251 1161 243 1161 l 258 1161 q 265 1160 261 1160 q 279 1164 268 1160 q 300 1172 288 1165 q 311 1176 306 1175 q 324 1181 317 1178 q 344 1183 338 1183 q 356 1183 350 1183 q 372 1182 363 1182 q 388 1179 382 1179 q 399 1179 394 1179 q 414 1180 406 1179 q 433 1182 422 1181 q 481 1190 454 1185 q 560 1203 535 1203 q 590 1199 571 1203 q 607 1197 600 1197 q 619 1196 614 1196 q 646 1203 628 1196 q 659 1207 653 1206 q 669 1208 665 1208 q 726 1196 668 1208 q 760 1189 740 1189 q 782 1189 771 1189 q 807 1192 794 1189 q 832 1193 819 1192 q 858 1194 844 1194 q 882 1197 871 1196 q 904 1196 893 1197 q 913 1194 911 1196 q 985 1185 950 1196 q 1047 1160 1015 1174 q 1076 1144 1063 1153 q 1106 1129 1090 1136 q 1168 1108 1135 1114 q 1193 1092 1178 1101 q 1228 1071 1210 1081 q 1297 1038 1265 1053 q 1353 1010 1328 1024 q 1397 986 1378 997 q 1429 965 1415 975 q 1553 786 1539 888 q 1555 769 1554 776 q 1556 756 1556 763 q 1556 739 1557 744 q 1538 707 1554 724 q 1513 679 1514 683 q 1481 631 1507 668 q 1461 612 1474 621 q 1433 592 1449 603 q 1399 571 1418 582 q 1357 549 1381 560 q 1335 540 1346 544 q 1313 532 1324 536 q 1291 523 1301 528 q 1269 514 1281 518 q 1194 467 1208 489 q 1178 417 1190 450 q 1207 399 1193 407 q 1236 381 1221 390 q 1266 363 1251 371 q 1296 344 1281 354 q 1360 232 1360 297 l 1360 218 q 1358 211 1358 215 q 1357 206 1358 208 q 1238 61 1340 111 q 1042 -22 1172 29 q 1017 -26 1031 -25 q 1003 -28 1010 -28 q 989 -29 996 -28 l 957 -29 q 938 -31 940 -29 q 931 -33 935 -32 q 921 -36 926 -33 q 909 -40 915 -37 q 896 -46 903 -43 q 851 -54 872 -54 q 807 -50 836 -54 q 782 -48 793 -49 q 764 -47 771 -47 q 722 -51 749 -47 q 697 -53 708 -53 q 678 -54 686 -54 q 653 -52 668 -54 q 615 -43 638 -50 q 597 -38 606 -40 q 579 -33 588 -36 q 565 -31 572 -32 q 553 -29 558 -31 q 536 -31 546 -31 q 515 -31 526 -31 q 492 -29 504 -29 q 464 -26 479 -29 q 439 -17 458 -26 q 408 -8 424 -8 q 399 -8 406 -8 q 386 -10 393 -8 q 372 -11 379 -11 q 363 -11 367 -11 q 338 -4 349 -11 q 317 4 322 1 q 297 7 307 6 q 274 10 286 8 q 247 13 261 11 q 215 15 232 14 q 204 28 215 19 q 206 32 206 29 q 208 38 206 35 q 215 54 208 43 q 235 63 225 57 q 245 67 240 65 q 256 72 250 69 q 262 78 258 75 q 271 85 265 82 q 282 91 276 88 q 294 99 288 94 q 354 110 328 110 q 467 90 386 110 q 579 71 547 71 q 675 83 622 71 q 765 119 739 99 q 772 127 768 122 q 781 138 775 132 q 790 150 785 143 q 800 164 794 157 q 808 169 804 168 q 813 172 811 171 q 818 176 815 174 q 853 214 839 193 q 892 276 868 247 q 925 342 917 306 q 911 361 928 354 q 885 374 889 369 q 885 385 882 376 q 883 394 886 388 q 925 419 903 406 q 971 451 947 433 q 994 521 975 456 q 1006 561 1001 540 q 1015 601 1010 582 q 1025 642 1021 621 q 1036 682 1029 663 q 1118 818 1072 794 q 1142 826 1126 818 q 1174 843 1158 833 q 1213 856 1182 850 q 1221 814 1222 826 q 1200 772 1210 794 q 1189 748 1194 761 q 1176 719 1183 735 q 1172 697 1175 710 q 1167 668 1169 683 q 1160 635 1164 653 q 1151 597 1157 617 q 1147 585 1149 592 q 1142 569 1144 578 q 1137 551 1139 561 q 1132 529 1135 540 l 1131 515 q 1161 511 1153 513 q 1169 510 1167 510 q 1175 510 1174 510 q 1207 521 1188 510 q 1220 529 1214 526 q 1231 535 1226 532 l 1239 539 q 1313 574 1285 563 q 1350 592 1342 585 q 1387 633 1372 608 q 1407 694 1401 658 q 1413 749 1410 717 q 1419 824 1415 781 q 1407 838 1414 832 q 1376 847 1399 844 q 1346 857 1353 849 q 1338 866 1343 860 q 1326 879 1333 872 q 1314 885 1321 882 q 1300 893 1307 889 q 1284 902 1293 897 q 1265 913 1275 907 q 1254 925 1263 917 q 1247 931 1251 928 q 1238 940 1243 935 q 1226 944 1232 942 q 1214 950 1221 947 q 1199 957 1207 953 q 1182 967 1192 961 q 1154 999 1175 979 q 1115 1003 1143 1003 q 1082 1013 1096 1003 q 1056 1028 1063 1025 q 1033 1026 1057 1026 q 975 1061 1022 1026 q 906 1104 924 1099 q 804 1115 854 1103 q 707 1128 756 1128 q 669 1139 706 1128 q 582 1144 658 1144 q 554 1144 568 1144 q 526 1143 540 1144 q 499 1141 513 1142 q 471 1139 485 1140 q 459 1136 465 1138 q 446 1133 453 1135 q 430 1131 439 1132 q 411 1128 421 1129 q 382 1132 400 1128 q 365 1134 372 1133 q 353 1135 358 1135 q 319 1125 338 1135 q 293 1113 300 1114 q 278 1110 286 1111 q 260 1110 269 1110 q 239 1106 250 1107 q 214 1103 228 1106 q 207 1101 213 1101 q 197 1097 201 1099 l 196 1086 q 157 1088 194 1088 q 135 1081 151 1088 q 122 1075 128 1078 q 113 1071 117 1072 q 101 1070 107 1071 q 88 1069 94 1069 q 71 1065 81 1067 q 50 1058 61 1063 l 49 1058 l 38 1036 q -54 938 6 1011 q -72 890 -58 918 q -87 869 -79 881 q -104 844 -94 858 q -123 815 -112 831 q -144 781 -133 799 q -146 774 -146 779 q -147 764 -146 768 q -168 731 -158 749 q -179 710 -174 721 q -192 686 -185 699 q -194 675 -192 686 q -199 653 -197 665 q -215 607 -206 633 q -224 576 -219 593 q -235 540 -229 560 q -240 506 -239 526 q -239 460 -240 486 q -231 383 -237 408 q -228 378 -229 381 q -224 372 -226 375 q -219 361 -219 365 q -218 304 -222 336 q -196 279 -215 296 q -178 264 -185 269 q -169 257 -172 258 l -169 246 q -207 221 -172 235 q -257 206 -246 206 q -282 210 -269 206 l -290 221 q -297 219 -296 221 l -303 219 q -329 249 -308 219 q -339 261 -335 256 q -346 272 -343 267 q -350 279 -349 276 q -353 283 -351 282 q -350 296 -353 288 q -346 328 -349 317 q -344 331 -344 333 q -351 358 -342 346 q -357 388 -360 369 q -349 425 -356 400 q -353 464 -353 435 q -336 493 -347 472 q -335 500 -335 496 q -333 510 -335 504 q -329 526 -332 519 l -329 535 q -296 601 -317 557 q -283 644 -294 617 q -257 675 -274 654 q -252 683 -254 678 q -247 694 -250 688 q -242 708 -244 701 q -236 721 -239 714 q -231 733 -233 728 q -225 746 -228 739 q -220 758 -222 753 q -215 765 -218 763 q -189 792 -206 774 q -185 803 -187 797 q -179 815 -182 808 q -172 830 -176 822 q -162 847 -168 838 q -144 869 -156 854 q -111 939 -132 897 q -92 956 -104 946 q -62 979 -79 965 q -55 990 -60 985 q -44 1003 -50 996 q -19 1036 -35 1017 m 1065 351 l 1064 350 q 1000 294 1024 326 q 978 263 989 279 q 956 231 967 246 q 937 213 949 224 q 907 189 925 203 q 894 181 900 185 q 881 172 888 176 q 867 164 874 168 q 854 154 861 160 q 794 99 836 133 q 788 97 792 97 q 778 93 783 96 q 767 89 772 92 q 754 83 761 86 q 750 68 753 79 q 747 61 749 65 q 744 54 746 57 q 751 50 746 53 q 758 44 756 46 q 769 43 761 43 q 789 42 778 43 q 817 40 800 40 q 854 39 833 39 q 896 32 871 39 q 917 25 907 25 q 924 22 921 22 q 931 21 928 22 q 1004 17 953 17 q 1165 43 1118 17 q 1189 69 1178 49 q 1200 89 1194 81 q 1208 99 1203 93 l 1217 103 q 1221 105 1218 104 q 1226 108 1224 106 q 1244 156 1240 125 q 1240 225 1250 199 q 1196 271 1232 246 q 1168 289 1181 282 q 1140 307 1156 296 q 1132 314 1136 310 q 1124 321 1128 318 q 1115 328 1119 324 q 1107 335 1111 332 q 1068 351 1086 351 l 1065 351 z "},"C":{"ha":1179,"x_min":7,"x_max":1249,"o":"m 1026 267 l 1025 267 q 965 238 996 267 q 952 226 958 232 q 939 214 946 221 q 926 201 932 207 q 913 190 919 196 q 895 182 906 188 q 874 169 885 176 q 848 156 863 163 q 818 139 833 149 l 800 121 q 788 110 794 115 q 774 99 781 106 q 747 90 761 96 q 731 84 740 88 q 713 75 722 81 q 661 38 692 57 q 646 31 654 35 q 628 22 638 26 q 586 7 606 13 q 554 -3 568 1 q 531 -10 540 -7 q 510 -17 510 -17 q 443 -50 503 -19 q 369 -67 411 -67 q 332 -75 349 -67 q 306 -85 319 -82 q 285 -87 297 -87 q 270 -90 278 -89 q 253 -90 263 -90 q 139 -75 167 -94 q 133 -67 136 -71 q 125 -58 129 -62 q 105 -41 114 -49 q 89 -28 96 -33 q 78 -19 82 -22 q 74 -15 75 -17 q 47 49 57 4 q 47 104 50 68 q 40 117 46 110 q 26 136 35 125 q 8 174 11 154 q 13 233 7 200 q 64 399 29 335 q 72 410 67 404 q 82 422 76 415 q 103 454 92 433 q 115 506 104 472 q 122 512 118 508 q 132 519 126 515 l 151 539 q 158 558 153 544 q 163 569 161 564 q 168 579 165 574 q 188 590 175 582 q 217 636 197 608 q 237 665 226 650 q 260 697 247 679 q 271 707 263 699 q 285 719 274 711 q 291 732 288 725 q 300 749 294 739 q 311 767 306 757 q 324 788 317 776 q 329 793 326 790 q 338 799 332 796 q 346 805 342 801 q 356 811 350 808 q 365 817 361 814 q 375 824 369 821 q 383 828 381 826 q 389 833 386 831 q 400 846 394 839 q 413 861 406 853 q 428 879 419 869 q 446 900 436 889 q 457 906 451 903 q 469 915 463 910 q 485 924 476 919 q 503 935 493 929 q 525 956 513 944 q 553 979 538 967 q 622 1036 585 1006 l 635 1040 q 653 1047 639 1042 q 674 1069 656 1051 q 694 1081 683 1075 q 718 1093 704 1086 q 747 1108 732 1100 q 779 1126 761 1117 q 806 1149 786 1133 q 889 1178 836 1165 l 972 1199 l 1022 1215 q 1055 1224 1038 1219 q 1092 1233 1072 1228 q 1104 1235 1097 1235 q 1119 1235 1111 1235 q 1136 1236 1126 1236 q 1158 1236 1147 1236 q 1236 1228 1225 1236 q 1243 1213 1243 1224 q 1247 1204 1246 1207 q 1249 1199 1247 1201 q 1119 1151 1168 1151 q 1081 1156 1107 1151 q 1042 1160 1056 1160 q 853 1125 932 1160 q 804 1096 831 1117 q 774 1074 785 1082 q 757 1063 763 1065 q 740 1055 750 1060 q 719 1044 731 1050 q 669 1019 696 1033 q 661 1008 668 1015 l 649 996 l 638 994 q 631 987 635 992 q 621 976 626 982 q 610 965 615 971 q 597 951 604 958 q 497 872 561 928 q 447 808 486 854 q 435 801 443 807 q 422 793 428 799 q 419 783 419 790 q 416 777 417 781 q 413 771 415 774 q 405 765 410 768 q 394 757 400 761 q 374 736 383 749 q 370 730 372 735 q 363 715 368 725 q 322 675 347 703 q 315 658 319 668 q 304 636 311 647 q 295 628 300 633 q 283 617 290 624 q 272 599 278 610 q 261 572 267 588 l 244 522 q 215 457 235 508 q 214 449 214 454 q 213 438 214 444 q 210 425 211 432 q 208 411 210 418 q 196 363 203 393 q 189 331 193 347 q 181 294 185 314 q 176 260 176 275 q 176 236 175 246 q 185 219 178 229 q 189 200 190 206 q 188 197 188 199 q 186 193 188 196 q 185 188 185 190 q 183 183 185 186 q 189 168 182 178 q 196 157 196 158 q 198 142 197 150 q 201 125 199 135 q 210 82 203 107 q 243 39 217 65 q 282 8 268 13 q 303 7 285 7 l 311 7 q 326 8 319 7 l 350 8 q 386 8 371 8 q 411 7 401 7 q 424 6 421 6 q 425 6 428 6 q 557 26 507 6 q 565 33 560 29 q 575 39 569 36 q 588 45 581 42 q 601 54 594 49 q 711 100 640 65 q 764 144 728 117 q 819 172 783 153 q 907 251 846 201 q 911 253 910 253 q 917 254 914 253 l 929 258 q 939 271 931 263 q 951 285 943 274 q 970 294 958 288 q 997 313 982 301 q 1005 325 1000 318 q 1015 340 1010 332 q 1026 356 1021 347 q 1040 376 1032 365 q 1126 432 1086 432 q 1156 418 1146 432 q 1163 385 1165 406 q 1136 336 1158 361 q 1115 311 1115 313 q 1113 314 1115 314 q 1071 290 1107 314 q 1026 267 1035 267 z "},"D":{"ha":1960,"x_min":-129,"x_max":1947,"o":"m 211 957 q 218 965 214 960 q 228 976 222 969 q 246 996 238 990 l 253 1007 q 277 1013 264 1010 q 304 1018 290 1015 q 347 1039 333 1025 q 450 1060 383 1043 q 464 1072 453 1061 q 482 1082 474 1082 l 489 1082 q 496 1081 492 1081 q 510 1085 499 1081 q 531 1093 518 1086 q 542 1097 536 1096 q 554 1101 547 1099 q 575 1104 568 1104 q 587 1103 581 1104 q 603 1103 593 1103 q 618 1100 613 1100 q 629 1100 625 1100 q 644 1101 636 1100 q 664 1103 653 1101 q 711 1111 685 1106 q 790 1124 765 1124 q 821 1119 801 1124 q 838 1117 831 1118 q 850 1117 844 1117 q 876 1124 858 1117 q 890 1128 883 1126 q 900 1129 896 1129 q 957 1117 899 1129 q 1000 1115 964 1114 q 1100 1117 1036 1115 q 1251 1092 1189 1118 l 1260 1081 q 1321 1069 1276 1081 q 1326 1063 1325 1065 q 1333 1054 1331 1058 q 1342 1051 1338 1053 q 1354 1047 1347 1050 q 1385 1039 1365 1046 l 1392 1032 q 1397 1029 1394 1031 q 1401 1025 1399 1028 q 1463 1013 1422 1024 q 1490 992 1467 1008 q 1535 974 1510 985 q 1592 944 1563 963 q 1604 928 1596 938 l 1624 908 q 1638 904 1632 906 q 1645 901 1640 903 q 1656 899 1650 900 q 1663 890 1658 894 q 1675 878 1668 885 l 1701 851 q 1710 847 1706 850 q 1722 842 1715 844 q 1735 835 1728 839 q 1749 825 1742 831 q 1751 822 1749 825 q 1758 811 1753 818 q 1769 795 1763 804 q 1786 772 1776 786 q 1795 766 1790 769 q 1806 758 1800 763 q 1828 736 1815 750 q 1832 710 1831 728 q 1869 672 1846 699 q 1871 665 1871 669 q 1872 656 1871 661 q 1876 636 1874 650 q 1899 611 1886 631 q 1899 599 1899 606 q 1900 586 1899 593 q 1904 553 1901 571 q 1926 526 1914 544 q 1933 394 1947 472 q 1793 207 1917 303 q 1747 165 1778 192 q 1668 128 1719 154 q 1659 120 1665 125 q 1644 108 1653 115 q 1629 102 1638 106 q 1611 94 1621 99 q 1590 87 1601 92 q 1565 76 1579 82 q 1535 56 1551 65 q 1520 53 1528 54 q 1503 49 1513 51 q 1457 40 1483 46 q 1450 38 1454 39 q 1440 33 1446 36 q 1419 25 1432 29 l 1378 25 q 1354 18 1365 25 q 1340 13 1343 13 q 1336 10 1338 10 q 1333 8 1335 10 q 1294 0 1314 1 q 1272 -2 1283 -1 q 1247 -1 1261 -3 q 1238 -1 1243 -1 q 1225 1 1232 -1 q 1210 3 1218 1 q 1196 6 1203 4 q 1182 8 1189 7 q 1168 10 1175 10 q 1156 12 1161 11 q 1146 13 1150 13 q 1114 7 1135 13 q 1081 1 1096 1 q 1035 8 1063 1 l 1026 19 q 946 19 1019 22 q 875 36 914 19 q 852 45 863 42 q 833 51 842 49 q 807 60 815 58 q 768 65 788 63 q 729 71 749 68 q 691 76 710 74 q 653 82 672 79 q 513 129 558 97 q 514 140 513 138 q 558 174 515 146 q 618 201 603 201 q 643 194 626 201 q 655 190 650 192 q 663 186 660 188 q 800 165 710 179 q 811 163 806 163 q 818 159 814 160 q 828 156 822 158 q 860 149 846 149 q 907 152 878 149 q 976 164 936 156 q 1088 197 1054 181 q 1094 203 1090 200 q 1104 211 1099 207 q 1114 218 1108 214 q 1126 228 1119 222 q 1138 232 1129 229 q 1144 235 1140 233 q 1153 239 1147 236 q 1188 275 1165 246 q 1214 308 1199 289 q 1247 354 1229 328 q 1254 361 1250 357 q 1263 371 1258 365 q 1270 382 1265 376 q 1281 394 1275 388 q 1286 410 1283 401 q 1293 431 1289 419 q 1301 453 1296 442 q 1311 479 1306 465 q 1326 499 1318 486 q 1333 513 1329 506 q 1342 526 1338 519 q 1342 533 1343 529 q 1342 543 1342 538 q 1339 551 1339 549 q 1339 558 1339 556 q 1350 574 1343 563 q 1363 594 1356 582 q 1370 624 1365 600 q 1383 690 1375 647 q 1386 703 1385 696 q 1390 718 1388 710 q 1396 736 1393 726 q 1401 757 1399 746 q 1458 806 1408 772 q 1525 840 1510 840 q 1539 839 1529 839 q 1557 835 1543 838 q 1531 724 1547 779 q 1492 615 1515 669 q 1484 602 1489 610 q 1474 585 1479 594 q 1461 565 1468 575 q 1447 543 1454 554 q 1446 535 1446 542 q 1444 524 1446 528 q 1435 511 1439 515 q 1422 494 1428 504 q 1416 481 1419 489 q 1408 464 1413 474 q 1399 444 1404 454 q 1389 422 1394 433 q 1038 144 1278 249 q 1039 131 1039 140 q 1038 122 1038 128 q 1036 113 1038 118 q 1065 104 1046 110 q 1085 99 1075 101 q 1107 93 1096 96 q 1122 93 1114 93 q 1142 92 1131 93 q 1190 88 1160 90 q 1208 79 1200 85 q 1220 74 1214 76 q 1233 69 1226 72 q 1258 68 1240 68 q 1274 67 1265 67 q 1292 67 1282 67 q 1353 71 1313 67 q 1397 76 1372 74 q 1450 82 1421 79 q 1467 83 1457 83 q 1490 86 1478 83 q 1516 88 1501 86 q 1546 92 1531 89 q 1654 144 1592 104 l 1671 161 q 1681 170 1675 165 q 1693 181 1686 175 q 1710 189 1699 182 q 1721 195 1715 192 q 1733 201 1726 199 q 1749 216 1740 208 q 1764 235 1757 224 q 1778 256 1771 244 q 1793 282 1786 268 q 1829 378 1824 342 q 1829 413 1833 400 q 1822 438 1822 433 l 1822 446 q 1824 454 1824 449 q 1825 468 1824 461 q 1821 494 1828 488 l 1824 506 q 1826 513 1825 508 q 1831 522 1828 517 q 1839 544 1835 532 q 1811 597 1843 571 q 1764 636 1764 636 q 1761 644 1764 636 l 1757 657 q 1750 663 1754 660 q 1740 671 1746 667 q 1731 681 1736 675 q 1721 693 1726 686 q 1717 725 1721 704 q 1690 746 1710 736 q 1673 756 1679 751 q 1664 764 1667 761 q 1657 775 1663 767 q 1649 789 1656 781 q 1641 793 1646 790 q 1631 799 1636 796 q 1619 805 1625 801 q 1606 814 1613 808 q 1593 835 1603 822 q 1585 836 1592 836 q 1574 840 1582 838 q 1566 851 1571 846 q 1554 864 1561 857 q 1525 892 1542 878 q 1502 901 1515 897 q 1471 907 1489 904 q 1419 919 1435 913 q 1349 961 1396 933 q 1288 978 1329 965 q 1269 992 1283 983 q 1161 1029 1215 1018 q 1131 1028 1163 1028 q 1069 1042 1107 1028 q 1004 1056 1032 1056 q 969 1051 992 1056 q 951 1049 958 1050 q 938 1049 943 1049 q 900 1060 936 1049 q 813 1065 889 1065 q 785 1065 799 1065 q 757 1064 771 1065 q 729 1062 743 1063 q 701 1060 715 1061 q 690 1057 696 1058 q 676 1054 683 1056 q 660 1051 669 1053 q 642 1049 651 1050 q 613 1053 631 1049 q 596 1055 603 1054 q 583 1056 589 1056 q 550 1046 568 1056 q 524 1033 531 1035 q 508 1031 517 1032 q 490 1031 500 1031 q 469 1027 481 1028 q 444 1024 458 1026 q 438 1022 443 1022 q 428 1018 432 1019 l 426 1007 q 388 1008 425 1008 q 365 1001 382 1008 q 353 996 358 999 q 343 992 347 993 q 331 991 338 992 q 318 990 325 990 q 301 985 311 988 q 281 979 292 983 l 279 979 l 268 957 q 176 858 236 932 q 158 811 172 839 q 144 790 151 801 q 126 765 136 779 q 108 735 118 751 q 86 701 97 719 q 85 694 85 700 q 83 685 85 689 q 63 651 72 669 q 51 631 57 642 q 39 607 46 619 q 36 596 39 607 q 32 574 33 586 q 15 528 25 554 q 6 497 11 514 q -4 461 1 481 q -9 427 -8 447 q -8 381 -10 407 q 0 304 -7 329 q 3 299 1 301 q 7 293 4 296 q 11 282 11 286 q 13 225 8 257 q 35 200 15 217 q 52 185 46 190 q 61 178 58 179 l 61 167 q 24 142 58 156 q -26 126 -15 126 q -51 131 -39 126 l -60 142 q -67 140 -65 142 l -72 140 q -99 169 -78 140 q -108 182 -104 176 q -115 193 -112 188 q -119 200 -118 197 q -122 204 -121 203 q -119 217 -122 208 q -115 249 -118 238 q -114 251 -114 254 q -121 279 -111 267 q -126 308 -129 290 q -118 346 -125 321 q -122 385 -122 356 q -106 414 -117 393 q -104 421 -104 417 q -103 431 -104 425 q -99 447 -101 440 l -99 456 q -65 522 -86 478 q -53 565 -64 538 q -26 596 -43 575 q -22 603 -24 599 q -17 615 -19 608 q -11 628 -14 622 q -6 642 -8 635 q 0 654 -3 649 q 6 667 3 660 q 10 678 8 674 q 15 686 13 683 q 42 713 25 694 q 46 724 43 718 q 51 736 49 729 q 58 751 54 743 q 68 768 63 758 q 86 790 75 775 q 119 860 99 818 q 139 876 126 867 q 168 900 151 886 q 176 911 171 906 q 186 924 181 917 q 211 957 196 938 z "},"E":{"ha":1590,"x_min":67,"x_max":1540,"o":"m 1318 1386 q 1278 1385 1299 1386 q 1235 1381 1257 1383 q 1117 1336 1178 1374 q 1100 1320 1107 1326 q 1088 1308 1093 1314 q 1068 1301 1076 1304 q 1053 1296 1060 1299 q 999 1250 1015 1267 q 985 1246 992 1247 q 975 1243 979 1244 q 949 1219 960 1229 q 931 1201 938 1208 q 868 1154 874 1163 q 860 1138 863 1144 q 854 1125 857 1131 q 846 1114 850 1119 q 836 1103 842 1108 q 825 1074 829 1094 q 839 1025 821 1042 q 857 1003 858 1007 q 853 994 854 997 q 851 992 851 992 l 851 988 q 808 972 826 978 q 775 960 789 965 q 738 935 747 944 q 719 929 726 932 q 706 925 711 926 q 657 888 669 900 q 626 875 639 881 q 604 867 614 869 q 584 851 593 857 q 569 839 575 844 q 528 813 546 824 q 500 796 511 803 q 467 768 481 781 q 443 746 453 756 q 433 740 438 743 q 426 736 429 738 q 422 727 424 731 q 419 721 421 724 q 383 693 400 704 q 356 675 367 682 q 346 658 350 665 q 339 644 342 650 q 310 610 322 625 q 288 585 297 594 q 264 553 269 565 q 240 536 250 542 q 211 486 219 504 q 158 436 179 453 q 119 361 136 408 l 90 282 q 77 249 83 263 q 68 226 71 235 q 67 208 67 219 q 72 175 67 192 q 82 139 79 151 q 83 113 83 124 q 83 96 83 103 l 90 89 q 90 67 90 76 q 88 51 89 58 q 118 -12 92 18 q 144 -36 132 -24 q 169 -61 157 -49 q 194 -99 188 -85 q 217 -111 208 -108 q 229 -129 224 -122 q 238 -142 235 -136 q 315 -175 285 -175 q 335 -178 332 -175 q 347 -187 343 -186 q 399 -196 361 -193 q 446 -201 436 -199 q 494 -210 468 -210 q 531 -206 492 -210 q 651 -196 571 -203 q 700 -192 679 -193 q 735 -190 721 -192 q 775 -175 760 -182 q 857 -154 822 -162 q 915 -140 892 -146 q 922 -137 918 -139 q 933 -131 926 -135 q 951 -124 950 -124 q 979 -119 972 -124 q 994 -111 989 -114 q 1001 -107 999 -108 q 1035 -99 1024 -101 q 1083 -78 1063 -87 q 1118 -62 1104 -69 l 1125 -44 l 1106 -44 q 1089 -53 1097 -44 q 1076 -61 1081 -60 q 1046 -65 1056 -65 q 1000 -90 1014 -81 q 996 -92 999 -92 q 936 -107 978 -92 q 876 -121 899 -121 l 839 -121 q 815 -129 825 -125 q 799 -136 806 -133 q 739 -142 778 -142 q 718 -141 731 -142 q 688 -139 706 -140 q 658 -137 671 -137 q 636 -136 646 -136 q 619 -136 629 -136 q 600 -137 611 -136 q 581 -139 589 -139 q 568 -139 574 -139 q 413 -100 526 -140 q 376 -92 390 -94 q 340 -59 354 -74 q 315 -33 325 -44 q 303 -28 308 -31 q 296 -24 299 -25 q 287 -7 290 -14 q 281 6 283 0 q 260 25 269 17 q 244 39 251 33 q 208 207 213 94 q 203 239 208 218 q 197 274 197 260 q 204 332 197 301 q 226 382 217 372 q 228 397 228 390 q 229 407 229 403 q 329 565 254 467 l 358 594 q 397 645 381 624 q 424 682 413 667 q 449 700 439 694 q 467 725 461 715 q 519 766 496 749 q 558 794 542 783 q 572 811 567 803 q 610 828 597 824 q 649 855 633 843 q 676 875 665 867 q 714 891 699 885 q 740 901 729 897 q 764 921 757 914 q 831 942 807 938 q 837 945 833 943 q 847 953 840 947 q 867 960 857 960 q 896 958 901 960 q 933 976 925 969 q 1078 992 988 992 l 1136 992 q 1154 1000 1140 993 q 1176 1006 1168 1006 q 1185 1005 1176 1006 q 1214 1004 1194 1004 q 1242 1011 1228 1004 q 1258 1021 1253 1018 q 1267 1025 1264 1024 q 1307 1033 1292 1031 q 1308 1036 1308 1035 q 1311 1040 1308 1038 q 1312 1044 1311 1043 q 1313 1046 1313 1044 q 1279 1061 1315 1061 q 1240 1057 1267 1061 q 1219 1055 1228 1056 q 1203 1054 1210 1054 l 1144 1054 q 1117 1046 1138 1053 q 1082 1040 1100 1040 q 1007 1057 1053 1040 q 950 1096 956 1076 q 949 1126 946 1108 q 985 1197 956 1160 q 1015 1232 1000 1217 q 1044 1256 1029 1247 q 1057 1262 1051 1260 q 1067 1265 1063 1264 q 1104 1293 1074 1267 q 1126 1308 1115 1303 q 1146 1317 1136 1314 q 1247 1329 1189 1331 q 1265 1329 1253 1329 q 1299 1328 1279 1329 q 1326 1326 1314 1326 q 1350 1326 1340 1326 q 1361 1317 1358 1318 q 1353 1285 1353 1289 q 1356 1267 1346 1274 q 1354 1265 1356 1268 l 1356 1265 q 1368 1267 1365 1265 l 1369 1267 q 1369 1268 1371 1268 q 1428 1321 1404 1308 q 1465 1338 1453 1333 l 1464 1360 q 1397 1381 1419 1374 q 1361 1385 1381 1383 q 1318 1386 1342 1386 m 1496 428 q 1483 419 1485 428 q 1485 413 1483 419 q 1490 392 1488 406 q 1496 362 1494 376 q 1497 335 1497 347 q 1488 282 1497 303 q 1465 256 1475 264 q 1445 221 1454 236 q 1431 194 1436 206 q 1413 176 1421 183 q 1400 164 1406 169 q 1392 146 1393 150 q 1370 127 1381 135 q 1353 114 1360 119 q 1337 93 1343 103 q 1326 76 1331 83 q 1264 39 1286 36 q 1263 32 1263 32 q 1261 19 1261 26 l 1261 18 l 1278 18 q 1293 25 1283 15 l 1307 39 q 1422 131 1400 104 q 1464 194 1453 175 q 1481 213 1474 206 q 1494 226 1489 221 q 1536 332 1526 272 q 1536 369 1540 354 q 1531 378 1533 375 q 1525 383 1528 381 q 1520 398 1522 390 q 1515 413 1518 406 q 1496 428 1511 428 z "},"F":{"ha":1797,"x_min":-1,"x_max":1754,"o":"m 1719 1350 q 1704 1346 1713 1350 q 1693 1340 1693 1340 q 1657 1336 1669 1336 q 1636 1326 1650 1333 q 1600 1306 1622 1318 q 1538 1285 1564 1285 q 1518 1288 1532 1285 q 1506 1290 1511 1290 q 1497 1290 1500 1290 q 1336 1294 1447 1294 q 1322 1294 1331 1294 q 1301 1292 1313 1293 q 1281 1290 1290 1290 q 1265 1289 1272 1289 q 1239 1290 1254 1289 q 1203 1292 1224 1290 q 1166 1294 1182 1293 q 1139 1294 1150 1294 q 1060 1281 1086 1294 l 1056 1281 q 1039 1283 1053 1281 q 1030 1285 1033 1285 q 1024 1286 1026 1286 q 990 1281 1011 1286 q 956 1275 969 1275 q 943 1275 950 1275 q 926 1276 936 1275 q 910 1278 917 1278 q 900 1278 904 1278 q 828 1270 868 1278 q 740 1243 788 1263 q 703 1226 718 1235 q 679 1213 689 1218 q 651 1203 665 1207 q 624 1193 638 1199 q 595 1180 608 1186 q 574 1165 582 1174 q 544 1132 553 1144 q 535 1126 539 1129 q 525 1119 531 1122 q 513 1100 515 1114 q 497 1071 508 1079 q 483 1056 485 1061 q 483 1043 481 1049 q 485 1031 485 1038 l 507 1031 q 561 1054 511 1031 q 610 1085 607 1078 q 613 1094 613 1093 q 615 1110 614 1104 q 615 1122 615 1117 q 618 1129 618 1128 q 669 1188 631 1165 q 726 1204 690 1200 q 754 1208 740 1207 q 783 1211 768 1210 q 815 1224 792 1213 q 849 1232 833 1232 q 894 1229 892 1228 q 903 1233 897 1231 q 919 1239 910 1235 q 947 1244 932 1244 q 960 1244 953 1244 q 976 1242 967 1243 q 993 1240 986 1240 q 1006 1239 1000 1239 q 1019 1240 1011 1239 q 1038 1240 1026 1240 l 1068 1240 q 1170 1242 1131 1240 q 1229 1246 1210 1243 q 1263 1251 1249 1249 q 1288 1257 1276 1254 q 1308 1255 1296 1257 q 1335 1250 1319 1253 q 1381 1244 1363 1244 q 1394 1245 1386 1244 q 1414 1247 1403 1246 q 1433 1249 1425 1249 q 1447 1250 1442 1250 q 1472 1243 1465 1250 q 1478 1236 1475 1240 q 1485 1229 1482 1232 q 1444 1162 1463 1190 q 1414 1114 1425 1133 q 1390 1074 1400 1090 q 1374 1046 1381 1057 q 1354 1027 1363 1035 q 1340 1014 1346 1019 q 1321 969 1329 988 q 1308 936 1313 950 q 1288 903 1306 929 q 1272 867 1274 883 q 1268 836 1269 849 q 1265 814 1267 824 q 1232 764 1246 778 q 1224 746 1226 756 q 1186 738 1213 738 q 1136 733 1146 738 q 1113 721 1125 726 q 1089 708 1100 715 l 1089 685 q 1108 683 1094 683 q 1149 681 1124 683 q 1182 676 1168 679 q 1207 671 1196 674 l 1206 663 q 1207 658 1206 663 l 1207 649 q 1199 635 1207 644 q 1192 626 1194 629 q 1189 621 1190 622 q 1171 564 1182 604 q 1154 506 1163 524 q 1137 480 1144 490 q 1124 463 1129 469 q 1114 435 1118 451 q 1104 397 1110 419 q 1088 335 1096 353 q 1056 288 1081 315 q 1036 263 1044 274 q 1025 246 1028 253 q 1014 214 1018 228 q 1007 190 1010 200 q 961 140 979 154 q 935 94 951 131 q 907 53 919 63 q 894 44 900 47 q 883 39 889 40 q 838 -7 851 10 q 789 -31 804 -25 q 760 -60 768 -50 q 744 -64 756 -61 q 735 -65 739 -65 q 729 -67 732 -65 q 678 -106 693 -92 q 649 -115 661 -111 q 628 -119 636 -118 q 604 -132 614 -126 q 588 -142 594 -137 q 303 -197 447 -197 q 136 -161 189 -197 q 117 -133 121 -143 q 95 -112 106 -121 q 78 -96 85 -103 q 60 -8 60 -65 q 62 28 60 10 q 67 67 64 47 q 73 101 69 85 q 82 131 76 117 q 76 133 76 131 q 78 140 78 138 q 46 136 49 136 q 6 33 14 81 q 3 -22 -1 -4 q 21 -54 13 -44 q 29 -87 26 -74 q 35 -110 32 -100 q 78 -157 61 -143 q 83 -163 78 -157 q 99 -181 88 -169 q 124 -201 111 -196 q 152 -211 136 -207 q 188 -218 168 -215 q 222 -222 206 -221 q 256 -225 239 -222 q 268 -228 260 -226 q 290 -233 276 -231 q 328 -239 311 -239 l 340 -239 q 399 -219 376 -229 q 442 -215 406 -217 q 485 -207 468 -214 q 497 -199 492 -203 q 504 -193 501 -196 q 564 -175 539 -182 q 607 -165 589 -168 q 628 -153 619 -158 q 643 -142 638 -147 q 667 -136 657 -139 q 685 -132 678 -133 q 744 -101 719 -114 q 785 -76 769 -87 q 807 -68 797 -71 q 824 -62 817 -65 q 833 -52 829 -57 q 840 -44 838 -47 q 897 -17 878 -22 q 1007 85 974 47 q 1032 104 1021 96 q 1050 118 1043 113 q 1056 126 1053 121 q 1063 138 1058 131 q 1075 158 1068 151 l 1085 163 q 1094 185 1090 176 q 1100 201 1097 194 q 1125 235 1114 221 q 1143 260 1136 250 q 1153 288 1150 275 q 1160 307 1157 300 q 1176 326 1169 318 q 1189 339 1183 333 q 1200 368 1196 356 q 1207 389 1204 381 q 1233 441 1222 419 q 1251 478 1244 463 q 1254 488 1253 482 q 1257 501 1256 494 q 1260 515 1258 508 q 1263 524 1261 521 q 1290 574 1263 525 q 1311 624 1308 604 q 1321 661 1315 656 l 1325 663 q 1335 671 1331 667 q 1346 678 1340 675 q 1376 685 1356 685 q 1387 684 1381 685 q 1401 683 1393 683 q 1415 681 1410 681 q 1428 681 1422 681 q 1611 718 1513 681 l 1611 736 q 1444 724 1511 724 q 1354 746 1358 724 q 1354 778 1350 758 q 1374 834 1365 810 q 1390 874 1383 858 q 1434 985 1418 946 q 1456 1035 1450 1025 q 1501 1102 1482 1074 q 1536 1150 1521 1131 q 1547 1165 1539 1153 q 1565 1197 1554 1178 q 1597 1240 1583 1226 q 1672 1286 1622 1265 q 1724 1308 1704 1300 q 1751 1322 1744 1317 l 1754 1336 q 1719 1350 1725 1350 z "},"G":{"ha":1468,"x_min":44,"x_max":1428,"o":"m 1197 1236 q 1158 1235 1174 1236 q 1131 1233 1142 1235 q 1061 1215 1090 1224 q 1013 1199 1032 1206 l 929 1178 q 846 1149 876 1165 q 819 1126 826 1133 q 758 1093 785 1107 q 714 1069 732 1079 q 701 1057 707 1063 q 692 1047 694 1051 q 663 1036 669 1038 q 601 985 642 1022 q 567 954 582 967 q 542 935 553 942 q 486 900 507 911 q 453 861 467 878 q 429 833 439 844 q 415 822 424 828 q 396 810 407 817 q 364 788 375 799 q 324 719 335 743 q 309 706 315 713 q 299 697 303 700 q 283 676 292 690 q 263 643 274 663 q 228 590 240 603 q 208 579 214 581 q 199 558 203 568 q 192 539 194 547 q 172 519 181 528 q 156 506 163 511 q 143 454 144 472 q 122 422 132 435 q 104 399 111 408 q 53 233 74 343 q 47 174 44 196 q 67 136 50 156 q 88 104 85 115 q 88 49 90 68 q 114 -15 96 3 q 128 -28 115 -18 q 164 -60 140 -39 q 179 -76 174 -68 q 293 -92 206 -94 q 326 -90 313 -90 q 346 -86 339 -89 q 374 -76 360 -83 q 410 -68 388 -68 q 483 -51 451 -68 q 550 -19 544 -19 q 626 7 556 -17 q 668 22 650 14 q 701 38 686 31 q 753 75 735 58 q 788 90 772 85 q 814 99 803 96 q 840 122 829 111 q 858 139 851 132 q 914 170 890 157 q 953 190 938 183 q 979 214 967 201 q 1006 238 992 226 q 1065 267 1036 267 q 1092 239 1099 267 q 1064 168 1088 218 q 1046 128 1053 144 q 1038 101 1039 111 q 1035 78 1035 88 q 1033 63 1035 69 q 1008 8 1019 31 q 986 -31 996 -15 q 967 -79 975 -58 q 956 -115 960 -100 q 913 -171 928 -153 q 896 -204 903 -190 q 885 -228 889 -218 q 831 -278 849 -264 q 812 -305 819 -293 q 800 -324 804 -317 q 700 -387 738 -369 q 671 -409 683 -400 q 651 -425 658 -418 q 607 -444 626 -436 q 574 -458 588 -453 q 558 -472 564 -465 q 547 -482 551 -478 q 424 -510 496 -510 q 315 -486 365 -510 q 269 -462 292 -475 q 222 -437 246 -450 q 224 -458 224 -439 q 232 -476 225 -469 q 253 -484 243 -482 q 269 -487 263 -486 q 292 -507 275 -490 q 314 -526 306 -524 q 411 -544 351 -544 q 564 -515 490 -544 q 619 -481 596 -496 q 658 -454 643 -465 q 707 -437 689 -442 q 753 -408 729 -426 q 807 -367 778 -390 q 872 -314 849 -332 q 903 -290 896 -296 q 939 -269 924 -278 q 981 -213 964 -237 q 1008 -171 999 -189 q 1044 -129 1010 -168 q 1074 -87 1074 -96 q 1076 -75 1076 -74 q 1100 -42 1088 -54 q 1114 -3 1108 -19 q 1122 25 1119 14 q 1138 50 1124 29 q 1149 76 1147 67 q 1151 96 1150 88 q 1151 110 1151 104 q 1167 142 1160 129 q 1179 161 1174 154 q 1196 229 1192 208 q 1201 239 1197 232 q 1213 257 1206 246 q 1225 285 1222 274 q 1227 301 1226 294 q 1228 313 1228 307 q 1247 353 1238 336 q 1263 381 1256 369 q 1272 412 1265 388 q 1292 479 1279 436 q 1309 537 1301 514 q 1324 572 1317 560 l 1338 579 q 1389 651 1357 603 q 1426 725 1424 706 q 1421 742 1428 729 q 1417 750 1418 747 q 1414 754 1415 753 q 1292 703 1335 743 q 1242 640 1251 667 q 1240 633 1240 639 q 1236 610 1238 617 q 1206 568 1219 579 q 1193 528 1194 540 q 1170 488 1181 504 q 1153 460 1160 471 q 1141 428 1146 442 q 1133 404 1136 414 q 1082 375 1103 382 q 1056 340 1067 356 q 1038 314 1044 325 q 992 285 1006 290 q 978 270 985 276 q 969 258 972 264 q 957 254 963 256 q 947 251 951 253 q 860 172 886 201 q 803 144 819 150 q 772 119 785 131 q 751 100 760 108 q 642 54 678 64 q 615 38 626 44 q 596 26 603 32 q 465 6 547 6 q 450 6 460 6 q 428 7 442 6 q 406 8 415 8 q 389 8 396 8 q 358 8 369 8 q 343 7 346 7 q 322 8 326 7 q 283 39 308 13 q 250 82 257 67 q 241 126 244 107 q 236 157 238 144 q 229 168 236 158 q 224 183 222 178 q 226 193 225 189 q 229 200 228 197 q 224 219 231 207 q 219 229 221 225 q 217 236 218 233 q 216 258 215 243 q 221 294 217 272 q 235 363 228 333 q 247 411 242 392 q 251 438 250 426 q 254 457 253 450 q 283 522 274 507 l 300 572 q 324 617 310 600 q 334 628 329 624 q 343 636 339 633 q 355 658 350 649 q 363 675 360 668 q 403 715 388 703 q 408 728 406 722 q 413 736 411 733 q 435 756 425 747 q 453 771 446 765 q 459 784 457 778 q 463 793 461 790 q 476 802 469 799 q 488 808 482 806 q 538 872 525 851 q 594 920 569 900 q 636 951 618 940 q 660 976 650 965 q 678 994 671 988 l 689 996 q 701 1008 696 1003 q 710 1019 707 1014 q 760 1045 738 1035 q 797 1063 782 1056 q 814 1074 803 1065 q 843 1096 825 1083 q 892 1125 871 1115 q 1082 1160 975 1160 q 1122 1156 1094 1160 q 1160 1151 1147 1151 q 1289 1199 1208 1151 q 1286 1205 1288 1201 q 1285 1214 1285 1208 q 1276 1228 1281 1225 q 1197 1236 1264 1236 z "},"H":{"ha":2085,"x_min":-64,"x_max":3201,"o":"m 3117 1804 l 3118 1804 q 3201 1735 3201 1804 q 3118 1554 3201 1656 q 3047 1477 3083 1513 q 2969 1414 3010 1442 q 2953 1406 2963 1411 q 2942 1400 2947 1403 q 2929 1394 2936 1397 q 2879 1353 2913 1378 q 2854 1347 2867 1353 q 2842 1336 2849 1342 q 2826 1324 2835 1331 q 2810 1309 2819 1317 q 2789 1292 2800 1301 q 2767 1280 2779 1286 q 2740 1267 2756 1274 q 2676 1231 2711 1251 q 2657 1215 2669 1224 q 2643 1206 2650 1211 q 2626 1196 2636 1201 q 2568 1171 2606 1189 q 2539 1146 2560 1160 q 2517 1143 2531 1143 q 2496 1140 2504 1143 l 2488 1128 q 2439 1100 2464 1114 q 2388 1072 2414 1086 q 2335 1046 2361 1058 q 2281 1019 2308 1033 q 2221 994 2261 1014 q 2204 964 2215 982 q 2193 952 2199 958 q 2181 939 2188 946 q 2167 924 2174 932 q 2151 904 2160 915 q 2139 879 2144 893 q 2132 864 2136 872 q 2125 846 2128 856 q 2118 828 2122 836 q 2111 813 2114 819 q 2106 800 2108 806 q 2100 789 2103 794 q 2076 762 2090 778 q 2046 722 2063 746 q 2019 667 2035 707 q 2013 649 2015 657 q 2007 633 2010 640 q 2001 622 2004 626 q 1996 613 1999 617 q 1925 515 1965 578 q 1911 476 1919 499 q 1890 425 1903 453 q 1882 412 1888 419 q 1869 393 1876 404 q 1856 356 1860 379 q 1834 328 1846 344 q 1807 292 1822 313 q 1799 271 1803 285 q 1796 258 1797 264 q 1793 250 1794 253 q 1754 194 1783 236 q 1746 168 1751 182 q 1740 152 1743 161 q 1731 133 1736 143 q 1706 100 1724 122 q 1692 57 1697 92 q 1667 13 1682 46 q 1658 -12 1661 1 q 1651 -44 1654 -26 q 1649 -65 1650 -56 q 1646 -81 1647 -74 q 1643 -93 1644 -87 q 1640 -101 1642 -99 q 1668 -122 1656 -115 q 1696 -132 1678 -128 l 1696 -136 q 1694 -142 1694 -139 q 1693 -147 1694 -144 q 1621 -185 1690 -162 q 1535 -206 1556 -206 q 1508 -194 1519 -206 q 1497 -185 1503 -189 q 1486 -175 1492 -181 q 1488 -168 1488 -172 q 1492 -158 1489 -164 q 1500 -139 1494 -149 q 1520 -124 1510 -133 q 1543 -103 1531 -115 q 1553 -82 1547 -93 q 1565 -57 1558 -71 q 1599 6 1579 -31 q 1616 24 1607 14 q 1636 49 1625 35 q 1643 61 1639 54 q 1650 76 1647 68 q 1657 93 1653 83 q 1664 114 1661 103 q 1676 151 1669 136 q 1682 165 1679 158 q 1688 176 1685 171 q 1704 196 1694 188 q 1715 226 1711 200 q 1732 254 1718 236 q 1753 306 1747 274 q 1758 317 1753 311 l 1771 329 l 1785 343 q 1793 353 1790 346 q 1808 386 1800 367 q 1822 429 1815 406 q 1830 453 1826 443 q 1836 474 1833 464 q 1849 503 1842 492 l 1860 514 q 1872 528 1864 517 q 1931 649 1881 542 l 1944 661 q 1946 668 1946 664 q 1947 678 1946 672 q 1949 689 1949 683 q 1951 701 1950 694 q 1954 708 1953 704 q 1958 718 1956 713 q 1964 728 1961 724 q 1969 739 1967 733 q 1975 749 1972 744 q 1981 758 1978 753 q 1985 765 1983 763 q 1988 771 1986 768 q 1996 799 1992 785 q 2006 828 2000 813 q 2036 874 2017 856 q 2040 881 2040 875 q 2021 917 2042 893 q 1983 906 2003 911 q 1944 894 1964 901 q 1903 883 1925 889 q 1857 868 1881 876 q 1708 803 1729 824 q 1667 738 1685 776 q 1659 720 1663 729 q 1651 701 1656 711 q 1643 685 1647 693 q 1636 667 1639 676 q 1617 633 1631 656 q 1603 613 1610 624 q 1586 589 1596 601 q 1569 565 1576 576 q 1556 544 1563 554 q 1545 528 1550 535 q 1538 515 1540 521 q 1533 508 1536 513 q 1528 496 1531 503 q 1522 482 1525 489 q 1515 468 1518 475 q 1504 455 1513 465 q 1481 425 1496 444 q 1456 378 1460 400 q 1439 354 1454 365 q 1414 333 1415 338 q 1401 313 1408 324 q 1383 290 1393 303 q 1363 263 1374 278 q 1340 232 1353 249 q 1268 164 1315 211 q 1251 135 1264 153 q 1235 117 1244 126 q 1210 96 1225 107 q 1194 85 1201 89 q 1182 75 1188 81 q 1172 67 1176 71 q 1165 61 1168 64 q 1158 50 1163 56 q 1147 38 1153 44 q 1135 23 1142 31 q 1119 6 1128 15 q 1086 -11 1108 1 l 1083 -22 l 1078 -22 l 1049 -51 q 1027 -72 1039 -61 q 1000 -94 1015 -82 q 969 -120 986 -106 q 933 -150 953 -135 q 921 -156 928 -153 q 907 -165 914 -160 q 874 -186 892 -174 l 860 -200 q 852 -207 857 -203 q 842 -217 847 -211 q 817 -229 831 -221 q 801 -237 810 -232 q 783 -247 793 -242 q 746 -282 775 -257 q 728 -290 736 -285 q 715 -296 722 -293 q 701 -301 708 -299 q 690 -309 696 -304 q 678 -319 685 -314 q 644 -344 663 -331 q 578 -374 621 -356 q 554 -394 569 -382 q 517 -424 539 -407 q 451 -450 499 -435 q 409 -464 425 -458 q 386 -472 393 -469 q 332 -497 358 -485 q 278 -519 306 -508 q 161 -542 225 -542 l 114 -542 q 100 -540 107 -540 q 86 -540 93 -540 l 67 -540 q -3 -487 43 -540 q -50 -410 -46 -437 q -50 -362 -47 -394 q -58 -324 -50 -356 q -60 -281 -64 -306 q -53 -255 -57 -268 q -42 -226 -49 -242 q -27 -191 -32 -204 q -21 -175 -22 -178 q -8 -118 -15 -158 q 82 42 7 -28 q 89 47 85 44 q 99 53 93 50 q 110 59 104 56 q 122 67 115 63 q 144 89 131 76 q 158 101 151 94 q 175 115 165 108 q 193 122 179 117 q 206 128 199 125 q 219 133 213 131 q 269 176 231 146 q 286 181 275 178 q 297 183 292 182 q 308 188 301 185 q 331 206 318 194 q 364 231 344 217 q 394 243 374 233 q 415 251 404 246 q 436 261 425 256 q 448 272 442 267 q 461 283 454 276 q 478 296 468 289 q 499 310 488 303 q 578 347 529 324 q 628 372 601 358 q 686 400 654 385 q 710 415 697 407 q 739 433 724 424 q 773 451 754 442 q 814 472 792 461 q 851 481 826 474 q 882 497 861 483 q 908 514 893 504 q 942 536 922 524 q 1039 583 1007 579 q 1064 582 1035 582 q 1075 586 1068 582 q 1089 594 1081 588 l 1101 603 q 1110 607 1107 607 q 1126 613 1117 610 q 1149 618 1136 615 q 1211 631 1174 624 q 1214 617 1214 617 q 1161 588 1211 601 q 1146 583 1154 585 q 1129 579 1138 582 q 1113 575 1121 576 q 1097 571 1104 574 q 881 479 1093 568 q 869 473 875 476 q 856 465 863 469 q 842 458 849 463 q 826 447 835 453 q 794 424 807 433 q 771 413 781 415 q 708 385 744 401 q 622 346 671 369 q 610 335 617 340 q 596 324 603 331 q 579 311 589 318 q 558 297 569 304 q 536 289 551 296 q 522 283 529 286 q 506 278 515 281 q 491 267 499 272 q 474 254 483 261 q 453 240 464 247 q 431 225 443 233 q 415 222 425 224 q 392 213 406 219 q 377 205 385 210 q 361 194 369 200 q 344 182 353 189 q 325 168 335 175 q 301 150 311 157 q 282 136 290 143 q 269 127 275 131 q 260 121 263 124 q 218 100 240 114 q 194 85 207 93 q 165 67 181 76 q 149 46 161 63 q 135 26 142 38 q 117 0 128 15 q 87 -44 97 -28 q 75 -65 76 -60 q 71 -90 72 -76 q 69 -106 69 -97 q 65 -126 68 -115 q 50 -158 64 -139 q 41 -175 44 -168 q 36 -186 38 -182 q 29 -214 29 -203 q 26 -226 26 -221 q 25 -237 26 -232 q 23 -253 24 -244 q 21 -268 22 -261 q 19 -283 19 -275 q 19 -299 19 -292 q 64 -433 19 -381 q 201 -487 111 -487 q 351 -460 271 -487 q 372 -449 361 -454 q 396 -436 382 -443 q 425 -422 410 -429 q 458 -404 440 -414 q 510 -387 472 -400 q 546 -356 521 -375 q 563 -351 551 -354 q 573 -349 568 -350 q 585 -344 578 -347 q 694 -278 628 -322 q 707 -265 700 -272 q 724 -250 714 -258 q 742 -234 732 -243 q 764 -215 753 -225 q 776 -209 769 -212 q 792 -201 783 -206 q 810 -192 800 -197 q 831 -181 819 -187 q 856 -160 840 -175 q 870 -145 863 -153 q 886 -128 878 -137 q 916 -97 903 -110 q 940 -76 929 -85 q 983 -48 958 -65 q 1038 -4 1007 -31 q 1052 11 1044 3 q 1069 31 1060 19 q 1090 53 1079 42 q 1114 79 1100 65 q 1139 99 1122 83 q 1153 111 1146 104 q 1171 126 1161 118 q 1190 156 1179 140 q 1214 192 1200 172 q 1243 233 1228 211 q 1276 278 1258 254 q 1311 310 1290 286 q 1319 333 1313 318 q 1326 347 1322 340 q 1335 364 1329 354 q 1345 372 1340 368 q 1356 382 1350 376 q 1364 400 1358 392 q 1369 412 1367 406 q 1375 425 1372 418 q 1392 447 1376 431 q 1407 467 1399 456 q 1428 493 1415 478 q 1464 571 1458 529 q 1474 600 1467 583 q 1494 639 1482 617 q 1533 704 1533 704 q 1535 713 1535 708 q 1536 725 1535 718 q 1538 739 1538 732 q 1540 753 1539 746 q 1574 811 1542 774 q 1610 886 1604 850 q 1618 910 1613 900 l 1632 915 q 1640 933 1635 925 q 1646 945 1643 939 q 1651 958 1649 951 q 1688 1001 1668 972 q 1690 1017 1689 1008 q 1694 1038 1692 1026 q 1700 1059 1697 1047 q 1706 1085 1703 1071 q 1708 1092 1707 1088 q 1711 1099 1710 1096 l 1715 1111 q 1708 1125 1718 1118 q 1703 1131 1706 1128 q 1700 1135 1701 1133 q 1668 1126 1686 1132 q 1648 1121 1658 1124 q 1625 1115 1638 1118 q 1626 1117 1625 1117 q 1621 1115 1625 1115 q 1601 1118 1599 1115 q 1604 1119 1603 1119 l 1607 1122 q 1626 1138 1614 1125 q 1635 1147 1632 1143 q 1642 1153 1639 1150 q 1665 1167 1646 1157 q 1683 1176 1672 1171 q 1707 1189 1693 1182 q 1767 1231 1749 1211 q 1771 1240 1768 1235 q 1776 1251 1774 1244 q 1793 1281 1782 1264 q 1860 1332 1807 1299 q 1929 1365 1911 1365 q 1953 1364 1957 1365 q 1954 1361 1954 1363 q 1957 1358 1954 1361 q 1963 1349 1957 1357 q 1964 1328 1967 1343 q 1931 1274 1953 1308 q 1908 1230 1919 1256 q 1886 1168 1897 1204 q 1864 1103 1874 1129 q 1844 1063 1854 1078 q 1831 1048 1839 1057 q 1815 1025 1824 1039 q 1781 961 1797 997 q 1746 879 1764 925 q 1751 876 1749 878 q 1760 872 1754 875 q 1779 867 1769 867 q 1814 879 1794 867 q 1836 892 1826 885 q 1842 895 1839 894 q 1846 897 1844 896 q 1878 906 1860 900 q 1898 911 1888 908 q 1922 917 1908 914 q 1976 946 1940 926 q 2046 958 2000 949 q 2063 969 2053 964 q 2083 981 2072 974 q 2106 993 2094 986 q 2132 1007 2118 1000 l 2139 1007 q 2174 1076 2154 1024 q 2183 1099 2178 1089 q 2192 1119 2188 1110 q 2199 1134 2194 1128 q 2206 1146 2203 1140 l 2218 1158 q 2229 1168 2224 1163 q 2243 1181 2235 1174 q 2271 1221 2269 1203 q 2296 1254 2272 1235 q 2318 1275 2313 1271 l 2328 1285 q 2335 1300 2331 1292 q 2346 1318 2340 1308 q 2371 1364 2356 1336 q 2415 1400 2386 1375 q 2421 1406 2417 1401 q 2432 1418 2425 1411 q 2448 1436 2439 1425 q 2469 1461 2457 1447 q 2486 1480 2478 1472 q 2501 1494 2494 1488 q 2526 1515 2515 1508 q 2532 1517 2529 1517 q 2538 1518 2535 1517 q 2551 1522 2546 1521 q 2574 1542 2560 1531 q 2610 1569 2589 1554 q 2616 1572 2613 1571 q 2622 1575 2619 1574 q 2640 1583 2632 1578 q 2711 1638 2663 1601 q 2782 1663 2733 1643 q 2797 1674 2789 1668 q 2817 1686 2806 1679 q 2838 1700 2826 1693 q 2864 1717 2850 1707 q 2876 1722 2869 1719 q 2890 1728 2883 1725 q 2906 1733 2897 1731 q 2925 1739 2915 1736 q 2965 1751 2950 1746 q 2978 1756 2972 1754 q 2988 1758 2985 1757 q 3025 1779 3001 1768 q 3050 1790 3036 1785 q 3079 1801 3064 1796 q 3100 1803 3086 1803 q 3117 1804 3106 1804 m 2293 1086 l 2303 1086 q 2304 1081 2306 1086 q 2361 1093 2324 1083 q 2378 1106 2367 1099 q 2389 1113 2383 1108 q 2401 1122 2394 1117 q 2435 1133 2414 1124 q 2456 1142 2444 1138 q 2481 1153 2467 1147 q 2490 1165 2482 1157 l 2503 1178 q 2556 1203 2517 1188 q 2574 1210 2565 1207 q 2589 1215 2582 1213 q 2601 1220 2596 1218 q 2608 1225 2606 1222 q 2660 1268 2624 1240 q 2671 1272 2665 1269 q 2683 1278 2676 1275 q 2699 1284 2690 1281 q 2717 1292 2707 1288 q 2724 1299 2719 1294 q 2735 1308 2729 1303 q 2747 1317 2740 1313 q 2761 1328 2754 1322 q 2776 1334 2768 1331 q 2794 1342 2785 1338 q 2815 1351 2804 1346 q 2840 1364 2826 1357 l 2868 1392 q 2885 1408 2875 1399 q 2906 1426 2894 1417 q 2925 1440 2915 1433 q 2944 1454 2935 1447 q 2963 1468 2954 1461 q 2982 1482 2972 1475 q 3047 1546 3032 1519 q 3050 1553 3049 1549 q 3053 1563 3051 1557 q 3061 1583 3054 1571 q 3072 1603 3067 1594 q 3085 1622 3078 1613 q 3092 1641 3088 1629 q 3099 1672 3096 1653 q 3100 1686 3100 1676 q 3101 1699 3101 1690 q 3057 1749 3101 1749 q 3035 1747 3038 1749 q 3022 1738 3026 1742 q 3016 1733 3019 1735 q 3007 1728 3013 1731 q 2986 1721 2996 1725 q 2965 1713 2976 1717 q 2944 1705 2954 1708 q 2922 1697 2933 1701 q 2843 1657 2872 1679 q 2837 1649 2840 1654 q 2828 1638 2833 1644 q 2816 1631 2822 1635 q 2801 1622 2810 1626 q 2764 1606 2786 1615 q 2726 1589 2742 1596 q 2701 1576 2710 1582 q 2614 1515 2650 1544 q 2554 1461 2578 1486 q 2521 1407 2543 1442 q 2463 1353 2500 1390 q 2455 1338 2460 1346 q 2444 1321 2450 1331 q 2432 1301 2439 1311 q 2418 1279 2425 1290 q 2383 1235 2400 1257 q 2347 1190 2365 1213 q 2293 1086 2311 1146 m 1594 1110 l 1592 1097 q 1439 1014 1546 1068 q 1426 1012 1433 1013 q 1410 1008 1419 1011 q 1368 1000 1390 1006 q 1366 999 1368 1000 q 1358 996 1364 999 q 1346 990 1353 993 q 1329 985 1339 988 q 1288 975 1310 975 q 1226 983 1289 975 q 1229 996 1229 994 q 1235 1000 1229 1006 q 1258 1025 1242 1013 q 1265 1026 1261 1026 q 1276 1028 1271 1026 q 1289 1030 1282 1029 q 1303 1032 1296 1031 q 1324 1040 1311 1033 q 1338 1045 1331 1043 q 1354 1050 1344 1047 q 1374 1050 1364 1050 q 1399 1051 1385 1050 q 1458 1056 1425 1054 q 1526 1086 1482 1060 q 1594 1110 1569 1111 m 1440 722 q 1453 714 1453 722 q 1443 697 1451 708 q 1417 687 1432 692 q 1382 675 1401 682 q 1341 663 1363 669 q 1294 649 1319 656 l 1297 668 q 1440 722 1411 722 z "},"I":{"ha":896,"x_min":-28,"x_max":979,"o":"m 943 1111 q 975 1088 979 1111 q 935 1024 971 1068 q 882 975 915 1008 q 867 943 876 969 q 854 910 856 914 q 851 903 853 908 q 843 889 849 899 q 831 867 838 879 q 814 836 824 854 q 794 795 803 814 q 783 761 786 776 q 775 711 781 744 q 765 673 772 694 q 746 624 758 651 q 731 589 738 604 q 718 563 724 574 q 711 545 714 551 q 707 536 708 539 q 651 399 672 457 q 611 307 629 340 q 449 114 540 175 q 442 111 446 113 q 432 107 438 110 q 408 99 424 106 q 401 91 406 96 q 389 81 396 86 q 358 60 375 69 q 339 56 353 58 q 326 53 333 54 q 313 49 319 51 q 294 42 303 46 q 275 33 285 38 l 238 17 q 157 0 196 0 q 24 32 100 0 q 18 35 21 33 q 10 40 15 38 q 1 47 6 43 q -7 56 -3 51 q -22 71 -15 63 q -28 82 -28 76 l -28 88 q -26 92 -26 89 q 1 190 -7 178 q 19 203 8 192 q 50 185 32 199 q 53 161 54 178 q 51 144 51 154 l 51 136 q 147 49 60 49 q 288 76 201 49 q 411 146 378 106 q 436 196 417 163 q 461 213 444 200 q 475 233 465 217 q 485 249 479 240 q 497 271 490 258 q 526 333 524 321 q 528 340 528 336 q 529 350 528 344 q 533 371 531 358 q 569 454 538 394 q 607 542 600 510 q 611 589 607 544 q 626 624 614 604 q 640 654 638 642 q 643 671 640 657 q 647 693 646 681 q 663 725 649 706 q 675 756 672 743 q 676 763 676 758 q 678 772 676 767 q 682 793 679 781 q 685 801 683 797 q 689 811 686 806 q 695 821 692 817 q 701 831 699 825 q 707 839 704 835 q 713 847 710 843 q 717 858 717 853 q 721 890 719 869 l 717 894 q 715 897 717 894 q 713 901 714 899 q 694 906 710 906 q 658 901 681 906 q 604 888 636 896 q 519 857 531 867 q 503 829 511 851 q 488 801 494 811 l 392 747 l 382 747 q 365 764 361 747 q 406 824 371 793 l 417 824 q 427 831 419 825 q 447 850 435 838 q 470 869 463 863 q 481 878 478 876 q 618 922 506 892 q 642 928 629 925 q 671 935 656 931 q 702 944 686 939 q 738 954 718 949 q 821 1031 778 975 q 838 1056 825 1040 q 851 1066 839 1057 q 890 1089 864 1075 q 907 1099 897 1093 q 932 1111 917 1104 l 943 1111 z "},"J":{"ha":808,"x_min":-693,"x_max":968,"o":"m 931 1151 q 963 1118 968 1151 q 960 1114 961 1117 q 956 1108 958 1111 q 949 1099 950 1100 q 946 1090 949 1099 q 943 1084 944 1088 q 942 1076 942 1081 q 938 1063 938 1069 q 935 1054 935 1058 q 918 1013 928 1031 q 910 994 914 1003 q 900 975 906 985 q 883 950 893 964 q 873 934 878 943 q 863 915 868 925 q 860 903 861 910 q 856 890 858 897 q 847 857 853 875 q 840 844 844 851 q 829 826 835 836 q 808 781 818 807 q 803 751 807 779 q 797 733 801 744 q 783 706 793 722 q 758 658 760 663 q 747 632 753 647 q 735 599 742 617 q 720 559 728 581 q 701 514 713 538 q 686 488 699 504 q 678 473 682 481 q 667 457 674 465 q 638 416 647 429 q 626 401 628 403 q 620 387 624 394 q 611 369 617 379 q 600 349 606 360 q 588 326 594 339 q 581 319 585 324 q 572 308 576 314 q 563 297 568 303 q 553 285 558 292 q 542 260 549 274 q 529 231 536 246 q 513 197 522 215 q 493 160 504 179 q 468 135 482 151 l 464 122 q 461 116 463 119 q 457 107 460 113 q 439 96 450 104 q 426 72 433 85 q 410 43 419 58 q 357 -3 385 25 q 353 -12 356 -6 q 349 -25 351 -18 q 299 -62 329 -37 q 208 -153 271 -94 q 199 -158 204 -156 q 188 -164 194 -161 q 160 -181 172 -171 l 136 -204 q 103 -233 121 -217 q 85 -240 96 -236 q 64 -250 75 -244 q 51 -258 58 -253 q 38 -268 44 -262 q 22 -280 31 -274 q 3 -293 13 -286 q -10 -297 -3 -294 q -25 -303 -17 -300 q -44 -310 -33 -306 q -65 -319 -54 -314 q -93 -339 -78 -329 q -111 -351 -101 -344 q -132 -364 -121 -357 q -144 -361 -133 -365 q -169 -374 -153 -361 q -196 -389 -190 -387 q -235 -394 -214 -389 q -257 -407 -244 -401 q -271 -413 -264 -410 q -287 -421 -278 -417 q -365 -442 -326 -435 q -442 -451 -403 -450 q -492 -443 -469 -451 q -519 -433 -508 -436 q -535 -428 -529 -429 l -550 -428 q -568 -414 -560 -428 q -578 -398 -575 -403 q -582 -393 -582 -393 q -639 -351 -606 -382 q -637 -342 -637 -349 q -639 -335 -639 -339 q -640 -329 -639 -332 q -672 -293 -653 -318 q -676 -261 -679 -282 q -676 -229 -675 -235 q -686 -203 -679 -219 q -693 -174 -693 -182 q -689 -132 -693 -156 q -631 26 -671 -24 q -436 161 -571 106 q -433 146 -437 157 q -537 71 -471 122 q -599 -36 -579 29 q -611 -78 -603 -51 q -619 -90 -614 -82 q -629 -111 -624 -99 q -632 -143 -632 -125 q -631 -166 -632 -154 q -631 -193 -631 -178 q -619 -271 -628 -253 q -612 -281 -617 -275 q -601 -293 -607 -286 q -493 -399 -550 -383 q -421 -407 -464 -407 q -399 -407 -410 -407 q -378 -404 -387 -407 q -359 -403 -368 -404 q -342 -400 -350 -401 q -324 -393 -335 -397 q -303 -383 -314 -389 q -283 -385 -306 -385 q -260 -374 -275 -385 q -247 -366 -253 -368 q -239 -362 -242 -364 q -178 -346 -219 -358 q -136 -321 -164 -336 q -124 -315 -131 -318 q -107 -310 -117 -312 q -89 -302 -99 -307 q -68 -292 -79 -297 q -35 -265 -62 -286 q -28 -262 -32 -264 q -18 -258 -24 -261 q 4 -250 -11 -257 q 57 -207 22 -242 q 72 -192 65 -199 q 86 -181 79 -186 q 98 -171 93 -175 q 106 -164 103 -167 q 118 -158 111 -161 q 132 -150 125 -154 q 147 -140 139 -146 q 165 -128 156 -135 q 182 -103 167 -114 q 194 -94 189 -97 q 203 -89 200 -92 q 208 -85 206 -86 q 210 -85 210 -85 q 215 -78 213 -82 q 221 -68 218 -74 q 238 -46 225 -60 q 254 -33 243 -42 q 265 -24 260 -29 q 276 -14 269 -19 q 293 22 279 -3 q 311 38 301 29 q 332 58 321 47 q 339 74 335 65 q 346 97 343 83 q 361 135 351 121 q 390 161 365 140 q 410 207 403 171 q 420 233 413 221 q 440 261 428 246 q 458 281 451 272 q 471 297 465 290 q 479 306 476 303 q 483 311 482 310 q 495 333 489 321 q 508 360 501 344 q 524 392 515 375 q 542 429 532 410 q 549 436 544 432 q 557 446 553 440 q 566 458 561 451 q 576 471 571 464 q 579 480 578 475 q 583 492 581 485 q 589 506 586 499 q 594 519 592 513 q 607 533 600 525 q 621 551 614 540 q 633 600 626 564 q 649 638 638 624 q 661 654 658 647 q 671 685 665 663 q 676 705 674 694 q 681 726 678 715 q 701 799 690 775 q 735 849 715 808 l 735 863 q 736 871 736 867 q 738 882 736 876 q 763 925 739 893 q 793 989 788 958 q 793 1039 794 1006 q 781 1042 792 1039 q 767 1044 769 1044 q 690 1026 749 1044 q 615 1001 628 1007 q 590 976 603 994 q 576 957 581 964 q 568 947 571 950 q 511 908 551 931 q 454 883 467 883 q 448 884 451 883 q 439 886 444 885 q 431 888 433 888 q 425 889 428 889 q 426 907 426 890 q 433 912 426 907 q 451 926 439 917 q 529 989 471 946 q 536 992 532 990 q 546 996 540 993 q 556 1001 550 999 q 568 1007 561 1004 q 588 1021 576 1015 q 617 1038 600 1026 q 638 1042 625 1039 q 651 1044 644 1043 q 667 1049 658 1046 l 679 1060 q 735 1068 701 1061 q 771 1074 751 1071 q 813 1082 790 1076 q 868 1122 829 1088 q 931 1151 901 1151 z "},"K":{"ha":1224,"x_min":-476,"x_max":2656,"o":"m 2596 2253 q 2497 2231 2533 2253 q 2486 2222 2490 2226 q 2479 2215 2482 2218 q 2416 2189 2443 2200 q 2369 2171 2389 2178 q 2304 2126 2332 2146 q 2258 2092 2276 2107 q 2238 2078 2247 2085 q 2222 2069 2229 2072 q 2214 2049 2215 2054 l 2172 2007 q 2161 1972 2163 1982 q 2078 1893 2111 1919 q 2035 1835 2049 1858 q 2027 1828 2035 1835 q 2003 1806 2019 1821 q 1978 1774 1979 1785 q 1950 1728 1976 1758 q 1925 1686 1925 1699 q 1921 1668 1924 1675 q 1881 1626 1897 1642 q 1872 1611 1878 1621 q 1858 1586 1865 1601 q 1845 1563 1851 1572 q 1833 1546 1839 1553 q 1809 1522 1819 1532 q 1790 1506 1799 1513 q 1755 1450 1769 1474 q 1731 1410 1740 1426 q 1710 1391 1719 1399 q 1693 1378 1700 1383 q 1643 1317 1664 1343 q 1608 1271 1622 1290 q 1590 1255 1597 1261 q 1576 1244 1582 1249 q 1535 1181 1546 1200 q 1510 1158 1521 1167 q 1492 1143 1499 1149 q 1479 1114 1481 1124 q 1419 1046 1468 1094 q 1358 997 1378 1011 q 1335 965 1340 975 q 1292 924 1311 942 q 1260 896 1274 907 q 1248 888 1257 893 q 1221 872 1239 882 q 1190 847 1194 858 l 1190 843 q 1189 833 1189 838 q 1188 826 1189 829 q 1204 825 1183 825 q 1250 858 1214 825 q 1290 894 1285 890 q 1314 901 1308 901 q 1358 943 1346 929 q 1467 1039 1429 1003 q 1496 1062 1483 1053 q 1517 1078 1508 1071 q 1527 1094 1522 1088 q 1535 1106 1532 1100 q 1569 1139 1539 1114 q 1603 1176 1594 1160 q 1613 1201 1610 1190 q 1657 1249 1638 1229 q 1692 1282 1676 1269 l 1729 1340 q 1814 1421 1785 1396 q 1832 1445 1821 1431 q 1858 1482 1843 1460 q 1904 1544 1885 1525 q 1922 1556 1915 1553 q 1960 1614 1949 1590 q 1974 1627 1968 1621 q 1985 1636 1981 1633 q 2010 1682 2000 1663 q 2025 1717 2019 1701 q 2069 1777 2050 1751 q 2103 1818 2089 1803 q 2108 1831 2106 1825 q 2113 1840 2111 1836 q 2149 1867 2136 1860 q 2158 1883 2154 1876 q 2164 1894 2161 1889 q 2235 1957 2210 1938 q 2285 2022 2269 1996 q 2308 2069 2301 2053 q 2363 2111 2326 2092 q 2392 2128 2378 2119 q 2422 2144 2407 2136 q 2449 2167 2440 2158 q 2491 2181 2472 2175 q 2522 2189 2510 2186 q 2531 2192 2525 2190 q 2544 2201 2536 2194 q 2569 2210 2554 2210 q 2611 2211 2608 2210 q 2651 2226 2633 2221 l 2656 2247 q 2644 2247 2653 2247 q 2626 2250 2638 2247 q 2610 2252 2617 2251 q 2596 2253 2603 2253 m 1001 1183 q 994 1181 1001 1183 q 971 1172 986 1178 q 861 1092 913 1151 q 845 1073 851 1081 q 835 1060 839 1065 q 783 1044 799 1046 l 776 1033 q 657 1004 728 1004 q 607 1008 640 1004 q 558 1013 575 1013 q 506 1000 528 1013 q 483 988 494 994 q 461 975 472 982 q 432 969 443 969 l 425 958 q 422 958 425 961 q 418 947 419 951 q 415 936 417 942 q 431 925 429 931 q 449 928 438 926 q 479 933 461 931 q 528 939 507 939 q 579 947 560 939 q 619 964 608 961 q 642 966 633 965 q 658 967 651 967 q 826 1017 763 992 q 830 1013 828 1015 q 835 1007 832 1010 q 842 989 842 1000 q 840 974 842 979 q 818 910 828 928 q 797 857 811 879 q 781 822 782 833 q 777 799 778 808 q 775 782 776 789 q 754 758 764 768 q 736 743 744 749 q 725 722 729 731 q 718 706 721 713 q 664 647 685 665 q 649 617 656 629 q 640 594 643 604 q 615 578 625 582 q 596 540 606 565 q 576 503 588 514 q 539 475 551 481 q 530 456 533 464 q 524 443 526 449 q 465 389 486 406 q 439 350 460 383 q 422 330 431 338 q 406 317 414 322 q 378 304 389 307 q 317 246 333 267 q 282 226 297 235 q 257 213 267 218 q 210 169 225 185 q 158 149 174 154 q 140 133 147 140 q 128 121 133 126 q 76 106 92 107 q 52 90 63 96 q 35 78 42 83 q -9 66 10 71 q -39 58 -28 61 q -58 46 -46 56 q -82 35 -74 35 q -107 36 -112 35 q -140 24 -118 33 q -175 13 -165 13 q -224 8 -194 13 q -290 -3 -253 4 q -358 -13 -328 -10 q -411 -17 -387 -17 l -414 -29 l -417 -29 l -446 -29 l -450 -50 l -474 -61 l -474 -65 q -476 -76 -476 -74 l -310 -56 q -219 -42 -261 -49 q -144 -24 -178 -35 q -29 22 -78 0 q 51 58 19 43 q 132 83 107 78 q 140 89 133 85 q 160 103 147 93 q 188 117 178 117 l 201 117 q 222 131 213 124 q 239 143 232 138 q 268 156 256 150 q 290 165 281 163 q 328 199 313 185 q 354 224 344 213 q 374 233 365 229 q 389 239 382 236 q 454 297 438 279 q 497 330 478 317 q 528 353 515 343 q 540 372 535 364 q 549 385 546 379 q 632 456 603 432 q 649 481 642 469 q 661 503 656 493 q 693 508 679 508 q 701 497 696 503 q 707 481 710 492 q 703 449 704 458 q 700 444 701 440 q 708 424 700 436 q 714 399 717 414 q 706 359 708 371 q 704 350 704 347 q 706 343 704 347 q 710 332 707 339 q 714 310 715 319 q 706 272 706 264 q 707 255 706 265 q 713 232 708 244 q 717 210 715 219 q 718 193 718 200 q 711 157 718 182 q 707 137 708 146 q 706 122 706 128 q 711 92 706 110 q 713 60 715 75 q 707 31 710 43 q 703 10 704 18 q 703 -10 703 3 q 704 -43 703 -24 q 703 -97 707 -78 q 688 -201 688 -186 q 693 -219 690 -211 q 699 -232 696 -226 q 693 -322 701 -275 q 688 -357 690 -342 q 682 -382 685 -372 q 682 -400 682 -387 q 683 -432 682 -412 q 682 -482 686 -465 q 670 -520 675 -504 q 661 -547 665 -536 q 667 -593 658 -565 q 671 -639 672 -621 q 663 -710 660 -700 q 665 -715 664 -712 q 669 -722 667 -718 q 672 -742 675 -728 q 660 -785 667 -769 q 646 -870 650 -835 q 640 -925 642 -906 q 647 -982 642 -960 q 644 -1022 642 -1011 q 651 -1041 649 -1033 q 654 -1053 653 -1049 q 656 -1073 656 -1064 q 656 -1087 657 -1082 q 776 -1157 660 -1157 q 849 -1146 822 -1157 q 881 -1131 864 -1139 q 913 -1117 897 -1124 l 910 -1101 l 885 -1101 q 876 -1100 883 -1100 l 865 -1112 q 813 -1121 838 -1121 q 769 -1100 775 -1121 q 768 -1085 768 -1092 q 768 -1074 768 -1079 q 757 -1046 764 -1067 q 751 -1017 751 -1031 q 760 -958 751 -1000 q 767 -901 767 -919 q 761 -884 764 -892 q 756 -871 758 -876 q 755 -825 754 -851 q 760 -767 756 -799 q 766 -714 763 -740 q 772 -661 769 -687 q 769 -608 774 -649 q 768 -557 765 -578 q 772 -507 775 -514 q 768 -493 769 -500 q 767 -479 767 -486 q 779 -369 767 -440 q 794 -260 794 -289 q 793 -212 794 -232 q 790 -181 792 -193 q 806 -114 806 -119 q 799 -92 806 -108 q 794 -77 796 -85 q 796 -60 793 -69 q 803 -19 800 -36 q 810 10 807 -1 q 806 35 810 18 q 803 48 804 42 q 803 58 803 54 q 810 125 803 86 q 843 321 840 289 q 838 350 843 333 q 833 378 833 368 q 835 410 833 390 q 840 457 838 429 q 844 535 847 507 q 839 567 844 544 q 836 600 835 588 q 840 613 839 607 q 843 621 842 618 q 894 650 868 644 q 947 664 946 663 q 1194 819 1100 724 q 1189 821 1189 817 q 1183 824 1186 824 q 1046 753 1181 824 q 861 683 911 683 q 842 689 843 683 q 835 697 838 694 q 831 701 832 700 q 835 728 835 718 q 854 758 838 739 q 874 789 871 778 q 890 836 879 825 q 908 856 901 847 q 919 872 915 865 q 974 1017 958 967 q 993 1050 983 1038 q 1031 1172 1021 1103 l 1001 1183 z "},"L":{"ha":1151,"x_min":46,"x_max":2376,"o":"m 1110 1114 q 1136 1088 1140 1114 q 1108 1035 1132 1067 q 1098 1021 1103 1028 q 1089 1007 1093 1014 q 1083 995 1086 1000 q 1079 988 1081 990 q 1074 942 1078 986 q 1060 914 1072 931 q 1047 890 1050 900 q 1031 835 1044 876 l 1017 824 q 1004 799 1011 813 q 989 769 997 785 q 971 736 981 754 q 950 697 961 718 q 940 678 947 690 q 922 647 933 665 q 910 637 917 643 q 896 624 903 631 q 880 608 889 617 q 861 590 871 600 q 857 583 860 588 q 851 574 854 579 q 845 563 849 568 q 839 551 842 558 q 792 514 824 533 q 742 481 747 486 q 724 464 735 474 q 701 443 714 454 q 674 421 689 432 q 640 396 658 410 q 603 382 639 394 q 572 364 576 374 q 571 358 571 363 q 570 352 571 356 q 568 342 569 349 q 606 318 575 336 q 690 268 636 300 q 726 246 710 257 q 757 224 742 235 q 808 186 783 207 q 850 136 821 167 q 887 109 865 126 q 936 68 908 92 q 953 39 940 57 q 971 31 963 36 q 982 24 976 28 q 994 17 988 21 q 1015 -6 1003 11 q 1025 -21 1019 -12 q 1038 -39 1031 -29 q 1051 -59 1044 -50 q 1063 -75 1057 -68 q 1082 -96 1074 -92 q 1090 -100 1085 -97 q 1100 -106 1094 -103 q 1111 -112 1106 -108 q 1124 -118 1117 -115 q 1131 -127 1126 -122 q 1142 -137 1136 -132 q 1153 -150 1147 -143 q 1167 -164 1160 -157 q 1222 -197 1183 -171 q 1231 -210 1224 -204 q 1236 -217 1233 -212 q 1242 -226 1239 -221 q 1252 -230 1246 -228 q 1267 -237 1258 -232 q 1287 -257 1276 -244 q 1310 -286 1297 -269 q 1323 -303 1317 -296 q 1335 -317 1329 -310 l 1353 -335 q 1365 -342 1358 -337 q 1379 -351 1372 -346 q 1394 -361 1386 -356 q 1413 -374 1403 -367 q 1439 -405 1424 -387 q 1475 -443 1454 -422 q 1540 -483 1496 -460 q 1601 -521 1588 -507 q 1611 -535 1603 -522 q 1631 -539 1613 -539 q 1651 -556 1639 -546 q 1665 -564 1658 -560 q 1679 -574 1672 -568 q 1724 -579 1700 -574 q 1750 -594 1735 -587 q 1783 -601 1767 -601 q 1804 -604 1793 -604 q 1831 -606 1817 -604 q 1853 -606 1842 -607 q 1879 -601 1865 -604 q 1899 -595 1889 -599 q 1919 -585 1908 -592 q 1947 -568 1938 -574 q 1960 -561 1957 -562 q 1985 -553 1971 -558 q 2014 -542 1999 -549 q 2048 -527 2029 -535 q 2089 -510 2067 -519 q 2104 -499 2096 -504 q 2124 -486 2113 -493 q 2147 -471 2135 -479 q 2172 -453 2158 -462 q 2206 -433 2183 -447 q 2249 -401 2228 -419 q 2265 -375 2251 -396 q 2282 -364 2271 -369 q 2299 -351 2294 -358 q 2329 -229 2313 -336 q 2331 -222 2331 -226 q 2332 -215 2331 -218 q 2333 -208 2333 -212 q 2335 -203 2333 -206 q 2344 -204 2342 -203 l 2356 -204 l 2363 -204 q 2371 -293 2376 -256 q 2285 -419 2361 -347 l 2268 -440 q 2247 -449 2260 -451 q 2226 -469 2240 -457 q 2178 -486 2211 -474 q 2140 -511 2163 -497 q 2116 -526 2129 -518 q 2088 -543 2103 -533 q 2061 -550 2076 -546 q 2028 -561 2046 -554 l 2017 -572 q 2010 -578 2014 -575 q 2001 -585 2007 -582 q 1960 -606 1982 -596 q 1938 -614 1949 -610 q 1914 -624 1926 -618 l 1896 -624 q 1876 -632 1890 -624 l 1860 -640 q 1813 -644 1849 -644 q 1772 -654 1792 -644 q 1746 -664 1753 -664 q 1715 -656 1733 -664 q 1699 -651 1706 -653 q 1689 -647 1692 -649 q 1676 -647 1683 -647 q 1663 -646 1669 -647 q 1647 -644 1656 -644 q 1628 -642 1638 -643 q 1616 -635 1622 -639 q 1603 -626 1610 -631 q 1587 -617 1596 -622 q 1567 -607 1578 -612 q 1526 -601 1547 -607 q 1515 -589 1524 -597 l 1499 -572 q 1492 -571 1496 -571 q 1483 -568 1488 -571 q 1465 -561 1476 -568 q 1444 -526 1461 -553 q 1424 -517 1435 -524 q 1397 -504 1413 -511 q 1388 -485 1394 -496 q 1369 -460 1381 -474 q 1357 -453 1364 -457 q 1342 -446 1350 -450 q 1324 -437 1333 -442 q 1303 -425 1314 -432 q 1288 -411 1294 -419 q 1281 -401 1285 -406 q 1272 -390 1276 -396 q 1265 -380 1269 -385 q 1257 -369 1261 -375 q 1244 -356 1251 -360 q 1233 -351 1242 -354 q 1227 -349 1231 -350 q 1219 -346 1224 -347 q 1210 -329 1217 -339 q 1192 -304 1203 -319 q 1179 -300 1185 -303 q 1167 -294 1174 -297 q 1129 -249 1156 -276 q 1117 -245 1125 -247 q 1097 -237 1108 -243 q 1064 -192 1086 -221 q 1051 -183 1057 -190 q 1044 -177 1049 -181 q 1036 -169 1040 -174 q 1033 -160 1035 -167 q 1028 -147 1031 -154 q 982 -118 1011 -137 q 940 -68 967 -100 q 923 -56 933 -62 q 901 -40 913 -49 q 877 -22 890 -32 q 849 0 864 -11 q 837 15 843 7 q 822 32 831 22 q 805 52 815 42 q 783 74 794 63 q 767 81 776 76 q 747 92 758 86 q 724 104 736 97 q 699 118 713 111 l 682 135 q 672 147 676 140 q 661 161 667 154 q 651 175 656 168 q 640 188 646 182 q 632 197 636 193 q 625 204 628 201 q 586 224 607 218 q 558 232 571 229 q 550 235 553 233 q 544 238 547 236 q 525 249 535 243 q 504 260 515 254 q 485 271 494 265 q 465 282 476 276 q 365 297 436 297 q 318 306 340 297 q 281 318 290 315 q 185 318 268 319 q 75 347 113 317 q 46 374 46 365 l 46 379 q 48 388 47 385 q 49 393 49 390 q 50 396 50 396 q 50 397 50 397 q 179 436 110 436 q 308 414 242 436 q 315 411 311 413 q 325 407 319 410 q 334 402 329 404 q 344 397 339 400 q 364 395 351 396 q 396 394 376 394 q 443 383 418 394 q 481 374 464 374 q 622 440 540 374 q 742 556 649 463 q 762 570 751 561 q 783 590 772 579 q 787 604 785 596 q 794 625 789 613 q 824 661 800 638 q 853 699 846 683 q 853 700 853 699 q 856 708 853 703 q 857 719 856 713 q 860 736 858 726 q 871 756 865 744 q 877 769 874 763 q 885 783 881 776 q 892 802 889 793 q 899 821 896 811 q 907 851 906 838 q 890 892 914 892 q 808 857 871 892 q 746 824 747 824 q 722 836 722 824 q 739 857 722 846 q 782 869 753 858 q 799 878 783 871 q 844 903 814 886 q 942 976 914 939 q 967 1028 947 990 q 1058 1090 983 1050 q 1097 1113 1065 1097 q 1110 1114 1099 1114 z "},"M":{"ha":1458,"x_min":-268,"x_max":1699,"o":"m 1235 1149 q 1181 1125 1186 1131 q 1172 1111 1174 1117 q 1135 1076 1171 1108 q 1094 1043 1100 1046 l 1089 1043 q 1078 1006 1082 1022 q 1071 975 1074 989 q 1056 946 1069 967 q 1046 926 1049 936 q 1040 906 1043 917 q 1025 842 1032 853 q 978 793 996 806 q 954 751 964 769 q 938 721 944 732 q 917 698 926 707 q 901 682 908 689 q 893 654 897 667 q 829 582 854 604 q 789 514 803 539 q 743 476 760 486 q 701 425 719 447 q 672 388 683 403 q 617 340 640 360 q 575 310 593 321 q 557 293 572 307 q 511 251 542 279 q 444 197 474 215 q 410 181 425 186 q 349 131 365 147 q 283 103 304 108 q 265 90 272 96 q 251 81 258 85 q 188 64 208 68 q 158 48 171 54 q 138 36 146 42 q 6 22 96 22 q -90 31 -61 22 q -132 43 -135 43 q -144 42 -142 43 q -175 19 -160 40 q -192 -3 -186 4 q -199 -12 -197 -11 q -209 -19 -200 -14 q -235 -35 -218 -24 q -260 -62 -256 -50 q -146 -110 -268 -110 q -82 -103 -110 -110 q 11 -57 -19 -76 q 50 -53 38 -56 q 60 -48 53 -51 q 79 -37 68 -44 q 107 -25 97 -25 q 114 -26 111 -25 l 121 -26 q 174 0 150 -12 q 215 26 197 13 q 238 32 228 29 q 254 36 247 35 q 288 69 279 57 q 336 94 315 85 q 372 110 357 104 q 408 147 400 133 q 454 172 435 163 q 488 188 474 182 q 518 215 506 203 q 539 236 531 226 l 707 365 q 740 404 726 388 q 763 432 754 421 q 792 451 779 443 q 814 465 806 460 q 856 511 826 474 q 897 554 883 547 q 925 560 914 560 q 943 542 935 551 q 949 517 953 532 q 890 392 915 431 q 857 271 865 310 q 811 192 829 218 q 754 31 768 82 q 739 -2 746 11 q 726 -25 732 -15 q 726 -36 726 -31 q 729 -50 726 -43 q 735 -75 735 -67 l 754 -75 l 758 -75 l 765 -64 q 839 -19 833 -25 q 888 47 882 13 q 892 65 890 57 q 897 81 894 74 q 942 149 910 111 q 981 191 964 174 q 1011 219 999 208 q 1037 260 1026 243 q 1054 288 1047 276 q 1101 325 1088 317 q 1111 345 1108 336 q 1117 360 1114 354 q 1132 370 1125 367 q 1143 376 1139 374 q 1189 447 1176 422 q 1224 484 1208 469 q 1250 508 1239 499 q 1290 569 1274 543 q 1318 614 1307 594 q 1338 626 1331 624 q 1367 671 1357 653 q 1394 690 1382 682 q 1414 703 1406 697 q 1424 722 1421 714 q 1429 736 1426 731 q 1483 753 1464 750 q 1485 749 1483 751 q 1489 742 1486 747 q 1494 729 1494 735 q 1464 663 1479 693 q 1433 604 1449 632 q 1426 571 1431 593 q 1415 517 1422 549 q 1406 467 1411 489 q 1393 431 1400 446 q 1372 399 1382 413 q 1354 376 1363 386 q 1337 319 1343 344 q 1326 275 1331 294 q 1304 229 1308 250 q 1296 147 1299 176 q 1291 128 1293 136 q 1286 114 1289 119 q 1258 69 1278 93 q 1204 21 1238 46 q 1190 10 1197 14 q 1178 3 1183 6 q 1175 -4 1175 0 l 1175 -15 q 1174 -21 1175 -18 q 1174 -25 1174 -24 q 1171 -29 1174 -26 q 1181 -36 1178 -33 q 1193 -42 1186 -42 q 1347 15 1213 -42 q 1349 19 1347 14 q 1351 35 1350 24 q 1344 56 1353 44 q 1335 71 1335 68 q 1335 81 1335 74 q 1338 104 1336 89 q 1346 147 1342 132 q 1354 163 1349 154 q 1368 186 1360 172 q 1388 238 1383 211 q 1395 285 1393 265 q 1399 319 1397 306 q 1410 357 1401 336 q 1433 406 1419 378 q 1459 456 1450 435 q 1471 492 1468 478 q 1478 520 1472 494 q 1492 594 1483 546 q 1522 693 1504 660 q 1542 719 1533 708 q 1558 738 1551 731 q 1596 801 1581 774 q 1621 847 1611 828 q 1638 867 1631 858 q 1650 882 1644 876 q 1667 944 1664 924 q 1694 1000 1686 981 q 1693 1018 1699 1013 q 1688 1025 1688 1024 q 1544 943 1596 1003 q 1530 919 1536 929 q 1519 903 1524 910 q 1469 865 1490 875 q 1453 833 1460 847 q 1443 810 1447 819 q 1397 775 1418 786 q 1374 751 1385 761 q 1357 733 1364 740 q 1329 718 1349 728 q 1310 708 1318 713 q 1299 699 1303 704 q 1286 672 1292 683 q 1276 654 1281 661 q 1243 626 1253 633 q 1233 597 1236 611 q 1229 593 1232 596 q 1221 588 1226 590 q 1206 576 1210 581 q 1188 549 1194 561 q 1175 526 1181 536 q 1156 507 1164 515 q 1140 493 1147 499 q 1122 458 1129 474 q 1108 432 1114 443 q 1066 382 1085 403 q 1033 347 1047 361 q 1019 324 1026 336 q 1004 300 1013 311 q 967 267 983 267 q 960 269 963 267 q 955 270 957 269 q 950 271 953 271 l 946 271 q 942 278 946 275 q 938 280 939 279 q 938 281 938 281 q 939 326 935 290 q 967 408 944 356 q 981 438 971 418 q 1007 490 992 458 q 1024 523 1017 508 q 1035 549 1031 538 q 1047 588 1042 561 l 1060 625 q 1066 634 1063 628 q 1075 650 1069 640 q 1086 676 1083 663 q 1089 696 1089 688 q 1089 710 1089 704 q 1098 733 1092 719 q 1115 765 1104 746 q 1139 819 1138 804 q 1142 832 1142 826 q 1142 842 1142 839 q 1154 861 1149 853 q 1164 875 1160 869 q 1208 999 1199 960 q 1221 1019 1215 1010 q 1231 1033 1226 1028 q 1260 1132 1253 1097 l 1235 1149 z "},"N":{"ha":1056,"x_min":-278,"x_max":1392,"o":"m 889 1093 q 842 1069 847 1075 q 838 1056 838 1061 q 808 1019 835 1050 q 787 997 794 1004 q 776 988 779 989 l 771 988 q 769 960 767 978 q 772 919 774 928 q 765 890 772 911 q 761 850 758 871 q 763 786 765 796 q 729 738 743 751 q 716 695 722 714 q 707 665 710 676 q 694 642 700 651 q 683 626 688 633 q 679 599 679 607 q 639 526 656 550 q 624 486 631 503 q 615 458 618 469 q 582 421 594 431 q 552 369 564 392 q 533 332 540 347 q 490 285 510 304 q 457 254 471 265 q 442 238 454 251 q 408 196 431 224 q 356 142 381 163 q 338 132 346 136 q 325 125 331 128 q 279 75 293 93 q 246 58 260 65 q 222 47 232 51 q 196 25 203 32 q 136 8 156 13 q 94 -19 110 -7 q -33 -33 57 -33 q -132 -25 -101 -33 q -178 -12 -181 -12 q -190 -14 -187 -12 q -212 -37 -204 -15 q -226 -67 -222 -62 q -258 -90 -229 -69 q -276 -118 -278 -106 q -150 -165 -271 -165 q -87 -158 -112 -165 q -7 -112 -33 -132 q 31 -108 18 -111 q 56 -93 35 -107 q 82 -81 72 -81 q 89 -82 85 -81 l 94 -82 q 139 -56 119 -68 q 174 -29 158 -43 q 197 -24 188 -26 q 213 -19 206 -21 q 236 14 231 1 q 278 39 260 29 q 308 54 296 49 q 333 92 326 76 q 403 132 375 121 q 426 159 417 147 q 442 181 436 171 q 575 310 533 268 q 613 376 601 353 q 654 410 639 399 q 682 456 664 419 q 713 499 700 490 q 739 504 728 504 q 751 496 746 500 q 763 486 757 492 q 774 461 771 479 q 774 432 775 447 q 767 397 772 417 q 756 354 760 369 q 750 336 751 339 q 750 215 747 254 q 725 136 735 163 q 713 -25 711 31 q 709 -35 711 -28 q 704 -53 707 -42 q 700 -81 697 -68 q 722 -131 714 -117 l 742 -131 l 744 -131 l 750 -119 q 781 -97 765 -108 q 811 -75 796 -86 q 842 -8 846 -44 q 840 11 840 3 q 842 25 839 19 q 856 65 849 49 q 868 93 863 82 q 895 135 883 117 q 917 164 907 153 q 944 232 936 211 q 979 269 967 258 q 988 304 986 293 q 1007 321 997 317 q 1024 362 1017 344 q 1033 392 1031 379 q 1058 428 1047 414 q 1078 453 1069 443 q 1101 513 1092 488 q 1118 558 1111 539 q 1135 571 1128 568 q 1146 596 1142 585 q 1153 615 1150 607 q 1172 634 1164 626 q 1188 647 1181 642 q 1196 681 1193 669 q 1244 697 1225 694 q 1256 685 1251 690 q 1264 674 1261 679 q 1282 649 1274 649 q 1299 656 1285 649 q 1325 682 1319 667 q 1345 746 1338 718 q 1357 793 1353 774 q 1376 826 1367 814 q 1376 851 1378 836 l 1376 889 q 1379 898 1378 892 q 1385 915 1381 904 q 1390 944 1392 935 q 1374 969 1379 967 q 1254 888 1286 944 q 1242 847 1243 860 q 1219 831 1238 840 q 1199 810 1203 819 q 1192 778 1194 792 q 1189 754 1190 764 q 1153 719 1165 729 q 1124 678 1133 692 q 1115 671 1121 675 q 1100 661 1110 667 q 1078 643 1083 651 q 1069 617 1072 628 q 1064 599 1065 606 q 1039 571 1047 578 q 1035 542 1035 551 q 1025 530 1029 535 q 1017 521 1021 525 q 1005 492 1010 504 q 997 471 1000 479 q 975 438 983 446 q 958 376 963 399 q 904 292 926 321 q 898 268 901 281 q 890 244 894 256 q 861 211 878 211 q 853 214 857 211 q 848 215 850 214 q 843 215 846 215 l 839 215 q 826 225 833 222 q 821 242 824 232 q 817 268 818 253 q 840 435 813 315 q 849 472 846 458 q 853 493 853 486 q 856 536 856 518 q 856 569 856 556 l 864 594 q 868 621 869 608 q 865 640 867 632 q 863 654 864 649 q 872 710 861 669 q 882 764 883 750 q 881 779 881 775 q 881 786 881 785 q 886 806 879 793 q 890 814 889 811 q 893 819 892 817 q 901 891 899 860 q 904 943 903 922 q 912 963 908 954 q 918 978 915 972 l 918 1076 q 901 1086 908 1082 q 888 1093 893 1090 l 889 1093 z "},"O":{"ha":867,"x_min":40,"x_max":832,"o":"m 686 1056 q 651 1046 674 1056 q 617 1031 621 1031 q 597 1028 606 1029 q 582 1028 588 1028 q 539 1003 553 1014 q 503 988 518 994 q 476 979 488 982 q 460 963 467 969 q 449 950 453 956 q 427 941 436 944 q 411 935 418 938 q 382 901 390 914 q 356 884 367 892 q 338 871 344 876 q 313 826 325 861 q 288 781 300 794 q 254 758 269 765 q 226 714 232 728 q 193 686 203 693 q 181 657 186 669 q 175 636 176 644 q 157 617 174 633 q 144 589 147 607 q 118 531 140 564 q 93 475 94 494 q 91 458 92 465 q 90 444 90 450 q 76 411 83 425 q 64 389 69 397 q 60 354 61 369 q 58 329 60 339 q 46 275 51 293 q 44 250 42 257 q 49 222 51 231 q 45 203 46 211 q 43 190 44 196 q 46 161 40 174 q 56 136 56 140 q 60 103 57 133 q 75 74 63 89 q 82 61 81 65 q 101 56 83 56 q 196 94 143 56 q 240 128 219 111 q 283 160 261 144 q 344 192 318 179 q 389 214 371 206 q 430 249 413 233 q 458 275 447 264 q 514 317 463 279 q 565 363 547 342 q 574 382 571 374 q 619 419 603 408 q 628 436 625 429 q 633 449 632 443 q 649 457 646 456 q 667 482 660 471 q 678 500 674 493 q 708 540 696 524 q 731 568 721 557 q 760 639 749 608 q 778 689 771 669 q 804 732 796 719 q 811 757 807 743 q 818 790 815 771 q 813 944 832 867 q 742 1046 786 1046 q 719 1046 728 1047 q 686 1056 681 1056 m 226 515 q 231 538 229 529 q 233 554 232 547 q 254 588 246 576 q 274 646 260 599 q 297 704 283 679 q 331 750 317 731 q 356 782 344 769 q 408 863 400 856 q 446 888 433 881 q 454 902 451 896 q 460 913 457 908 q 576 969 503 967 q 668 922 647 971 q 674 890 674 904 q 684 874 679 881 q 692 863 689 868 q 696 825 696 838 q 701 814 696 821 q 706 801 707 807 q 696 777 700 788 q 688 760 692 767 q 683 722 683 735 q 667 685 681 710 q 644 647 644 647 q 615 569 626 603 q 596 511 603 535 q 565 469 578 488 q 540 439 551 450 q 524 414 531 425 q 514 396 518 403 q 492 375 497 379 q 482 356 485 365 q 464 343 472 349 q 449 333 456 338 q 407 279 421 297 q 290 193 329 217 q 271 180 279 186 q 256 169 263 174 q 243 168 249 168 q 236 168 239 168 q 197 197 206 167 q 196 217 196 203 q 194 256 196 232 q 192 290 193 274 q 190 325 192 307 q 190 362 189 344 q 193 394 190 379 q 210 460 203 432 q 225 506 218 488 q 226 511 225 510 l 226 515 z "},"P":{"ha":1524,"x_min":8,"x_max":1613,"o":"m 161 1253 l 160 1253 q 185 1249 168 1249 q 183 1242 183 1247 q 182 1231 183 1235 q 176 1222 182 1228 q 164 1211 172 1219 q 158 1204 161 1208 q 153 1194 156 1200 q 146 1176 149 1189 q 161 1110 140 1142 q 214 1065 179 1081 q 378 1039 275 1039 q 460 1043 418 1039 q 501 1060 474 1049 q 693 1081 565 1061 q 708 1088 699 1083 q 728 1094 717 1092 q 756 1099 739 1097 q 794 1099 772 1100 q 817 1098 807 1099 q 838 1097 828 1097 q 851 1099 846 1099 q 864 1100 858 1099 q 880 1103 871 1101 q 900 1110 889 1106 q 943 1117 925 1117 l 975 1117 q 985 1115 981 1115 q 993 1115 990 1115 l 1007 1115 l 1036 1115 q 1056 1117 1046 1117 q 1079 1118 1067 1117 q 1103 1119 1092 1119 q 1124 1119 1114 1119 q 1140 1121 1133 1121 q 1154 1121 1147 1121 q 1247 1117 1186 1121 q 1253 1114 1250 1115 q 1261 1110 1257 1113 q 1269 1105 1264 1107 q 1279 1100 1274 1103 q 1295 1098 1286 1099 q 1315 1094 1304 1097 q 1364 1086 1338 1092 q 1392 1069 1371 1083 q 1429 1063 1408 1063 q 1453 1057 1447 1063 q 1463 1044 1458 1049 q 1481 1036 1472 1042 q 1492 1031 1486 1033 q 1506 1025 1499 1028 q 1518 1009 1511 1018 q 1535 989 1525 1000 q 1544 985 1538 988 q 1558 978 1550 983 q 1597 893 1582 953 q 1613 782 1613 832 q 1596 700 1613 733 q 1546 654 1576 685 q 1517 608 1538 639 q 1500 597 1510 606 q 1476 578 1490 589 q 1458 554 1469 567 q 1432 526 1447 542 q 1414 519 1428 525 q 1389 511 1403 517 q 1373 497 1383 506 q 1347 476 1363 489 q 1340 474 1344 475 q 1328 469 1335 472 q 1300 461 1314 467 q 1293 455 1297 458 q 1283 447 1289 451 q 1258 431 1272 440 q 1240 424 1254 429 q 1215 415 1229 421 q 1147 382 1149 382 q 1078 365 1110 365 q 1017 381 1050 365 l 1024 400 q 1113 404 1053 399 q 1122 411 1117 407 q 1133 419 1126 415 q 1163 436 1146 425 q 1174 435 1164 438 q 1206 450 1182 435 q 1236 471 1233 468 q 1268 483 1251 476 q 1311 501 1289 490 q 1329 515 1321 506 q 1346 535 1338 524 q 1375 572 1368 565 q 1381 576 1376 574 q 1393 583 1386 578 q 1414 624 1400 601 q 1423 631 1417 626 q 1438 643 1429 636 q 1474 708 1454 664 q 1493 776 1493 756 q 1486 800 1493 786 q 1482 810 1483 806 q 1479 821 1481 815 q 1481 842 1481 826 q 1478 854 1479 847 q 1476 868 1478 861 q 1450 893 1471 872 q 1449 901 1449 897 q 1446 913 1449 907 q 1439 938 1446 921 q 1428 942 1436 939 q 1422 944 1425 943 q 1415 947 1418 946 q 1409 955 1413 950 q 1400 965 1406 960 l 1376 989 q 1348 1003 1365 996 q 1307 1015 1331 1010 q 1288 1018 1297 1017 q 1269 1022 1279 1019 q 1251 1026 1260 1025 q 1232 1029 1242 1028 q 1185 1050 1218 1031 q 1122 1061 1158 1061 q 1081 1060 1099 1061 q 1051 1060 1063 1060 l 1032 1060 q 1022 1060 1028 1060 q 1011 1061 1018 1060 q 997 1063 1004 1063 q 985 1065 992 1063 q 972 1066 978 1065 q 960 1068 967 1067 q 947 1069 953 1069 q 939 1069 943 1069 q 910 1067 928 1069 q 867 1058 893 1064 q 824 1051 842 1051 q 807 1049 814 1049 q 794 1049 800 1049 q 779 1049 789 1049 q 760 1051 771 1049 q 741 1052 749 1051 q 728 1053 733 1053 q 689 1046 707 1053 q 672 1039 678 1039 q 667 1036 669 1036 q 661 1035 664 1036 q 614 1033 657 1033 q 564 1022 590 1033 q 550 1016 557 1019 q 538 1010 543 1013 q 528 1006 532 1007 q 521 1004 524 1006 q 493 1001 507 1001 q 475 999 485 1000 q 454 999 465 999 q 389 993 407 999 q 382 990 386 992 q 372 986 378 989 q 350 979 361 981 q 331 976 343 978 q 301 975 319 975 q 261 972 285 972 q 211 972 239 972 q 103 979 128 972 q 67 999 83 986 q 36 1031 49 1014 q 15 1069 22 1050 q 8 1110 8 1090 q 15 1146 8 1131 q 161 1253 32 1188 m 1101 785 l 1103 785 q 1101 776 1101 781 q 1097 765 1100 771 q 1089 740 1094 754 q 1083 719 1086 731 q 1074 692 1079 707 q 1065 660 1069 676 q 1053 624 1060 643 q 1047 613 1050 618 q 1042 601 1044 608 q 1035 588 1039 594 q 1029 574 1032 581 l 1029 556 q 1028 544 1028 550 q 1026 532 1028 539 q 1024 523 1025 528 q 1019 511 1022 518 q 1014 499 1017 506 q 1008 485 1011 492 q 1001 468 1004 475 q 996 454 999 461 q 989 436 990 440 q 876 114 958 326 q 853 69 865 92 q 828 22 840 46 q 803 -25 815 -1 q 776 -75 790 -49 q 772 -81 774 -78 q 767 -86 769 -83 q 756 -99 764 -90 q 772 -101 763 -100 q 790 -101 781 -101 q 810 -102 800 -103 q 832 -101 821 -101 q 1007 -83 951 -97 q 1006 -89 1006 -85 q 1006 -99 1007 -93 q 944 -132 1004 -111 q 872 -150 894 -150 q 846 -146 860 -150 q 829 -142 835 -144 q 822 -140 826 -140 q 817 -139 819 -140 q 800 -137 813 -137 l 776 -137 l 754 -137 q 739 -139 747 -139 q 725 -139 732 -139 l 694 -139 q 682 -140 688 -140 q 672 -140 676 -140 q 633 -136 660 -140 q 611 -134 621 -135 q 594 -133 601 -133 q 567 -142 581 -133 q 547 -150 554 -150 l 536 -150 q 525 -147 525 -147 q 520 -143 524 -146 q 511 -135 517 -140 q 513 -126 513 -133 q 517 -110 514 -121 q 530 -101 524 -106 q 543 -94 536 -97 q 575 -87 554 -87 q 586 -87 579 -87 q 604 -89 593 -87 q 622 -90 615 -90 q 636 -90 631 -90 q 647 -90 640 -90 q 660 -87 653 -89 q 697 -61 672 -86 q 728 -24 717 -42 q 731 -7 729 -17 q 740 17 733 3 q 758 55 749 36 q 778 96 768 74 q 797 141 788 118 q 818 188 807 164 q 817 204 817 192 q 815 228 815 211 q 846 265 818 239 q 879 299 872 290 q 912 378 897 329 q 938 496 926 428 q 932 540 942 515 q 924 578 924 563 q 931 613 924 588 q 950 679 938 638 q 969 732 960 710 q 1000 781 985 765 q 1078 828 1046 826 q 1101 785 1113 831 z "},"Q":{"ha":999,"x_min":-429,"x_max":1639,"o":"m 843 1033 q 950 944 913 1033 q 968 817 979 881 q 956 789 963 807 q 949 772 953 782 q 942 751 944 763 q 939 733 940 744 q 935 706 938 721 q 907 638 931 679 q 878 590 888 606 q 868 575 868 575 q 850 528 864 556 q 824 486 840 524 q 813 472 818 479 q 800 458 807 465 q 786 442 793 451 q 772 424 779 433 q 766 415 769 419 q 758 403 763 410 q 751 389 756 396 q 740 375 746 382 q 734 371 738 374 q 726 365 731 368 q 710 353 719 358 q 685 317 704 342 q 654 293 675 313 q 642 272 649 283 q 624 247 635 261 q 617 242 621 244 q 607 236 613 239 q 597 230 601 233 q 586 221 592 226 q 499 133 558 189 q 480 122 490 128 q 457 110 469 117 q 431 94 446 103 q 401 76 417 86 q 392 69 397 74 q 381 58 388 64 q 367 47 374 53 q 350 35 360 42 q 344 33 347 33 q 338 31 342 33 q 331 29 333 31 q 325 26 328 28 l 308 10 q 299 1 304 6 q 286 -10 293 -4 q 269 -21 279 -15 q 249 -33 260 -26 q 226 -48 238 -40 q 200 -64 215 -56 q 171 -81 189 -71 q 129 -106 153 -90 q 115 -114 119 -110 q 117 -118 117 -115 q 118 -118 118 -118 q 118 -119 118 -119 q 110 -132 115 -126 q 147 -143 118 -135 q 228 -164 176 -151 q 234 -167 231 -165 q 243 -171 238 -168 q 263 -178 249 -172 q 294 -176 260 -176 q 322 -185 306 -176 q 346 -194 335 -192 l 385 -194 q 406 -201 394 -194 q 414 -206 411 -204 q 419 -210 417 -208 q 464 -208 417 -208 q 535 -221 490 -208 q 560 -228 549 -225 q 581 -235 571 -232 q 595 -238 589 -237 q 604 -240 601 -239 q 667 -244 626 -240 q 673 -247 669 -246 q 681 -251 676 -249 q 700 -258 686 -253 q 759 -266 728 -262 q 825 -272 790 -269 q 897 -278 860 -275 q 975 -281 935 -281 l 1096 -281 q 1111 -283 1097 -281 q 1120 -285 1117 -285 q 1126 -286 1124 -286 q 1431 -210 1325 -286 q 1438 -202 1433 -207 q 1450 -192 1443 -197 q 1464 -181 1457 -186 q 1479 -168 1471 -175 q 1514 -144 1493 -162 q 1554 -50 1544 -110 q 1554 -32 1556 -37 q 1549 -22 1551 -25 q 1547 -18 1547 -18 q 1540 4 1546 -8 q 1533 25 1535 18 q 1485 40 1522 40 q 1474 40 1481 40 q 1457 38 1467 40 q 1410 31 1442 38 l 1410 35 l 1401 35 l 1404 49 q 1492 72 1456 72 q 1572 46 1522 72 q 1626 -3 1619 21 q 1626 -32 1624 -14 q 1633 -56 1626 -32 q 1636 -81 1639 -64 l 1633 -86 q 1506 -199 1625 -124 q 1346 -286 1404 -264 q 1332 -287 1342 -287 q 1322 -287 1328 -287 q 1313 -289 1318 -287 q 1229 -322 1285 -304 q 1163 -326 1201 -325 q 1119 -331 1143 -328 q 1068 -336 1096 -333 q 1063 -337 1065 -337 q 1054 -340 1060 -337 q 1032 -347 1049 -340 q 996 -354 1004 -354 q 987 -353 992 -354 q 975 -351 982 -353 q 964 -349 969 -350 q 951 -344 958 -347 q 939 -340 944 -342 q 926 -337 933 -339 q 915 -335 919 -336 q 906 -335 910 -335 q 892 -335 900 -335 q 874 -337 885 -336 q 855 -340 863 -339 q 842 -340 847 -340 q 756 -336 801 -340 q 710 -332 733 -335 q 661 -326 686 -329 q 610 -314 644 -321 q 576 -307 594 -311 q 539 -300 558 -303 q 518 -300 529 -300 q 497 -299 508 -300 q 475 -297 486 -297 q 453 -294 464 -296 q 422 -285 433 -285 q 411 -285 418 -285 q 393 -286 404 -285 q 374 -287 382 -287 q 361 -287 367 -287 q 318 -269 333 -287 q 275 -253 303 -253 q 247 -253 260 -253 q 228 -254 235 -254 l 218 -254 q 144 -235 196 -254 q 68 -215 93 -215 q 53 -215 61 -215 q 33 -218 44 -215 q 15 -219 22 -218 q 1 -219 7 -219 q -8 -219 -3 -219 q -19 -217 -12 -218 q -31 -214 -25 -215 q -43 -211 -36 -212 q -56 -208 -50 -210 q -67 -206 -61 -207 q -85 -203 -81 -203 l -101 -207 q -122 -211 -110 -208 q -151 -217 -135 -214 q -162 -218 -157 -218 q -175 -221 -168 -218 q -208 -228 -187 -221 q -229 -240 -215 -232 q -250 -244 -237 -243 q -264 -247 -257 -246 q -281 -250 -271 -247 q -328 -260 -307 -256 q -364 -268 -349 -265 q -408 -274 -392 -274 q -429 -272 -426 -274 q -425 -253 -428 -267 q -344 -203 -424 -239 q -310 -187 -325 -194 q -285 -175 -296 -181 q -247 -162 -262 -165 q -214 -164 -251 -164 q -199 -160 -210 -164 q -178 -153 -192 -158 q -168 -149 -172 -150 q -158 -144 -164 -147 q -149 -142 -153 -143 q -143 -142 -146 -142 q -118 -142 -132 -143 q -87 -140 -104 -142 q -10 -132 -53 -137 q 2 -125 -4 -129 q 15 -117 8 -121 q 49 -100 29 -111 q 82 -96 58 -100 q 132 -69 100 -92 q 181 -49 163 -49 q 222 -22 189 -49 q 239 -8 232 -14 q 251 3 246 -3 q 260 9 257 7 q 264 13 263 11 q 297 25 276 14 q 342 65 310 38 q 400 103 364 79 q 435 128 417 114 q 476 161 454 143 q 486 176 481 168 q 499 193 492 183 q 513 213 506 203 q 529 235 519 224 q 538 241 533 238 q 550 250 543 244 q 563 259 556 254 q 576 271 569 264 q 581 278 578 274 q 586 288 583 282 q 592 299 589 293 q 601 311 596 304 q 613 318 604 314 q 624 325 618 319 q 629 334 626 329 q 635 346 632 339 q 641 360 638 353 q 650 375 644 367 q 694 425 671 393 q 699 449 696 426 q 707 460 701 454 q 712 466 710 463 q 717 475 714 469 q 720 488 718 479 q 728 507 722 496 q 771 569 743 522 q 772 585 772 574 q 774 592 774 589 q 775 597 774 594 q 793 628 778 611 q 813 667 808 649 q 814 686 814 671 q 816 700 815 693 q 818 714 817 707 q 826 735 819 722 q 831 749 829 742 q 836 765 833 756 q 836 833 840 792 q 819 897 832 879 q 803 906 813 899 q 794 919 800 911 q 776 938 788 926 q 710 956 754 956 q 594 911 643 956 q 569 878 583 896 q 554 858 563 868 q 535 833 546 847 q 522 825 528 829 q 510 815 517 821 q 501 801 508 810 q 496 794 499 799 q 490 783 493 789 q 449 742 475 771 q 408 679 422 711 q 406 663 406 671 q 402 653 403 658 q 399 642 401 649 q 386 628 390 633 q 379 620 383 625 q 369 610 375 615 q 367 599 368 604 q 363 586 365 593 q 358 571 360 579 q 351 553 356 563 q 337 519 344 538 q 318 474 329 500 q 317 465 317 471 q 315 456 317 461 q 313 444 314 450 q 311 432 313 439 q 304 414 310 428 q 299 401 301 408 q 294 388 297 394 q 299 339 299 372 q 296 331 297 336 q 294 321 294 326 q 289 297 292 313 q 290 275 286 281 l 294 263 q 297 257 297 257 q 299 244 299 250 q 301 232 299 239 q 307 211 301 225 q 319 194 311 200 q 343 189 326 189 q 386 193 344 189 l 389 181 q 369 168 379 174 q 349 156 360 163 q 328 143 338 149 q 308 131 318 138 q 228 96 253 96 q 190 121 200 96 q 182 146 186 133 q 175 171 178 158 q 157 203 167 181 q 157 247 154 218 q 161 279 158 261 q 167 319 164 297 q 175 361 168 336 q 181 387 178 372 q 190 417 185 401 q 196 423 193 419 q 201 429 199 426 q 208 437 204 432 q 214 447 211 442 q 222 497 219 460 q 239 531 226 519 q 260 551 258 547 q 268 579 263 564 q 274 596 271 586 q 279 617 276 606 q 299 636 288 624 q 311 650 304 643 q 325 665 318 657 q 333 683 326 675 q 358 704 343 689 q 396 754 372 718 q 406 772 401 764 q 415 786 411 779 q 431 806 424 799 q 494 856 449 817 q 513 872 503 863 q 536 892 524 881 q 594 938 561 910 q 608 950 603 946 q 617 956 613 953 q 628 965 622 960 q 676 981 649 976 q 694 984 686 983 q 708 986 701 985 q 719 989 714 988 q 726 992 724 990 q 743 1000 728 993 q 759 1007 750 1003 q 782 1018 768 1011 q 843 1033 815 1033 z "},"R":{"ha":1172,"x_min":-93,"x_max":1447,"o":"m 333 1201 l 350 1192 q 330 1150 339 1169 q 314 1114 321 1131 q 304 1065 300 1078 q 319 1047 307 1054 q 325 1044 322 1046 q 331 1040 328 1043 q 340 1033 336 1035 q 503 979 394 992 q 538 976 518 976 q 581 974 557 976 q 633 973 604 974 q 694 972 661 972 l 724 972 q 746 973 733 972 q 774 974 758 974 l 854 974 l 901 974 q 932 964 913 969 q 979 953 951 958 q 999 950 989 950 q 1018 949 1008 950 q 1036 947 1028 947 q 1056 946 1046 947 q 1121 921 1100 939 q 1144 839 1136 908 q 1149 821 1147 825 q 1146 801 1150 817 q 1075 697 1131 761 q 1024 643 1047 665 q 982 610 1000 621 q 964 603 978 608 q 940 594 956 601 q 923 578 933 588 q 899 560 913 569 q 871 540 886 550 q 838 518 856 529 q 785 501 811 511 q 756 490 771 496 q 725 478 740 485 q 722 472 724 475 q 718 465 721 469 q 711 453 717 458 l 732 432 q 746 418 739 425 q 760 401 753 411 q 767 390 764 397 q 776 376 771 383 q 785 361 781 369 q 796 342 790 353 q 815 306 807 321 q 831 283 824 292 l 847 267 q 856 256 851 261 q 867 243 861 250 q 876 226 869 236 q 889 206 882 217 q 903 181 896 194 q 922 153 911 168 q 957 101 942 124 q 981 61 972 78 q 988 44 983 58 q 992 29 990 38 q 999 10 994 21 q 1024 -35 1008 -19 q 1039 -47 1031 -40 q 1057 -62 1047 -54 q 1101 -103 1074 -78 q 1111 -118 1103 -107 q 1117 -127 1114 -122 q 1125 -137 1121 -132 q 1132 -140 1128 -139 q 1140 -143 1136 -142 q 1160 -151 1150 -146 q 1170 -162 1165 -157 q 1181 -174 1175 -168 q 1215 -185 1192 -185 q 1393 -132 1279 -185 q 1404 -125 1396 -131 q 1418 -117 1410 -124 l 1424 -117 q 1435 -119 1426 -117 q 1447 -122 1443 -122 q 1425 -147 1443 -133 q 1361 -175 1404 -162 q 1334 -182 1346 -179 q 1314 -187 1322 -185 q 1293 -193 1294 -193 q 1272 -206 1285 -200 q 1258 -212 1265 -208 q 1243 -219 1251 -215 q 1168 -228 1215 -228 q 1106 -219 1122 -228 q 1089 -199 1101 -214 q 1082 -197 1086 -197 q 1074 -194 1078 -197 q 1056 -187 1067 -194 q 1049 -178 1053 -183 q 1042 -168 1046 -174 q 1033 -156 1038 -162 q 1021 -142 1028 -149 q 986 -126 1008 -139 q 978 -101 979 -121 q 967 -79 976 -83 q 956 -74 963 -76 q 942 -65 950 -71 q 926 -49 935 -60 q 911 -21 918 -39 q 903 3 908 -11 q 892 40 899 18 q 858 86 876 54 q 860 104 860 90 q 858 114 858 110 q 857 126 858 119 q 849 132 853 131 q 836 140 842 133 q 831 172 836 156 q 813 189 826 181 q 790 203 794 197 q 771 247 786 215 q 764 253 768 250 q 754 261 760 257 q 744 270 749 265 q 732 281 739 275 q 710 310 718 296 q 696 335 701 324 q 686 375 696 356 q 669 381 679 378 q 643 390 658 385 q 631 411 640 399 q 602 422 619 418 q 561 428 585 426 l 482 432 l 460 433 l 454 428 q 443 419 449 425 q 431 399 436 415 q 424 378 428 390 q 417 351 421 367 q 406 322 413 339 q 389 282 399 304 q 368 234 379 260 q 343 176 357 208 q 313 113 328 140 q 288 64 299 85 q 254 8 267 25 q 242 1 249 6 q 226 -11 236 -4 q 220 -26 224 -17 q 210 -46 217 -35 q 268 -51 243 -49 q 311 -57 293 -54 q 353 -61 346 -61 q 410 -57 381 -61 q 439 -40 419 -51 q 457 -31 447 -36 q 478 -21 467 -26 q 496 -19 482 -19 q 521 -15 506 -18 q 518 -21 518 -18 q 516 -31 517 -28 q 515 -36 515 -35 q 424 -74 432 -72 q 332 -101 369 -97 q 317 -103 325 -103 q 297 -103 308 -103 q 249 -107 279 -104 q 239 -110 246 -108 q 222 -114 232 -111 q 193 -118 203 -118 q 128 -101 158 -118 l 119 -93 q 108 -86 115 -86 q 101 -87 106 -86 q 89 -89 96 -87 q 78 -91 82 -90 q 71 -92 74 -92 q 61 -92 67 -92 q 50 -90 57 -92 q 25 -89 43 -89 q 11 -87 18 -87 q -1 -86 6 -87 q -11 -85 -7 -85 q -21 -85 -17 -85 q -54 -92 -36 -85 q -75 -97 -69 -97 q -87 -90 -83 -97 q -93 -82 -89 -86 q -43 -46 -76 -65 q 57 -40 -25 -40 q 206 71 144 -40 q 225 117 215 94 q 246 164 235 140 q 267 210 257 188 q 286 257 276 233 q 361 392 318 304 q 365 424 368 413 q 363 447 361 442 q 365 459 364 453 q 369 472 367 465 q 374 489 372 479 q 381 510 376 499 q 394 544 388 529 q 406 569 400 558 q 413 580 408 574 q 422 593 417 586 q 433 608 426 600 q 449 626 440 617 q 492 704 472 654 q 496 718 494 711 q 497 732 497 725 q 492 756 497 744 q 488 772 488 768 q 518 815 488 789 q 526 819 521 817 q 538 825 531 822 q 553 833 544 828 q 572 843 561 838 q 622 865 615 865 q 636 860 631 865 q 644 856 640 856 q 641 842 643 849 q 636 828 639 835 q 619 790 629 813 q 607 767 614 779 q 592 740 600 756 q 562 688 572 710 q 546 651 551 665 q 542 638 544 646 q 536 621 539 631 q 530 601 533 611 q 522 579 526 590 q 518 568 519 574 q 514 556 517 563 q 500 536 506 547 q 492 522 497 529 q 483 507 488 515 q 482 489 476 496 q 490 479 490 482 q 608 483 551 479 q 689 496 664 488 q 764 533 710 501 q 776 540 769 536 q 790 547 783 543 q 807 556 797 551 q 828 567 817 560 q 881 609 850 579 q 953 686 911 639 q 974 710 964 699 q 994 735 985 722 q 1011 794 1011 757 q 957 886 1011 867 q 917 889 943 889 q 867 906 896 889 q 840 919 851 914 q 817 924 828 924 q 806 924 811 924 q 793 921 800 924 q 778 919 786 921 q 761 917 771 918 q 743 914 751 915 q 728 913 735 913 q 715 910 721 910 q 707 910 711 910 q 676 917 693 910 q 649 924 660 924 q 614 919 636 924 q 594 917 603 918 q 581 917 586 917 q 562 917 574 917 q 535 919 550 918 q 508 922 519 921 q 486 922 496 922 l 458 922 q 450 919 456 921 q 438 915 444 918 q 414 911 422 911 q 343 928 374 911 q 331 940 340 928 q 300 944 326 944 l 278 944 q 264 943 274 943 l 254 943 q 218 950 229 943 q 210 957 213 954 q 204 963 207 960 l 200 967 q 186 971 192 969 q 177 974 182 972 q 167 976 172 975 q 150 1021 150 990 q 151 1040 150 1029 q 157 1061 153 1050 q 333 1201 188 1144 z "},"S":{"ha":1060,"x_min":11,"x_max":1033,"o":"m 1013 928 q 999 906 1008 924 q 977 903 988 904 q 957 903 967 903 q 938 901 947 901 q 919 900 929 900 l 900 900 q 888 900 894 900 q 875 901 882 900 q 861 903 868 903 q 849 903 854 903 q 838 904 843 904 q 831 904 833 904 q 821 904 828 904 q 808 903 815 904 q 792 900 792 900 q 764 875 778 900 q 751 838 753 856 q 753 801 747 811 q 759 794 756 799 q 768 782 763 789 q 788 754 774 772 q 817 718 799 736 q 832 711 821 717 q 840 706 835 708 q 850 700 844 703 q 913 629 868 675 q 929 621 918 626 q 940 615 935 618 q 950 606 944 611 q 957 593 951 601 q 965 578 958 590 q 985 558 975 571 q 1007 531 996 546 q 1015 494 1008 519 q 1032 464 1024 486 q 1033 439 1033 460 q 1029 389 1031 419 q 1008 315 1019 331 q 985 294 997 307 q 967 276 978 288 q 944 250 957 265 q 928 217 942 239 q 858 171 914 201 q 812 149 831 156 q 785 142 793 142 q 776 143 779 142 l 768 143 q 742 133 760 143 q 714 119 719 121 q 600 90 631 90 l 589 90 q 575 92 581 90 l 549 92 q 494 82 525 92 q 440 72 464 72 q 419 78 431 72 q 408 82 413 81 q 401 85 404 83 q 392 86 397 86 q 381 88 388 86 q 351 92 368 89 q 318 106 338 99 q 272 119 299 113 l 229 119 q 183 133 197 119 q 160 153 168 147 q 151 161 153 160 q 141 163 146 163 q 129 167 136 164 q 103 175 117 169 q 61 224 97 176 q 28 274 28 267 q 29 303 29 281 q 29 344 31 321 q 19 365 26 354 q 11 388 11 378 q 13 399 11 396 q 31 431 15 415 q 56 460 51 451 q 63 478 57 464 q 71 504 65 490 q 118 539 74 507 q 168 572 161 569 q 183 575 176 575 q 192 576 189 576 q 197 578 194 576 q 201 567 197 572 q 203 556 204 558 q 190 535 200 544 l 172 517 q 143 426 143 475 q 163 354 143 421 q 294 197 199 236 l 307 197 q 313 196 310 196 q 321 194 317 196 l 328 188 q 336 178 329 185 q 356 174 343 176 q 383 169 368 172 q 396 161 389 167 q 403 156 399 158 q 413 151 407 154 q 484 131 446 138 q 565 126 522 124 q 754 151 631 128 l 761 171 q 756 174 758 172 q 749 178 753 175 q 740 188 739 182 q 742 192 742 190 q 742 194 742 194 q 743 199 743 197 q 769 213 747 203 q 811 217 783 213 q 836 238 824 222 q 847 251 842 244 q 857 264 851 257 q 869 274 863 267 q 886 290 876 281 q 913 361 904 308 q 914 400 917 382 q 893 438 907 413 q 885 460 890 446 q 874 494 881 475 q 865 500 869 499 q 854 508 860 503 q 856 513 854 511 l 856 517 q 839 538 857 522 q 826 549 833 542 l 821 554 q 815 567 818 563 q 807 582 814 569 q 778 611 790 603 q 743 624 765 614 q 725 651 738 638 q 718 653 722 653 q 710 656 714 653 q 690 663 701 656 q 671 694 678 671 q 664 719 667 710 q 660 732 661 729 q 653 738 658 733 q 636 754 647 743 q 622 781 621 769 q 626 792 624 785 q 631 811 628 800 q 651 864 643 858 q 663 869 657 867 q 675 875 668 872 q 688 881 682 878 q 700 886 693 883 q 712 894 706 889 q 725 904 718 899 q 741 915 732 910 q 760 928 750 921 q 774 933 765 931 q 793 939 782 936 q 817 944 804 942 q 844 950 829 947 q 896 958 875 956 q 931 961 917 961 q 1001 942 978 961 q 1004 939 1003 940 q 1008 935 1006 938 q 1013 928 1011 929 z "},"T":{"ha":894,"x_min":-279,"x_max":1513,"o":"m 1364 1144 l 1364 1143 q 1501 1129 1479 1143 q 1510 1111 1507 1124 q 1511 1097 1511 1106 q 1513 1090 1511 1092 q 1354 1046 1404 1046 q 1339 1046 1349 1046 q 1319 1049 1331 1046 q 1299 1049 1308 1049 q 1283 1050 1290 1050 q 1244 1042 1257 1050 q 1228 1033 1235 1035 q 1219 1029 1222 1031 q 1140 1028 1217 1028 q 1101 1024 1122 1028 q 1093 1018 1101 1024 q 1082 1010 1088 1015 q 1072 986 1076 999 q 1061 963 1067 974 q 1051 940 1056 951 q 1042 917 1047 928 q 1013 824 1018 863 q 996 715 1006 786 q 983 667 994 699 q 956 618 969 653 q 951 576 953 603 q 949 568 950 572 q 944 558 947 564 q 940 548 942 553 q 933 538 938 543 q 913 500 914 510 q 911 493 911 497 q 910 485 911 490 q 908 475 908 481 q 907 465 908 471 q 901 450 907 457 q 889 435 897 446 q 876 419 881 424 q 872 414 874 417 q 869 408 871 411 q 867 397 868 403 q 864 385 867 392 q 856 354 863 374 q 843 332 851 346 q 835 320 840 326 q 825 307 831 314 q 809 288 815 296 q 799 274 803 279 q 792 265 794 268 q 789 261 790 263 q 764 218 779 242 q 729 164 749 194 q 717 156 724 161 q 704 146 711 151 q 690 134 697 140 q 672 121 682 128 q 666 112 669 117 q 658 100 663 107 q 649 86 654 93 q 639 72 644 79 q 514 -17 600 29 q 479 -35 496 -26 q 446 -53 463 -43 q 413 -71 429 -62 q 378 -89 396 -79 q 322 -124 360 -103 q 253 -136 299 -126 q 244 -140 250 -137 q 232 -147 239 -142 q 213 -156 217 -156 l 199 -156 q 153 -171 188 -156 q 119 -185 132 -179 q 100 -192 106 -190 q 68 -197 85 -194 q 35 -203 51 -200 q -32 -207 3 -207 q -150 -193 -110 -207 q -169 -183 -156 -190 q -207 -165 -183 -176 q -257 -136 -251 -143 q -279 -29 -279 -110 q -279 -7 -279 -18 q -276 14 -279 3 q -272 53 -276 33 q -247 126 -264 101 q -236 142 -242 133 q -224 157 -231 150 q -211 172 -217 164 q -199 188 -206 181 q -183 213 -196 200 q -169 214 -179 214 q -150 218 -164 215 q -146 204 -150 213 q -143 188 -142 197 q -158 160 -146 176 q -166 149 -162 154 q -172 142 -169 144 q -179 132 -178 133 q -187 112 -183 122 q -194 89 -192 101 q -201 63 -197 78 q -207 33 -204 49 q -211 -6 -211 13 q -214 -21 -214 -14 q -214 -36 -214 -29 q -181 -114 -214 -92 q -68 -143 -151 -135 q 11 -147 -29 -147 q 244 -107 139 -147 q 257 -99 250 -106 q 263 -94 260 -96 q 272 -89 267 -92 q 297 -82 283 -86 q 325 -72 310 -78 q 358 -60 340 -67 q 397 -44 376 -54 q 416 -27 406 -36 q 440 -7 426 -18 q 486 18 458 1 q 513 37 499 26 q 546 58 528 47 q 553 73 549 65 q 565 90 558 81 q 594 132 575 108 q 602 138 597 135 q 613 144 607 140 q 624 152 618 147 q 638 163 631 157 q 663 222 653 179 q 672 262 668 246 q 682 285 676 278 q 694 303 685 293 q 704 315 699 308 q 717 329 710 322 q 743 378 739 351 q 744 396 744 382 q 747 407 746 401 q 749 419 747 413 q 765 454 750 433 q 779 486 776 471 q 782 503 779 489 q 783 511 783 507 q 785 524 783 517 q 792 542 786 532 q 806 563 797 551 q 825 604 824 586 q 826 613 826 608 q 828 625 826 618 q 832 654 829 638 q 840 675 833 664 q 847 685 843 681 q 854 696 850 690 q 861 706 857 701 q 868 717 865 711 q 876 740 874 726 q 877 774 876 754 q 881 822 878 794 q 890 856 882 836 q 910 901 897 875 q 931 947 922 928 q 936 965 933 957 q 940 979 939 972 q 933 988 938 983 q 926 996 929 992 q 889 1004 919 1004 q 878 1003 885 1004 q 865 1003 872 1003 q 833 999 850 999 q 803 994 818 994 q 789 992 796 992 q 779 992 783 992 q 742 1001 763 992 q 704 1011 721 1011 q 668 1007 693 1011 q 648 1005 657 1006 q 632 1004 639 1004 l 571 1004 q 521 1011 556 1004 q 475 1018 489 1018 q 446 1011 467 1018 q 417 1004 425 1004 q 406 1004 413 1004 q 392 1006 400 1004 q 376 1007 383 1007 q 367 1007 371 1007 q 290 978 317 1008 q 279 960 285 968 q 268 942 274 951 q 257 924 263 932 q 246 906 251 915 q 193 850 231 881 q 129 808 150 813 q 121 807 128 807 q 93 808 89 807 l 96 831 q 125 893 101 876 q 154 915 139 904 q 185 936 169 925 q 201 952 192 943 q 221 971 210 961 q 244 992 232 981 q 272 1017 257 1003 q 343 1042 294 1025 q 359 1052 350 1047 q 379 1063 368 1057 q 402 1072 390 1067 q 429 1085 414 1078 q 531 1101 468 1094 q 597 1106 561 1104 q 674 1108 633 1108 q 703 1108 688 1108 q 735 1107 718 1108 q 767 1106 750 1106 q 803 1103 785 1106 q 818 1101 808 1103 q 842 1099 828 1100 q 872 1094 856 1097 q 908 1089 889 1092 q 968 1082 943 1082 q 993 1079 982 1079 q 1015 1079 1004 1079 q 1082 1085 1058 1079 q 1142 1099 1104 1099 q 1175 1104 1165 1099 q 1199 1121 1193 1118 q 1364 1144 1257 1144 z "},"U":{"ha":1506,"x_min":-40,"x_max":1482,"o":"m 1153 1111 q 1071 1086 1122 1111 q 990 1063 1017 1063 q 979 1063 986 1063 q 965 1064 974 1063 q 950 1065 957 1065 q 940 1065 944 1065 q 882 1050 924 1065 q 817 1036 844 1036 q 788 1036 800 1036 q 768 1033 775 1036 q 737 1021 750 1026 q 714 1010 724 1015 q 647 998 675 1003 q 600 990 619 993 q 501 949 531 964 q 458 934 476 940 q 428 925 439 928 q 389 901 408 915 q 347 871 369 888 q 317 846 336 861 q 271 807 297 831 q 239 785 256 796 q 207 763 222 774 q 158 711 165 735 q 119 653 153 686 q 81 599 86 619 q 71 568 74 572 q 53 551 61 558 q 39 539 46 544 q -36 410 -24 460 q -36 392 -40 399 q -28 376 -29 378 q 108 460 90 421 q 115 478 110 463 q 131 521 119 493 q 156 574 147 565 q 169 581 161 579 q 250 681 224 638 q 269 729 265 714 q 308 779 283 753 q 368 836 332 806 q 490 914 436 894 q 531 922 514 919 q 560 925 549 924 q 578 936 568 928 q 599 944 588 944 l 608 944 q 618 943 613 943 q 650 954 628 943 q 679 967 671 964 q 722 974 699 971 q 774 976 746 976 q 803 976 790 976 q 824 975 815 976 q 813 947 817 960 q 806 926 808 935 q 772 897 785 906 q 756 873 763 883 q 744 856 749 863 q 707 829 724 840 q 679 813 690 818 q 639 768 656 788 q 611 735 622 749 q 576 707 592 719 q 550 688 561 694 q 541 671 544 678 q 536 658 538 664 q 482 586 526 635 q 436 511 446 546 q 415 447 421 457 q 383 419 396 428 q 359 377 369 400 q 342 328 349 354 q 333 294 336 308 q 326 268 329 279 q 301 217 322 247 q 284 188 290 201 q 275 165 278 175 q 272 151 272 154 q 279 132 272 143 q 286 108 286 121 q 281 78 286 94 q 272 46 272 49 q 283 17 272 36 q 288 8 288 13 q 290 4 290 6 q 292 1 290 3 q 329 -8 301 -8 q 442 24 382 -8 q 450 35 444 32 q 485 44 469 40 q 514 49 500 47 q 582 83 561 69 q 635 99 613 93 q 672 107 657 104 q 750 156 724 136 q 781 167 768 163 q 803 174 794 171 q 839 201 824 189 q 864 221 854 213 q 911 239 893 235 q 979 307 925 249 q 1044 365 1029 361 q 1065 368 1058 368 q 1106 322 1106 365 q 1100 286 1106 303 q 1075 226 1090 250 q 1057 208 1071 221 q 1042 178 1047 201 q 1035 147 1038 160 q 1029 125 1032 135 q 1019 119 1021 125 q 1022 101 1018 117 q 1026 65 1026 78 q 1040 61 1032 65 q 1051 58 1049 58 l 1054 60 l 1056 65 q 1095 76 1075 71 q 1135 89 1115 82 q 1201 129 1194 107 q 1197 146 1203 135 q 1192 154 1194 150 q 1188 161 1190 158 q 1181 199 1181 178 q 1182 219 1181 207 q 1186 246 1183 231 q 1191 277 1189 265 q 1193 293 1193 289 q 1224 489 1208 432 q 1264 589 1238 547 q 1294 635 1279 613 q 1325 681 1310 657 q 1363 753 1347 722 q 1388 807 1378 785 q 1412 836 1401 824 q 1431 856 1422 849 q 1468 943 1453 889 q 1475 1021 1482 994 q 1457 1046 1464 1039 l 1433 1046 q 1360 1004 1419 1046 q 1294 950 1300 964 q 1290 942 1292 943 q 1288 915 1289 926 q 1286 897 1286 904 q 1279 881 1283 890 q 1267 858 1275 871 q 1249 819 1250 831 l 1247 813 l 1254 794 q 1250 755 1253 776 q 1240 710 1247 733 q 1235 693 1238 700 q 1229 681 1232 686 q 1199 647 1214 661 q 1174 622 1185 632 q 1124 566 1146 590 q 1088 526 1103 542 q 1067 490 1075 506 q 1050 479 1057 483 q 1038 472 1043 475 q 1010 425 1024 458 q 996 396 1003 407 q 983 378 989 385 q 939 346 953 354 q 917 311 924 325 q 876 278 893 292 q 844 258 858 265 q 819 231 829 243 q 801 210 808 218 q 733 171 772 190 q 642 132 693 151 q 479 92 533 92 q 449 94 457 92 q 431 119 435 108 q 411 189 411 144 q 436 299 411 238 q 460 337 450 321 q 478 364 471 353 q 507 434 494 404 q 526 483 519 464 q 536 498 529 489 q 554 521 543 507 q 575 561 568 539 q 588 603 583 596 q 667 693 638 667 q 704 753 694 735 q 725 764 722 763 q 742 782 732 771 q 765 808 751 793 q 788 835 778 824 q 808 854 799 847 q 833 870 822 864 q 851 879 844 876 q 860 892 857 886 q 867 904 864 899 q 915 953 871 913 q 967 996 958 992 q 1036 1011 1017 1011 q 1069 1028 1058 1021 q 1084 1031 1071 1029 q 1122 1040 1097 1033 q 1175 1064 1142 1044 q 1183 1089 1181 1081 q 1153 1111 1188 1111 z "}}}
